<?xml version="1.0" encoding="UTF-8"?>
<!DOCTYPE svg PUBLIC "-//W3C//DTD SVG 1.1//EN" "http://www.w3.org/Graphics/SVG/1.1/DTD/svg11.dtd">
<!-- Creator: CorelDRAW X7 -->
<svg xmlns="http://www.w3.org/2000/svg" xml:space="preserve" width="100%" height="100%" version="1.1" style="shape-rendering:geometricPrecision; text-rendering:geometricPrecision; image-rendering:optimizeQuality; fill-rule:evenodd; clip-rule:evenodd"
viewBox="0 0 3416 1732"
 xmlns:xlink="http://www.w3.org/1999/xlink">
 <defs>
  <style type="text/css">
   <![CDATA[
    .fil2 {fill:none}
    .fil3 {fill:#0B599D}
    .fil1 {fill:#EBECEC}
    .fil0 {fill:#2B2A29;fill-rule:nonzero}
   ]]>
  </style>
 </defs>
 <g id="Layer_x0020_1">
  <metadata id="CorelCorpID_0Corel-Layer"/>
  <polygon class="fil0" points="28,140 28,208 0,208 0,12 28,12 28,103 117,8 137,24 68,98 152,208 118,208 49,118 "/>
  <path id="1" class="fil0" d="M158 218c6,-3 12,-5 15,-7 3,-2 5,-5 6,-9 2,-3 2,-8 2,-15l0 -175 28 0 0 180c0,9 -1,16 -4,21 -2,6 -6,10 -12,14 -6,4 -14,7 -24,11l-11 -20z"/>
  <path id="2" class="fil0" d="M302 212c-8,0 -19,-2 -31,-5 -12,-3 -20,-6 -24,-9l6 -22c6,3 14,6 23,8 9,3 18,4 26,4 13,0 24,-3 31,-8 8,-5 12,-12 12,-20 0,-6 -2,-12 -6,-17 -4,-4 -9,-9 -16,-13 -7,-3 -16,-8 -29,-14 -12,-5 -22,-10 -29,-15 -7,-5 -12,-11 -16,-18 -4,-7 -6,-15 -6,-25 0,-9 3,-18 8,-26 5,-7 13,-13 23,-18 9,-4 21,-6 34,-6 9,0 18,1 27,3 9,3 17,6 25,9l-10 22c-6,-3 -13,-5 -19,-7 -6,-2 -13,-3 -21,-3 -12,0 -21,2 -28,7 -7,4 -11,10 -11,19 0,6 2,12 6,16 3,5 8,9 15,13 7,4 17,9 30,15 17,8 30,16 38,24 9,9 13,20 13,33 0,11 -3,20 -9,28 -5,8 -13,14 -24,18 -11,5 -23,7 -38,7z"/>
  <path id="3" class="fil0" d="M486 8c7,0 15,1 25,3 10,2 18,5 25,9l-9 20c-8,-3 -15,-5 -21,-7 -5,-1 -12,-1 -21,-1 -12,0 -22,3 -32,10 -10,6 -17,16 -23,28 -6,12 -8,26 -8,41 0,14 2,27 7,39 5,12 12,21 21,28 10,7 21,11 33,11 16,0 31,-3 43,-9l11 21c-7,3 -15,6 -25,8 -10,2 -20,3 -28,3 -19,0 -36,-4 -50,-13 -13,-9 -24,-21 -31,-37 -7,-15 -10,-32 -10,-51 0,-19 4,-37 11,-53 8,-15 19,-28 33,-37 14,-8 30,-13 49,-13z"/>
  <polygon id="4" class="fil0" points="689,187 693,208 568,208 568,12 689,12 693,33 596,33 596,98 663,98 666,119 596,119 596,187 "/>
  <path id="5" class="fil0" d="M835 212c-8,0 -19,-2 -31,-5 -12,-3 -20,-6 -24,-9l6 -22c7,3 14,6 23,8 9,3 18,4 26,4 13,0 24,-3 32,-8 7,-5 11,-12 11,-20 0,-6 -2,-12 -6,-17 -4,-4 -9,-9 -16,-13 -7,-3 -16,-8 -29,-14 -12,-5 -21,-10 -29,-15 -7,-5 -12,-11 -16,-18 -4,-7 -5,-15 -5,-25 0,-9 2,-18 7,-26 6,-7 13,-13 23,-18 9,-4 21,-6 34,-6 9,0 18,1 27,3 9,3 17,6 25,9l-9 22c-7,-3 -14,-5 -20,-7 -6,-2 -13,-3 -21,-3 -12,0 -21,2 -28,7 -7,4 -11,10 -11,19 0,6 2,12 6,16 3,5 9,9 15,13 7,4 17,9 30,15 17,8 30,16 38,24 9,9 13,20 13,33 0,11 -3,20 -9,28 -5,8 -13,14 -24,18 -10,5 -23,7 -38,7z"/>
  <path id="6" class="fil0" d="M966 70l26 0 8 21 -34 0 0 74c0,7 2,13 5,18 3,4 8,6 15,6 4,0 8,-1 14,-3l7 21c-3,2 -7,3 -11,4 -5,1 -9,2 -13,2 -14,0 -24,-4 -32,-11 -8,-8 -12,-19 -12,-33l0 -78 -20 0 0 -21 20 0 0 -35 27 -6 0 41z"/>
  <path id="7" class="fil0" d="M1080 189c6,0 13,-2 21,-6 8,-4 15,-10 23,-16l0 -99 27 0 0 140 -19 0 -5 -18c-7,6 -16,12 -25,16 -10,5 -19,7 -28,7 -15,0 -27,-5 -34,-14 -7,-10 -11,-22 -11,-38l0 -93 28 0 0 90c0,10 1,18 5,23 3,6 9,8 18,8z"/>
  <path id="8" class="fil0" d="M1305 208l-16 0 -5 -10c-6,4 -12,8 -19,10 -7,3 -13,4 -18,4 -14,0 -27,-3 -37,-9 -11,-6 -19,-15 -24,-26 -6,-12 -9,-25 -9,-40 0,-14 3,-27 9,-38 6,-11 14,-19 24,-25 11,-6 23,-9 37,-9 4,0 9,0 14,2 6,1 11,4 16,7l0 -66 28 -3 0 203zm-58 -20c6,0 12,-1 17,-3 4,-2 9,-5 13,-9l0 -77c-4,-4 -9,-6 -14,-8 -5,-2 -10,-3 -16,-3 -13,0 -23,5 -30,14 -8,9 -11,21 -11,35 0,15 3,28 10,37 8,10 18,14 31,14z"/>
  <path id="9" class="fil0" d="M1401 65c20,0 35,6 46,20 10,13 15,31 15,52l0 7 -99 0c1,14 6,25 13,33 8,8 19,12 34,12 7,0 14,-1 19,-3 6,-2 13,-5 23,-10l9 20c-17,11 -34,16 -51,16 -24,0 -43,-7 -56,-20 -13,-14 -20,-31 -20,-54 0,-14 3,-27 8,-38 6,-11 13,-20 23,-26 11,-6 22,-9 36,-9zm-1 23c-10,0 -19,4 -25,10 -6,7 -10,16 -11,28l71 0c-3,-25 -15,-38 -35,-38z"/>
  <path id="10" class="fil0" d="M1560 87c-7,0 -14,2 -21,7 -8,4 -16,9 -23,16l0 98 -28 0 0 -140 19 0 5 19c8,-7 16,-12 26,-17 9,-4 18,-6 28,-6 15,0 26,4 34,14 7,9 11,22 11,38l0 92 -28 0 0 -89c0,-11 -2,-18 -5,-24 -3,-5 -9,-8 -18,-8z"/>
  <path id="11" class="fil0" d="M1679 70l25 0 9 21 -34 0 0 74c0,7 1,13 5,18 3,4 8,6 15,6 3,0 8,-1 13,-3l7 21c-3,2 -6,3 -11,4 -4,1 -8,2 -12,2 -14,0 -25,-4 -33,-11 -8,-8 -12,-19 -12,-33l0 -78 -20 0 0 -21 20 0 0 -35 28 -6 0 41z"/>
  <path id="12" class="fil0" d="M1781 212c-7,0 -15,-1 -24,-4 -9,-2 -17,-5 -22,-9l9 -19c13,6 25,9 37,9 9,0 17,-1 22,-4 6,-4 8,-8 8,-13 0,-10 -10,-18 -31,-25 -30,-10 -46,-24 -46,-42 0,-12 5,-22 15,-30 9,-7 22,-10 38,-10 7,0 15,1 24,3 9,3 16,6 21,10l-8 19c-7,-3 -13,-6 -19,-7 -5,-2 -11,-3 -18,-3 -7,0 -13,2 -18,5 -5,3 -7,8 -7,13 0,4 2,7 7,10 5,4 12,7 22,10 31,11 47,26 47,45 0,13 -5,24 -15,31 -10,7 -24,11 -42,11z"/>
  <path id="13" class="fil0" d="M1856 18c0,-5 2,-9 5,-12 4,-4 8,-6 12,-6 5,0 9,2 13,6 3,4 5,9 5,15 0,10 -3,19 -9,29 -6,10 -14,18 -23,23l-7 -13c6,-5 10,-8 13,-12 3,-4 4,-8 5,-13 -4,0 -7,-2 -10,-6 -3,-3 -4,-7 -4,-11z"/>
  <path id="14" class="fil0" d="M2004 8c7,0 16,1 26,3 10,2 18,5 24,9l-8 20c-9,-3 -16,-5 -21,-7 -6,-1 -13,-1 -21,-1 -12,0 -23,3 -33,10 -9,6 -17,16 -22,28 -6,12 -9,26 -9,41 0,14 3,27 8,39 4,12 12,21 21,28 9,7 20,11 33,11 16,0 30,-3 43,-9l10 21c-6,3 -14,6 -25,8 -10,2 -19,3 -27,3 -20,0 -36,-4 -50,-13 -14,-9 -24,-21 -31,-37 -7,-15 -11,-32 -11,-51 0,-19 4,-37 12,-53 7,-15 18,-28 32,-37 14,-8 31,-13 49,-13z"/>
  <path id="15" class="fil0" d="M2139 212c-14,0 -26,-3 -37,-9 -10,-6 -18,-15 -24,-26 -6,-11 -8,-24 -8,-39 0,-14 3,-27 8,-38 6,-11 14,-20 25,-26 10,-6 23,-9 37,-9 14,0 26,3 37,9 10,6 18,15 24,26 6,11 8,24 8,38 0,15 -2,28 -8,39 -6,11 -14,20 -25,26 -10,6 -23,9 -37,9zm42 -73c0,-15 -3,-27 -11,-37 -7,-9 -17,-14 -30,-14 -13,0 -23,5 -30,14 -8,10 -12,22 -12,36 0,15 4,27 11,36 7,10 17,14 30,14 13,0 23,-4 31,-14 7,-9 11,-21 11,-35z"/>
  <path id="16" class="fil0" d="M2285 189c7,0 14,-2 21,-6 8,-4 16,-10 23,-16l0 -99 28 0 0 140 -19 0 -5 -18c-8,6 -16,12 -26,16 -9,5 -19,7 -28,7 -15,0 -26,-5 -34,-14 -7,-10 -11,-22 -11,-38l0 -93 28 0 0 90c0,10 2,18 5,23 3,6 9,8 18,8z"/>
  <path id="17" class="fil0" d="M2463 87c-6,0 -13,2 -21,7 -8,4 -15,9 -23,16l0 98 -28 0 0 -140 20 0 5 19c7,-7 16,-12 25,-17 9,-4 19,-6 28,-6 15,0 26,4 34,14 7,9 11,22 11,38l0 92 -28 0 0 -89c0,-11 -1,-18 -5,-24 -3,-5 -9,-8 -18,-8z"/>
  <path id="18" class="fil0" d="M2608 188c8,0 15,0 21,-2 5,-2 12,-4 18,-7l9 20c-6,4 -14,7 -23,9 -10,3 -18,4 -25,4 -14,0 -26,-3 -37,-9 -10,-6 -18,-15 -24,-26 -5,-11 -8,-24 -8,-39 0,-14 3,-27 8,-38 6,-11 14,-20 25,-26 11,-6 23,-9 37,-9 7,0 15,1 24,3 10,3 18,6 23,10l-8 20c-8,-4 -14,-6 -20,-7 -5,-2 -12,-3 -19,-3 -13,0 -23,5 -30,14 -8,10 -12,22 -12,36 0,15 4,27 11,36 7,10 17,14 30,14z"/>
  <path id="19" class="fil0" d="M2712 26c0,5 -1,9 -5,12 -3,4 -7,5 -12,5 -5,0 -9,-1 -12,-5 -4,-3 -5,-7 -5,-12 0,-5 1,-9 5,-12 3,-4 7,-5 12,-5 5,0 9,1 12,5 4,3 5,7 5,12zm-3 42l0 140 -28 0 0 -140 28 0z"/>
  <polygon id="20" class="fil0" points="2774,5 2774,208 2747,208 2747,8 "/>
  <polygon id="21" class="fil0" points="2934,45 2934,208 2907,208 2907,76 2876,92 2864,70 2916,45 "/>
  <path id="22" class="fil0" d="M3096 153c0,12 -3,22 -8,31 -5,8 -13,15 -22,20 -10,5 -21,8 -33,8 -13,0 -25,-3 -36,-9 -10,-6 -19,-14 -25,-26 -6,-11 -9,-25 -9,-41 0,-22 6,-40 17,-56 11,-16 25,-29 41,-38 17,-9 34,-15 50,-17l5 22c-18,4 -36,11 -52,21 -15,10 -26,24 -31,42 6,-4 12,-8 19,-10 6,-2 13,-3 21,-3 12,0 23,2 32,7 10,5 18,11 23,20 5,8 8,18 8,29zm-26 2c0,-11 -3,-20 -10,-26 -7,-7 -17,-10 -28,-10 -14,0 -28,6 -42,19 0,16 5,29 13,37 8,9 18,14 29,14 11,0 20,-3 27,-10 8,-6 11,-14 11,-24z"/>
  <polygon id="23" class="fil0" points="3113,119 3187,119 3189,140 3116,140 "/>
  <polygon id="24" class="fil0" points="3271,45 3271,208 3244,208 3244,76 3213,92 3201,70 3253,45 "/>
  <polygon id="25" class="fil0" points="3416,57 3354,228 3328,220 3384,68 3298,68 3294,45 3407,45 "/>
  <path class="fil0" d="M1539 529l32 -85 11 0 33 85 -12 1 -9 -24 -35 0 -9 23 -11 0zm23 -32l28 0 -14 -37 -14 37z"/>
  <path id="1" class="fil0" d="M1653 531c-6,0 -12,-2 -17,-5 -5,-3 -9,-8 -12,-13 -3,-6 -4,-12 -4,-20 0,-7 1,-13 4,-19 3,-5 7,-10 12,-13 5,-3 11,-4 17,-4 7,0 13,1 18,4 5,3 9,8 12,13 3,6 4,12 4,19 0,7 -1,14 -4,20 -3,5 -7,10 -12,13 -5,3 -11,5 -18,5zm0 -64c-4,0 -8,1 -11,3 -3,2 -6,6 -8,10 -2,3 -3,8 -3,13 0,5 1,10 3,14 2,4 5,8 8,10 3,3 7,4 11,4 5,0 9,-1 12,-4 3,-2 6,-5 8,-9 2,-4 3,-9 3,-14 0,-5 -1,-10 -3,-14 -2,-4 -5,-7 -8,-10 -3,-2 -7,-3 -12,-3z"/>
  <path id="2" class="fil0" d="M1696 463c3,-2 6,-3 10,-5 3,-1 8,-1 13,-1 8,0 14,1 19,5 5,3 7,8 7,15 0,5 -1,10 -4,14 -3,5 -8,10 -15,16l-16 13 37 0 2 9 -55 0 0 -8 27 -23c4,-4 8,-7 10,-10 2,-3 3,-6 3,-10 0,-4 -1,-7 -4,-9 -3,-2 -7,-3 -12,-3 -4,0 -7,1 -10,2 -3,1 -6,3 -9,5l-3 -10z"/>
  <path id="3" class="fil0" d="M1789 531c-6,0 -12,-2 -17,-5 -6,-3 -10,-8 -12,-13 -3,-6 -5,-12 -5,-20 0,-7 2,-13 5,-19 2,-5 6,-10 12,-13 5,-3 11,-4 17,-4 7,0 12,1 17,4 6,3 10,8 12,13 3,6 5,12 5,19 0,7 -2,14 -5,20 -2,5 -6,10 -12,13 -5,3 -10,5 -17,5zm0 -64c-4,0 -8,1 -11,3 -4,2 -6,6 -8,10 -2,3 -3,8 -3,13 0,5 1,10 3,14 2,4 4,8 8,10 3,3 7,4 11,4 4,0 8,-1 12,-4 3,-2 6,-5 7,-9 2,-4 3,-9 3,-14 0,-5 -1,-10 -3,-14 -1,-4 -4,-7 -7,-10 -4,-2 -8,-3 -12,-3z"/>
  <path id="4" class="fil0" d="M1831 522c0,-2 0,-4 2,-5 1,-2 3,-3 5,-3 2,0 4,1 6,3 1,1 2,4 2,6 0,5 -1,9 -4,13 -3,5 -6,8 -10,10l-3 -6c2,-2 4,-3 6,-5 1,-1 2,-3 2,-6 -2,0 -3,-1 -4,-2 -2,-2 -2,-3 -2,-5z"/>
  <path id="5" class="fil0" d="M1911 494l-18 0 1 -10 28 0 0 41c-3,2 -6,3 -11,4 -4,2 -9,2 -13,2 -9,0 -16,-2 -23,-6 -6,-4 -11,-9 -15,-15 -3,-7 -5,-15 -5,-23 0,-9 2,-16 6,-23 3,-7 9,-12 15,-16 7,-4 15,-6 23,-6 3,0 7,1 11,1 5,1 8,3 11,4l-4 9c-3,-1 -6,-2 -9,-3 -2,0 -5,-1 -9,-1 -5,0 -11,2 -16,4 -4,3 -8,7 -11,12 -3,6 -5,12 -5,19 0,7 2,13 4,18 3,5 6,9 11,12 5,2 10,4 15,4 5,0 10,-1 14,-2l0 -25z"/>
  <path id="6" class="fil0" d="M1970 478c-3,0 -7,1 -11,3 -4,2 -7,5 -11,8l0 40 -12 0 0 -61 7 0 4 10c3,-2 6,-4 10,-6 4,-3 7,-4 10,-4l3 10z"/>
  <path id="7" class="fil0" d="M2005 531c-6,0 -11,-1 -16,-4 -4,-3 -8,-6 -10,-11 -3,-5 -4,-11 -4,-17 0,-6 1,-12 4,-17 2,-5 6,-9 11,-11 4,-3 10,-4 16,-4 6,0 11,1 16,4 4,2 8,6 10,11 3,5 4,11 4,17 0,6 -1,12 -4,17 -2,5 -6,8 -10,11 -5,3 -11,4 -17,4zm19 -32c0,-6 -2,-12 -5,-16 -3,-4 -8,-6 -13,-6 -6,0 -10,2 -14,6 -3,4 -5,9 -5,16 0,6 2,12 5,16 3,4 8,6 13,6 6,0 10,-2 14,-6 3,-5 5,-10 5,-16z"/>
  <path id="8" class="fil0" d="M2069 521c3,0 6,-1 9,-3 4,-1 7,-4 10,-7l0 -43 12 0 0 61 -8 0 -2 -8c-4,3 -7,6 -11,8 -4,1 -9,2 -13,2 -6,0 -11,-2 -14,-6 -4,-4 -5,-9 -5,-16l0 -41 12 0 0 39c0,5 1,8 2,11 2,2 4,3 8,3z"/>
  <path id="9" class="fil0" d="M2147 477c-3,0 -6,1 -10,2 -3,2 -6,5 -10,7l0 43 -12 0 0 -61 9 0 2 8c3,-3 7,-5 11,-7 4,-2 8,-3 12,-3 7,0 12,2 15,7 3,4 5,9 5,16l0 40 -12 0 0 -39c0,-4 -1,-8 -2,-10 -2,-2 -5,-3 -8,-3z"/>
  <path id="10" class="fil0" d="M2235 529l-6 0 -3 -4c-2,2 -5,3 -8,4 -3,1 -6,2 -8,2 -6,0 -12,-1 -16,-4 -5,-3 -8,-6 -11,-11 -2,-5 -3,-11 -3,-18 0,-6 1,-11 3,-16 3,-5 6,-9 11,-11 5,-3 10,-4 16,-4 2,0 4,0 6,1 3,0 5,1 7,3l0 -29 12 -1 0 88zm-25 -8c3,0 5,-1 7,-2 2,0 4,-2 6,-3l0 -34c-2,-2 -4,-3 -6,-4 -2,-1 -4,-1 -7,-1 -6,0 -10,2 -13,6 -3,4 -5,9 -5,15 0,7 2,12 5,17 3,4 7,6 13,6z"/>
  <polygon id="11" class="fil0" points="2297,482 2324,482 2326,491 2297,491 2297,529 2285,529 2285,444 2331,444 2332,453 2297,453 "/>
  <polygon id="12" class="fil0" points="2356,441 2356,529 2344,529 2344,442 "/>
  <path id="13" class="fil0" d="M2399 531c-7,0 -12,-1 -16,-4 -5,-3 -9,-6 -11,-11 -2,-5 -4,-11 -4,-17 0,-6 2,-12 4,-17 3,-5 6,-9 11,-11 4,-3 10,-4 16,-4 6,0 12,1 16,4 5,2 8,6 11,11 2,5 3,11 3,17 0,6 -1,12 -3,17 -3,5 -6,8 -11,11 -5,3 -10,4 -16,4zm18 -32c0,-6 -2,-12 -5,-16 -3,-4 -7,-6 -13,-6 -5,0 -10,2 -13,6 -3,4 -5,9 -5,16 0,6 1,12 5,16 3,4 7,6 13,6 5,0 10,-2 13,-6 3,-5 5,-10 5,-16z"/>
  <path id="14" class="fil0" d="M2467 531c-6,0 -11,-1 -16,-4 -4,-3 -8,-6 -10,-11 -3,-5 -4,-11 -4,-17 0,-6 1,-12 4,-17 2,-5 6,-9 10,-11 5,-3 10,-4 17,-4 6,0 11,1 16,4 4,2 8,6 10,11 3,5 4,11 4,17 0,6 -1,12 -4,17 -2,5 -6,8 -11,11 -4,3 -10,4 -16,4zm19 -32c0,-6 -2,-12 -5,-16 -3,-4 -8,-6 -13,-6 -6,0 -10,2 -14,6 -3,4 -5,9 -5,16 0,6 2,12 5,16 3,4 8,6 13,6 6,0 10,-2 14,-6 3,-5 5,-10 5,-16z"/>
  <path id="15" class="fil0" d="M2543 478c-3,0 -7,1 -11,3 -4,2 -7,5 -11,8l0 40 -12 0 0 -61 7 0 4 10c3,-2 6,-4 10,-6 4,-3 7,-4 10,-4l3 10z"/>
  <path id="16" class="fil0" d="M2548 522c0,-2 1,-4 3,-5 1,-2 3,-3 5,-3 2,0 4,1 6,3 1,1 2,4 2,6 0,5 -2,9 -4,13 -3,5 -6,8 -10,10l-3 -6c2,-2 4,-3 5,-5 2,-1 2,-3 3,-6 -2,0 -3,-1 -5,-2 -1,-2 -2,-3 -2,-5z"/>
  <polygon class="fil0" points="1561,651 1561,680 1549,680 1549,595 1561,595 1561,634 1600,593 1608,600 1578,632 1615,680 1600,680 1570,641 "/>
  <path id="1" class="fil0" d="M1635 673c0,2 -1,4 -2,5 -2,2 -4,2 -6,2 -2,0 -4,0 -5,-2 -2,-1 -2,-3 -2,-5 0,-2 0,-4 2,-6 1,-1 3,-2 5,-2 2,0 4,1 6,2 1,2 2,4 2,6z"/>
  <path id="2" class="fil0" d="M1640 684c3,-1 5,-2 6,-3 2,0 3,-2 3,-3 1,-2 1,-4 1,-7l0 -76 12 0 0 78c0,4 0,7 -1,10 -1,2 -3,4 -6,6 -2,1 -6,3 -10,4l-5 -9z"/>
  <path id="3" class="fil0" d="M1691 673c0,2 -1,4 -2,5 -1,2 -3,2 -5,2 -3,0 -4,0 -6,-2 -1,-1 -2,-3 -2,-5 0,-2 1,-4 2,-6 2,-1 3,-2 6,-2 2,0 4,1 5,2 1,2 2,4 2,6z"/>
  <path id="4" class="fil0" d="M1754 682c-3,0 -8,-1 -13,-2 -5,-1 -9,-3 -11,-4l3 -10c3,2 6,3 10,4 4,1 8,2 11,2 6,0 11,-2 14,-4 3,-2 5,-5 5,-9 0,-2 -1,-5 -2,-7 -2,-2 -4,-4 -7,-6 -3,-1 -8,-3 -13,-6 -5,-2 -10,-4 -13,-6 -3,-3 -5,-5 -7,-8 -1,-3 -2,-7 -2,-11 0,-4 1,-8 3,-11 2,-4 6,-6 10,-8 4,-2 9,-3 15,-3 4,0 8,0 12,1 4,2 7,3 10,4l-4 10c-2,-1 -5,-3 -8,-3 -3,-1 -6,-1 -9,-1 -5,0 -9,0 -12,2 -4,2 -5,5 -5,9 0,2 1,5 2,7 2,2 4,4 7,6 3,1 7,3 13,6 8,3 13,7 17,11 3,3 5,8 5,14 0,4 -1,8 -3,12 -3,3 -6,6 -11,8 -5,2 -10,3 -17,3z"/>
  <path id="5" class="fil0" d="M1823 682c-6,0 -12,-1 -16,-4 -5,-3 -8,-7 -11,-11 -2,-5 -3,-11 -3,-17 0,-7 1,-12 3,-17 3,-5 7,-9 11,-11 5,-3 10,-4 16,-4 7,0 12,1 16,4 5,2 9,6 11,11 2,5 4,11 4,17 0,6 -2,12 -4,17 -3,4 -6,8 -11,11 -4,3 -10,4 -16,4zm18 -32c0,-7 -1,-12 -4,-16 -4,-4 -8,-6 -14,-6 -5,0 -10,2 -13,6 -3,4 -5,9 -5,16 0,6 2,12 5,16 3,4 7,6 13,6 6,0 10,-2 13,-6 4,-5 5,-10 5,-16z"/>
  <path id="6" class="fil0" d="M1956 640l0 40 -12 0 0 -39c0,-4 0,-7 -2,-10 -1,-2 -4,-3 -7,-3 -3,0 -6,0 -9,2 -3,2 -6,4 -9,7 0,0 0,2 0,3l0 40 -12 0 0 -39c0,-4 -1,-7 -2,-10 -2,-2 -4,-3 -7,-3 -3,0 -6,1 -9,2 -3,2 -7,4 -10,7l0 43 -12 0 0 -61 8 0 3 8c3,-3 6,-5 10,-7 5,-2 8,-3 12,-3 4,0 8,1 10,3 3,2 5,4 7,7 3,-3 6,-5 11,-7 4,-2 8,-3 11,-3 7,0 11,2 15,7 3,4 4,9 4,16z"/>
  <path id="7" class="fil0" d="M1994 629c-6,0 -11,1 -18,4l-3 -10c2,-1 5,-3 10,-4 4,-1 8,-1 11,-1 4,0 8,1 12,3 4,1 7,4 9,7 2,4 3,7 3,11l0 41 -8 0 -2 -5c-2,2 -5,3 -8,5 -3,1 -6,2 -9,2 -7,0 -13,-2 -16,-5 -4,-4 -6,-8 -6,-14 0,-6 2,-11 6,-14 4,-3 10,-5 17,-5l14 0c0,-5 -1,-9 -3,-12 -1,-2 -5,-3 -9,-3zm-3 23c-3,0 -6,1 -8,3 -2,2 -3,5 -3,8 0,2 1,5 3,6 1,2 4,3 7,3 3,0 6,0 9,-2 3,-1 5,-3 7,-6l0 -12 -15 0z"/>
  <path id="8" class="fil0" d="M2046 601c0,2 0,4 -2,5 -1,2 -3,2 -5,2 -2,0 -4,0 -5,-2 -2,-1 -3,-3 -3,-5 0,-2 1,-4 3,-5 1,-2 3,-3 5,-3 2,0 4,1 5,3 2,1 2,3 2,5zm-1 18l0 61 -12 0 0 -61 12 0z"/>
  <polygon id="9" class="fil0" points="2111,619 2088,680 2088,709 2076,709 2076,680 2054,621 2065,617 2082,663 2098,619 "/>
  <path id="10" class="fil0" d="M2143 629c-6,0 -12,1 -18,4l-3 -10c2,-1 5,-3 10,-4 4,-1 8,-1 10,-1 5,0 9,1 13,3 4,1 7,4 9,7 2,4 3,7 3,11l0 41 -8 0 -2 -5c-2,2 -5,3 -8,5 -3,1 -7,2 -10,2 -7,0 -12,-2 -16,-5 -3,-4 -5,-8 -5,-14 0,-6 2,-11 6,-14 4,-3 10,-5 16,-5l15 0c0,-5 -1,-9 -3,-12 -2,-2 -5,-3 -9,-3zm-3 23c-3,0 -6,1 -8,3 -2,2 -3,5 -3,8 0,2 1,5 2,6 2,2 5,3 8,3 3,0 6,0 9,-2 2,-1 5,-3 7,-6l0 -12 -15 0z"/>
  <path id="11" class="fil0" d="M2249 593c3,0 6,1 11,1 4,1 8,3 10,4l-3 9c-4,-1 -7,-2 -10,-3 -2,0 -5,-1 -9,-1 -5,0 -9,2 -14,5 -4,3 -7,7 -10,12 -2,5 -3,11 -3,18 0,6 1,12 3,17 2,5 5,9 9,12 4,3 9,5 14,5 7,0 14,-1 19,-4l5 9c-3,2 -7,3 -11,4 -4,1 -8,1 -12,1 -9,0 -16,-2 -22,-6 -6,-4 -10,-9 -13,-16 -3,-6 -5,-14 -5,-22 0,-8 2,-16 5,-23 3,-7 8,-12 14,-16 6,-4 14,-6 22,-6z"/>
  <path id="12" class="fil0" d="M2307 682c-6,0 -11,-1 -16,-4 -4,-3 -8,-7 -10,-11 -3,-5 -4,-11 -4,-17 0,-7 1,-12 4,-17 2,-5 6,-9 11,-11 4,-3 10,-4 16,-4 6,0 11,1 16,4 4,2 8,6 10,11 3,5 4,11 4,17 0,6 -1,12 -4,17 -2,4 -6,8 -10,11 -5,3 -11,4 -17,4zm19 -32c0,-7 -2,-12 -5,-16 -3,-4 -8,-6 -13,-6 -6,0 -10,2 -13,6 -4,4 -5,9 -6,16 0,6 2,12 5,16 3,4 8,6 13,6 6,0 10,-2 14,-6 3,-5 5,-10 5,-16z"/>
  <polygon id="13" class="fil0" points="2363,592 2363,680 2351,680 2351,593 "/>
  <polygon id="14" class="fil0" points="2392,592 2392,680 2380,680 2380,593 "/>
  <path id="15" class="fil0" d="M2434 618c9,0 16,3 20,9 5,5 7,13 7,22l0 4 -43 0c0,6 2,10 5,14 4,3 9,5 15,5 3,0 6,-1 8,-1 3,-1 6,-3 10,-5l4 9c-7,5 -15,7 -22,7 -11,0 -19,-3 -24,-9 -6,-6 -9,-13 -9,-23 0,-7 1,-12 4,-17 2,-5 5,-9 10,-11 4,-3 9,-4 15,-4zm0 10c-5,0 -8,1 -11,4 -3,3 -5,7 -5,12l31 0c-1,-11 -7,-16 -15,-16z"/>
  <path id="16" class="fil0" d="M2524 686c0,4 -1,8 -3,12 -3,3 -6,6 -10,8 -5,2 -10,3 -16,3 -3,0 -7,0 -11,-1 -4,-2 -8,-3 -11,-5l4 -8c4,1 7,3 10,3 2,1 4,1 8,1 5,0 9,-1 12,-3 3,-3 5,-6 5,-10l0 -8c-2,1 -5,2 -7,3 -2,1 -5,1 -6,1 -7,0 -12,-1 -16,-4 -5,-3 -9,-7 -11,-11 -2,-5 -4,-11 -4,-18 0,-6 2,-11 4,-16 3,-5 6,-9 11,-11 4,-3 10,-4 16,-4 2,0 5,0 8,1 3,1 5,3 8,5l2 -5 7 0 0 67zm-12 -19l0 -34c-2,-2 -4,-3 -6,-4 -2,-1 -5,-1 -7,-1 -6,0 -10,2 -14,6 -3,4 -4,9 -4,15 0,7 1,12 4,17 4,4 8,6 14,6 2,0 5,-1 7,-2 2,0 4,-2 6,-3z"/>
  <path id="17" class="fil0" d="M2565 618c9,0 16,3 20,9 5,5 7,13 7,22l0 4 -43 0c0,6 2,10 6,14 3,3 8,5 14,5 4,0 6,-1 9,-1 2,-1 5,-3 10,-5l4 9c-8,5 -15,7 -23,7 -10,0 -18,-3 -24,-9 -6,-6 -9,-13 -9,-23 0,-7 1,-12 4,-17 2,-5 6,-9 10,-11 4,-3 10,-4 15,-4zm0 10c-5,0 -8,1 -11,4 -3,3 -4,7 -5,12l31 0c-1,-11 -6,-16 -15,-16z"/>
  <path id="18" class="fil0" d="M2659 682c-6,0 -12,-1 -16,-4 -5,-3 -8,-7 -11,-11 -2,-5 -3,-11 -3,-17 0,-7 1,-12 3,-17 3,-5 6,-9 11,-11 5,-3 10,-4 16,-4 6,0 12,1 16,4 5,2 8,6 11,11 2,5 4,11 4,17 0,6 -2,12 -4,17 -3,4 -6,8 -11,11 -5,3 -10,4 -16,4zm18 -32c0,-7 -1,-12 -5,-16 -3,-4 -7,-6 -13,-6 -5,0 -10,2 -13,6 -3,4 -5,9 -5,16 0,6 2,12 5,16 3,4 7,6 13,6 5,0 10,-2 13,-6 3,-5 5,-10 5,-16z"/>
  <path id="19" class="fil0" d="M2705 629l-10 0 0 -9 10 0 0 -8c0,-6 1,-11 5,-14 3,-4 8,-6 14,-6 2,0 4,0 6,1 1,0 3,1 4,2l-3 9c-2,-1 -4,-1 -6,-1 -3,0 -5,1 -6,3 -2,1 -2,4 -2,7l0 7 11 0 4 9 -15 0 0 80 -12 0 0 -80z"/>
  <polygon id="20" class="fil0" points="2827,671 2829,680 2774,680 2774,595 2827,595 2829,604 2786,604 2786,632 2815,632 2817,641 2786,641 2786,671 "/>
  <path id="21" class="fil0" d="M2870 628c-3,0 -6,1 -9,2 -4,2 -7,4 -10,7l0 43 -12 0 0 -61 8 0 2 8c4,-3 7,-5 11,-7 4,-2 9,-3 13,-3 6,0 11,2 14,7 4,4 5,9 5,16l0 40 -12 0 0 -39c0,-4 -1,-8 -2,-10 -2,-2 -4,-3 -8,-3z"/>
  <path id="22" class="fil0" d="M2959 686c0,4 -1,8 -4,12 -2,3 -5,6 -10,8 -4,2 -9,3 -15,3 -3,0 -7,0 -11,-1 -5,-2 -8,-3 -11,-5l4 -8c4,1 7,3 9,3 2,1 5,1 8,1 5,0 10,-1 13,-3 3,-3 5,-6 5,-10l0 -8c-3,1 -5,2 -7,3 -3,1 -5,1 -7,1 -6,0 -11,-1 -16,-4 -4,-3 -8,-7 -10,-11 -3,-5 -4,-11 -4,-18 0,-6 1,-11 4,-16 2,-5 6,-9 10,-11 5,-3 10,-4 16,-4 3,0 5,0 8,1 3,1 6,3 9,5l2 -5 7 0 0 67zm-12 -19l0 -34c-2,-2 -4,-3 -6,-4 -3,-1 -5,-1 -8,-1 -5,0 -10,2 -13,6 -3,4 -5,9 -5,15 0,7 2,12 5,17 3,4 8,6 13,6 3,0 6,-1 8,-2 2,0 4,-2 6,-3z"/>
  <path id="23" class="fil0" d="M2988 601c0,2 0,4 -2,5 -2,2 -3,2 -5,2 -3,0 -4,0 -6,-2 -1,-1 -2,-3 -2,-5 0,-2 1,-4 2,-5 2,-2 3,-3 6,-3 2,0 3,1 5,3 2,1 2,3 2,5zm-1 18l0 61 -12 0 0 -61 12 0z"/>
  <path id="24" class="fil0" d="M3033 628c-3,0 -6,1 -9,2 -3,2 -7,4 -10,7l0 43 -12 0 0 -61 8 0 3 8c3,-3 6,-5 11,-7 4,-2 8,-3 12,-3 6,0 11,2 15,7 3,4 4,9 4,16l0 40 -12 0 0 -39c0,-4 0,-8 -2,-10 -1,-2 -4,-3 -8,-3z"/>
  <path id="25" class="fil0" d="M3095 618c9,0 16,3 20,9 5,5 7,13 7,22l0 4 -43 0c0,6 2,10 6,14 3,3 8,5 14,5 3,0 6,-1 9,-1 2,-1 5,-3 10,-5l3 9c-7,5 -14,7 -22,7 -10,0 -19,-3 -24,-9 -6,-6 -9,-13 -9,-23 0,-7 1,-12 4,-17 2,-5 5,-9 10,-11 4,-3 9,-4 15,-4zm0 10c-5,0 -8,1 -11,4 -3,3 -4,7 -5,12l31 0c-1,-11 -6,-16 -15,-16z"/>
  <path id="26" class="fil0" d="M3159 618c9,0 15,3 20,9 4,5 6,13 6,22l0 4 -43 0c1,6 3,10 6,14 3,3 8,5 15,5 3,0 6,-1 8,-1 2,-1 6,-3 10,-5l4 9c-8,5 -15,7 -22,7 -11,0 -19,-3 -25,-9 -6,-6 -8,-13 -8,-23 0,-7 1,-12 3,-17 2,-5 6,-9 10,-11 5,-3 10,-4 16,-4zm-1 10c-4,0 -8,1 -11,4 -2,3 -4,7 -5,12l32 0c-2,-11 -7,-16 -16,-16z"/>
  <path id="27" class="fil0" d="M3230 629c-3,0 -6,1 -10,3 -4,2 -8,5 -11,8l0 40 -12 0 0 -61 7 0 3 10c3,-2 7,-4 11,-7 3,-2 7,-3 10,-3l2 10z"/>
  <path id="28" class="fil0" d="M3253 601c0,2 -1,4 -2,5 -2,2 -4,2 -6,2 -2,0 -4,0 -5,-2 -2,-1 -2,-3 -2,-5 0,-2 0,-4 2,-5 1,-2 3,-3 5,-3 2,0 4,1 6,3 1,1 2,3 2,5zm-2 18l0 61 -12 0 0 -61 12 0z"/>
  <path id="29" class="fil0" d="M3298 628c-3,0 -6,1 -9,2 -4,2 -7,4 -10,7l0 43 -12 0 0 -61 8 0 2 8c3,-3 7,-5 11,-7 4,-2 8,-3 12,-3 7,0 12,2 15,7 3,4 5,9 5,16l0 40 -12 0 0 -39c0,-4 -1,-8 -2,-10 -2,-2 -4,-3 -8,-3z"/>
  <path id="30" class="fil0" d="M3387 686c0,4 -1,8 -4,12 -2,3 -5,6 -10,8 -4,2 -9,3 -16,3 -2,0 -6,0 -11,-1 -4,-2 -8,-3 -10,-5l3 -8c5,1 8,3 10,3 2,1 5,1 8,1 5,0 9,-1 13,-3 3,-3 4,-6 4,-10l0 -8c-2,1 -4,2 -7,3 -2,1 -4,1 -6,1 -6,0 -11,-1 -16,-4 -5,-3 -8,-7 -11,-11 -2,-5 -3,-11 -3,-18 0,-6 1,-11 4,-16 2,-5 6,-9 10,-11 5,-3 10,-4 16,-4 2,0 5,0 8,1 3,1 6,3 8,5l3 -5 7 0 0 67zm-13 -19l0 -34c-1,-2 -4,-3 -6,-4 -2,-1 -4,-1 -7,-1 -5,0 -10,2 -13,6 -3,4 -5,9 -5,15 0,7 2,12 5,17 3,4 7,6 13,6 3,0 5,-1 7,-2 3,0 5,-2 6,-3z"/>
  <polygon class="fil0" points="1539,747 1550,745 1577,815 1603,746 1615,746 1582,831 1571,831 "/>
  <path id="1" class="fil0" d="M1637 752c0,2 -1,4 -2,5 -2,2 -4,2 -6,2 -2,0 -4,0 -5,-2 -1,-1 -2,-3 -2,-5 0,-2 1,-4 2,-6 1,-1 3,-2 5,-2 2,0 4,1 6,2 1,2 2,4 2,6zm-1 18l0 61 -13 0 0 -61 13 0z"/>
  <path id="2" class="fil0" d="M1703 831l-7 0 -3 -4c-2,2 -5,3 -8,4 -3,1 -6,2 -8,2 -6,0 -11,-1 -16,-4 -4,-3 -8,-7 -10,-11 -3,-5 -4,-11 -4,-18 0,-6 1,-11 4,-16 2,-5 6,-9 10,-11 5,-3 10,-4 16,-4 2,0 4,0 7,1 2,0 4,1 7,3l0 -29 12 -1 0 88zm-26 -8c3,0 5,-1 8,-2 2,0 4,-2 6,-4l0 -33c-2,-2 -4,-3 -7,-4 -2,-1 -4,-1 -7,-1 -5,0 -10,2 -13,6 -3,4 -5,9 -5,15 0,7 2,12 5,16 3,5 8,7 13,7z"/>
  <polygon id="3" class="fil0" points="1770,770 1747,831 1747,860 1735,860 1735,831 1713,772 1724,768 1741,814 1757,770 "/>
  <path id="4" class="fil0" d="M1802 780c-6,0 -12,1 -18,4l-3 -10c2,-1 5,-3 9,-4 5,-1 9,-1 11,-1 5,0 9,1 13,3 4,1 7,4 9,7 2,4 3,7 3,11l0 41 -8 0 -2 -5c-2,2 -5,3 -8,5 -3,1 -7,2 -10,2 -7,0 -12,-2 -16,-5 -3,-4 -5,-9 -5,-14 0,-6 2,-11 6,-14 4,-3 10,-5 16,-5l15 0c0,-5 -1,-9 -3,-12 -2,-2 -5,-3 -9,-3zm-3 23c-3,0 -6,1 -8,3 -2,2 -3,5 -3,8 0,2 1,5 2,6 2,2 5,3 8,3 3,0 6,0 9,-2 2,-1 5,-3 7,-6l0 -12 -15 0z"/>
  <polygon id="5" class="fil0" points="1891,770 1868,831 1857,831 1834,772 1846,768 1863,814 1879,770 "/>
  <path id="6" class="fil0" d="M1914 752c0,2 -1,4 -3,5 -1,2 -3,2 -5,2 -2,0 -4,0 -5,-2 -2,-1 -2,-3 -2,-5 0,-2 0,-4 2,-6 1,-1 3,-2 5,-2 2,0 4,1 5,2 2,2 3,4 3,6zm-2 18l0 61 -12 0 0 -61 12 0z"/>
  <path id="7" class="fil0" d="M1982 791l0 40 -12 0 0 -39c0,-4 -1,-8 -2,-10 -2,-2 -4,-3 -8,-3 -3,0 -6,1 -9,2 -4,2 -7,4 -10,7l0 43 -12 0 0 -87 12 -1 0 34c3,-3 6,-5 10,-6 4,-2 8,-3 11,-3 7,0 12,2 15,6 3,5 5,10 5,17z"/>
  <path id="8" class="fil0" d="M2020 780c-6,0 -12,1 -18,4l-3 -10c2,-1 5,-3 10,-4 4,-1 8,-1 10,-1 5,0 9,1 13,3 4,1 7,4 9,7 2,4 3,7 3,11l0 41 -8 0 -2 -5c-2,2 -5,3 -8,5 -3,1 -7,2 -10,2 -7,0 -12,-2 -16,-5 -3,-4 -5,-9 -5,-14 0,-6 2,-11 6,-14 4,-3 10,-5 16,-5l15 0c0,-5 -1,-9 -3,-12 -2,-2 -5,-3 -9,-3zm-3 23c-3,0 -6,1 -8,3 -2,2 -3,5 -3,8 0,2 1,5 2,6 2,2 5,3 8,3 3,0 6,0 9,-2 2,-1 5,-3 7,-6l0 -12 -15 0z"/>
  <path id="9" class="fil0" d="M2092 780c-3,0 -6,1 -10,3 -4,2 -8,5 -11,8l0 40 -12 0 0 -61 6 0 4 10c3,-2 7,-4 10,-7 4,-2 8,-3 11,-3l2 10z"/>
  <path id="10" class="fil0" d="M2098 824c0,-2 1,-4 2,-6 2,-1 3,-2 5,-2 3,0 4,1 6,3 1,1 2,4 2,6 0,5 -1,9 -4,13 -3,4 -6,8 -10,10l-3 -6c3,-2 4,-3 6,-5 1,-2 2,-3 2,-6 -2,0 -3,-1 -4,-2 -2,-2 -2,-3 -2,-5z"/>
  <polygon id="11" class="fil0" points="2219,772 2197,803 2193,804 2169,771 2169,831 2157,831 2157,746 2165,746 2195,788 2223,746 2231,746 2231,831 2219,831 "/>
  <path id="12" class="fil0" d="M2271 823c3,0 6,-1 10,-3 3,-1 6,-4 9,-7l0 -43 13 0 0 61 -9 0 -2 -8c-3,3 -7,6 -11,7 -4,2 -8,3 -12,3 -7,0 -12,-2 -15,-6 -3,-4 -5,-9 -5,-16l0 -41 12 0 0 39c0,5 1,8 2,11 2,2 4,3 8,3z"/>
  <path id="13" class="fil0" d="M2409 791l0 40 -12 0 0 -39c0,-4 -1,-8 -2,-10 -2,-2 -4,-3 -8,-3 -2,0 -5,0 -8,2 -3,2 -6,4 -9,7 0,0 0,1 0,3l0 40 -12 0 0 -39c0,-4 -1,-8 -2,-10 -2,-2 -4,-3 -8,-3 -2,0 -5,1 -9,2 -3,2 -6,4 -9,7l0 43 -12 0 0 -61 8 0 2 8c3,-3 7,-5 11,-7 4,-2 8,-3 12,-3 4,0 7,1 10,3 3,2 5,4 6,7 3,-3 7,-5 11,-7 4,-2 8,-3 12,-3 6,0 11,2 14,7 3,4 5,9 5,16z"/>
  <path id="14" class="fil0" d="M2480 801c0,7 -2,12 -4,17 -3,5 -6,8 -11,11 -4,3 -10,4 -16,4 -2,0 -4,0 -7,-1 -3,-1 -6,-3 -8,-4l-2 3 -7 0 0 -87 12 -1 0 29c2,-1 4,-2 7,-2 2,-1 4,-1 5,-1 7,0 12,1 17,4 4,2 8,6 10,11 2,5 4,11 4,17zm-13 0c0,-6 -1,-12 -4,-16 -3,-4 -8,-6 -14,-6 -5,0 -9,1 -12,4l0 35c3,3 8,5 12,5 6,0 10,-2 14,-6 3,-4 4,-9 4,-16z"/>
  <path id="15" class="fil0" d="M2514 780c-6,0 -11,1 -18,4l-3 -10c2,-1 6,-3 10,-4 4,-1 8,-1 11,-1 4,0 9,1 12,3 4,1 7,4 9,7 2,4 3,7 3,11l0 41 -8 0 -2 -5c-2,2 -5,3 -8,5 -3,1 -6,2 -9,2 -7,0 -13,-2 -16,-5 -4,-4 -6,-9 -6,-14 0,-6 2,-11 6,-14 5,-3 10,-5 17,-5l14 0c0,-5 -1,-9 -2,-12 -2,-2 -5,-3 -10,-3zm-2 23c-4,0 -7,1 -9,3 -2,2 -3,5 -3,8 0,2 1,5 3,6 2,2 4,3 7,3 3,0 6,0 9,-2 3,-1 5,-3 7,-6l0 -12 -14 0z"/>
  <path id="16" class="fil0" d="M2567 752c0,2 -1,4 -3,5 -1,2 -3,2 -5,2 -2,0 -4,0 -5,-2 -2,-1 -2,-3 -2,-5 0,-2 0,-4 2,-6 1,-1 3,-2 5,-2 2,0 4,1 5,2 2,2 3,4 3,6zm-2 18l0 61 -12 0 0 -61 12 0z"/>
  <path id="17" class="fil0" d="M2653 813l14 0 -2 10 -12 0 0 17 -12 0 0 -17 -36 0 -2 -10 42 -53 8 0 0 53zm-12 0l0 -33 -25 33 25 0z"/>
  <path id="18" class="fil0" d="M2707 833c-7,0 -13,-2 -18,-5 -5,-3 -9,-8 -12,-13 -3,-6 -4,-13 -4,-20 0,-7 1,-13 4,-19 3,-5 7,-10 12,-13 5,-3 11,-4 18,-4 6,0 12,1 17,4 5,3 9,8 12,13 3,6 4,12 4,19 0,7 -1,14 -4,20 -3,5 -7,10 -12,13 -5,3 -11,5 -17,5zm0 -64c-5,0 -8,1 -12,3 -3,2 -6,5 -8,9 -2,4 -3,9 -3,14 0,5 1,10 3,14 2,4 5,8 8,10 4,2 7,4 12,4 4,0 8,-2 11,-4 4,-2 6,-5 8,-9 2,-5 3,-9 3,-14 0,-6 -1,-10 -3,-14 -2,-4 -4,-7 -8,-10 -3,-2 -7,-3 -11,-3z"/>
  <path id="19" class="fil0" d="M2782 833c-7,0 -13,-2 -18,-5 -5,-3 -9,-8 -12,-13 -3,-6 -4,-13 -4,-20 0,-7 1,-13 4,-19 3,-5 7,-10 12,-13 5,-3 11,-4 18,-4 6,0 12,1 17,4 5,3 9,8 12,13 3,6 4,12 4,19 0,7 -1,14 -4,20 -3,5 -7,10 -12,13 -5,3 -11,5 -17,5zm0 -64c-5,0 -8,1 -12,3 -3,2 -6,5 -8,9 -2,4 -2,9 -2,14 0,5 0,10 2,14 2,4 5,8 8,10 4,2 7,4 12,4 4,0 8,-2 11,-4 4,-2 6,-5 8,-9 2,-5 3,-9 3,-14 0,-6 -1,-10 -3,-14 -2,-4 -4,-7 -8,-10 -3,-2 -7,-3 -11,-3z"/>
  <path id="20" class="fil0" d="M2886 833c-7,0 -13,-2 -18,-5 -5,-3 -9,-8 -12,-13 -3,-6 -4,-13 -4,-20 0,-7 1,-13 4,-19 3,-5 7,-10 12,-13 5,-3 11,-4 18,-4 6,0 12,1 17,4 5,3 9,8 12,13 3,6 4,12 4,19 0,7 -1,14 -4,20 -3,5 -7,10 -12,13 -5,3 -11,5 -17,5zm0 -64c-5,0 -8,1 -12,3 -3,2 -6,5 -8,9 -2,4 -2,9 -2,14 0,5 0,10 2,14 2,4 5,8 8,10 4,2 7,4 12,4 4,0 8,-2 11,-4 4,-2 6,-5 8,-9 2,-5 3,-9 3,-14 0,-6 -1,-10 -3,-14 -2,-4 -4,-7 -8,-10 -3,-2 -7,-3 -11,-3z"/>
  <polygon id="21" class="fil0" points="2977,765 2951,840 2939,837 2964,770 2926,770 2924,760 2974,760 "/>
  <polygon id="22" class="fil0" points="3034,765 3007,840 2996,837 3020,770 2983,770 2981,760 3030,760 "/>
  <path id="23" class="fil0" d="M3056 824c0,2 -1,4 -3,5 -1,2 -3,2 -5,2 -2,0 -4,0 -5,-2 -2,-1 -3,-3 -3,-5 0,-2 1,-4 3,-6 1,-1 3,-2 5,-2 2,0 4,1 5,2 2,2 3,4 3,6z"/>
  <path class="fil0" d="M1558 1028c-3,0 -7,-1 -11,-2 -4,-1 -7,-2 -9,-4l3 -8c6,3 11,4 17,4 4,0 7,-1 9,-2 3,-1 4,-3 4,-6 0,-4 -5,-7 -14,-10 -13,-5 -20,-11 -20,-19 0,-5 2,-9 7,-13 4,-3 9,-4 16,-4 3,0 7,0 11,1 3,1 7,3 9,4l-4 9c-3,-2 -5,-3 -8,-3 -2,-1 -5,-2 -8,-2 -3,0 -6,1 -8,3 -2,1 -3,3 -3,5 0,2 1,3 4,5 2,1 5,3 9,4 14,5 20,11 20,20 0,5 -2,10 -6,13 -4,3 -10,5 -18,5z"/>
  <path id="1" class="fil0" d="M1609 966l11 0 4 9 -15 0 0 32c0,4 1,6 2,8 1,2 4,3 7,3 1,0 3,0 5,-1l4 9c-2,0 -3,1 -5,2 -2,0 -4,0 -6,0 -6,0 -11,-1 -14,-5 -3,-3 -5,-8 -5,-14l0 -34 -9 0 0 -9 9 0 0 -15 12 -3 0 18z"/>
  <path id="2" class="fil0" d="M1658 1018c3,0 6,-1 10,-3 3,-2 6,-4 10,-7l0 -43 12 0 0 61 -9 0 -2 -8c-3,3 -7,6 -11,7 -4,2 -8,3 -12,3 -7,0 -12,-2 -15,-6 -3,-4 -5,-10 -5,-16l0 -41 12 0 0 39c0,5 1,8 2,11 2,2 5,3 8,3z"/>
  <path id="3" class="fil0" d="M1757 1026l-7 0 -3 -4c-2,2 -5,3 -8,4 -3,1 -6,2 -8,2 -6,0 -11,-1 -16,-4 -4,-3 -8,-7 -10,-12 -3,-4 -4,-10 -4,-17 0,-6 1,-11 4,-16 2,-5 6,-9 10,-11 5,-3 10,-4 16,-4 2,0 4,0 7,1 2,0 4,1 7,3l0 -29 12 -1 0 88zm-26 -8c3,0 5,-1 8,-2 2,-1 4,-2 6,-4l0 -33c-2,-2 -4,-3 -7,-4 -2,-1 -4,-1 -7,-1 -5,0 -10,2 -13,6 -3,4 -5,9 -5,15 0,7 2,12 5,16 3,5 8,7 13,7z"/>
  <path id="4" class="fil0" d="M1799 964c8,0 15,3 19,9 5,5 7,13 7,22l0 3 -43 0c0,6 2,11 6,15 3,3 8,5 14,5 4,0 6,-1 9,-1 2,-1 5,-3 10,-5l4 9c-8,5 -15,7 -23,7 -10,0 -18,-3 -24,-9 -6,-6 -9,-13 -9,-23 0,-7 2,-12 4,-17 2,-5 6,-9 10,-11 4,-3 10,-4 16,-4zm-1 10c-4,0 -8,1 -11,4 -3,3 -4,7 -5,12l31 0c-1,-11 -6,-16 -15,-16z"/>
  <path id="5" class="fil0" d="M1868 974c-3,0 -6,0 -10,2 -3,2 -6,4 -9,7l0 43 -13 0 0 -61 9 0 2 8c3,-3 7,-5 11,-7 4,-2 8,-3 12,-3 7,0 12,2 15,6 3,5 5,10 5,17l0 40 -12 0 0 -39c0,-4 -1,-8 -2,-10 -2,-2 -4,-3 -8,-3z"/>
  <path id="6" class="fil0" d="M1920 966l11 0 3 9 -14 0 0 32c0,4 0,6 2,8 1,2 3,3 6,3 2,0 4,0 6,-1l3 9c-1,0 -3,1 -4,2 -2,0 -4,0 -6,0 -6,0 -11,-1 -14,-5 -4,-3 -5,-8 -5,-14l0 -34 -9 0 0 -9 9 0 0 -15 12 -3 0 18z"/>
  <path id="7" class="fil0" d="M1964 1028c-3,0 -6,-1 -10,-2 -4,-1 -8,-2 -10,-4l4 -8c6,3 11,4 16,4 4,0 7,-1 10,-2 2,-1 3,-3 3,-6 0,-4 -4,-7 -13,-10 -13,-5 -20,-11 -20,-19 0,-5 2,-9 6,-13 4,-3 10,-4 17,-4 3,0 6,0 10,1 4,1 7,3 10,4l-4 9c-3,-2 -6,-3 -8,-3 -3,-1 -5,-2 -8,-2 -3,0 -6,1 -8,3 -2,1 -3,3 -3,5 0,2 1,3 3,5 2,1 5,3 9,4 14,5 21,11 21,20 0,5 -2,10 -6,13 -5,3 -11,5 -19,5z"/>
  <path id="8" class="fil0" d="M2027 1018c3,0 6,-1 9,-1 2,-1 5,-2 8,-4l4 9c-3,2 -6,3 -10,4 -5,1 -8,2 -11,2 -6,0 -12,-1 -16,-4 -5,-3 -8,-7 -11,-11 -2,-5 -3,-11 -3,-17 0,-7 1,-12 3,-17 3,-5 6,-9 11,-11 5,-3 10,-4 16,-4 3,0 7,0 11,1 4,1 7,3 10,5l-4 8c-3,-1 -6,-2 -8,-3 -3,-1 -6,-1 -9,-1 -5,0 -10,2 -13,6 -3,4 -5,9 -5,16 0,6 1,11 5,15 3,5 7,7 13,7z"/>
  <path id="9" class="fil0" d="M2085 1028c-6,0 -11,-1 -16,-4 -4,-3 -8,-7 -10,-11 -3,-5 -4,-11 -4,-17 0,-7 1,-12 4,-17 2,-5 6,-9 10,-11 5,-3 10,-4 17,-4 6,0 11,1 16,4 4,2 8,6 10,11 3,5 4,10 4,17 0,6 -1,12 -4,17 -2,4 -6,8 -11,11 -4,3 -10,4 -16,4zm19 -32c0,-7 -2,-12 -5,-16 -3,-4 -8,-6 -13,-6 -6,0 -10,2 -14,6 -3,4 -5,9 -5,16 0,6 2,11 5,15 3,5 8,7 13,7 6,0 10,-2 14,-7 3,-4 5,-9 5,-15z"/>
  <path id="10" class="fil0" d="M2149 1018c3,0 6,-1 9,-3 4,-2 7,-4 10,-7l0 -43 12 0 0 61 -8 0 -2 -8c-4,3 -7,6 -11,7 -5,2 -9,3 -13,3 -6,0 -11,-2 -14,-6 -4,-4 -5,-10 -5,-16l0 -41 12 0 0 39c0,5 1,8 2,11 1,2 4,3 8,3z"/>
  <path id="11" class="fil0" d="M2227 974c-3,0 -6,0 -10,2 -3,2 -6,4 -10,7l0 43 -12 0 0 -61 9 0 2 8c3,-3 7,-5 11,-7 4,-2 8,-3 12,-3 7,0 12,2 15,6 3,5 5,10 5,17l0 40 -12 0 0 -39c0,-4 -1,-8 -3,-10 -1,-2 -4,-3 -7,-3z"/>
  <path id="12" class="fil0" d="M2290 1018c3,0 6,-1 9,-1 2,-1 5,-2 8,-4l4 9c-3,2 -6,3 -11,4 -4,1 -7,2 -10,2 -6,0 -12,-1 -16,-4 -5,-3 -8,-7 -11,-11 -2,-5 -3,-11 -3,-17 0,-7 1,-12 3,-17 3,-5 6,-9 11,-11 5,-3 10,-4 16,-4 3,0 7,0 11,1 4,1 7,3 10,5l-4 8c-3,-1 -6,-2 -8,-3 -3,-1 -6,-1 -9,-1 -5,0 -10,2 -13,6 -3,4 -5,9 -5,16 0,6 1,11 5,15 3,5 7,7 13,7z"/>
  <path id="13" class="fil0" d="M2335 947c0,2 -1,4 -2,5 -2,2 -3,2 -5,2 -3,0 -4,0 -6,-2 -1,-1 -2,-3 -2,-5 0,-2 1,-4 2,-6 2,-1 3,-2 6,-2 2,0 3,1 5,2 1,2 2,4 2,6zm-1 18l0 61 -12 0 0 -61 12 0z"/>
  <polygon id="14" class="fil0" points="2362,937 2362,1026 2350,1026 2350,939 "/>
  <path id="15" class="fil0" d="M2390 1019c0,2 -1,4 -2,5 -2,2 -3,2 -5,2 -3,0 -4,0 -6,-2 -1,-1 -2,-3 -2,-5 0,-2 1,-4 2,-6 2,-1 3,-2 6,-2 2,0 3,1 5,2 1,2 2,4 2,6z"/>
  <path id="16" class="fil0" d="M2427 964c8,0 15,3 20,9 4,5 6,13 6,22l0 3 -43 0c1,6 2,11 6,15 3,3 8,5 15,5 3,0 6,-1 8,-1 2,-1 6,-3 10,-5l4 9c-8,5 -15,7 -22,7 -11,0 -19,-3 -25,-9 -6,-6 -9,-13 -9,-23 0,-7 2,-12 4,-17 2,-5 6,-9 10,-11 5,-3 10,-4 16,-4zm-1 10c-4,0 -8,1 -11,4 -2,3 -4,7 -5,12l32 0c-2,-11 -7,-16 -16,-16z"/>
  <path id="17" class="fil0" d="M2496 974c-3,0 -6,0 -9,2 -4,2 -7,4 -10,7l0 43 -12 0 0 -61 8 0 2 8c3,-3 7,-5 11,-7 4,-2 8,-3 12,-3 7,0 12,2 15,6 3,5 5,10 5,17l0 40 -12 0 0 -39c0,-4 -1,-8 -2,-10 -2,-2 -4,-3 -8,-3z"/>
  <path id="18" class="fil0" d="M2585 1032c0,4 -1,8 -4,12 -2,3 -5,6 -10,8 -4,2 -9,3 -15,3 -3,0 -7,0 -12,-2 -4,-1 -7,-2 -10,-4l4 -9c4,2 7,4 9,4 2,1 5,1 8,1 5,0 10,-1 13,-3 3,-3 5,-6 5,-10l0 -8c-3,1 -5,2 -8,3 -2,1 -4,1 -6,1 -6,0 -11,-1 -16,-4 -5,-3 -8,-7 -10,-12 -3,-4 -4,-10 -4,-17 0,-6 1,-11 4,-16 2,-5 6,-9 10,-11 5,-3 10,-4 16,-4 3,0 5,0 8,1 3,1 6,3 8,5l3 -5 7 0 0 67zm-12 -20l0 -33c-2,-2 -4,-3 -7,-4 -2,-1 -4,-1 -7,-1 -5,0 -10,2 -13,6 -3,4 -5,9 -5,15 0,7 2,12 5,16 3,5 8,7 13,7 3,0 5,-1 8,-2 2,-1 4,-2 6,-4z"/>
  <path id="19" class="fil0" d="M2653 1032c0,4 -2,8 -4,12 -2,3 -5,6 -10,8 -4,2 -9,3 -16,3 -2,0 -6,0 -11,-2 -4,-1 -8,-2 -10,-4l3 -9c5,2 8,4 10,4 2,1 5,1 8,1 5,0 9,-1 13,-3 3,-3 4,-6 4,-10l0 -8c-2,1 -4,2 -7,3 -2,1 -4,1 -6,1 -6,0 -11,-1 -16,-4 -5,-3 -8,-7 -11,-12 -2,-4 -3,-10 -3,-17 0,-6 1,-11 4,-16 2,-5 6,-9 10,-11 5,-3 10,-4 16,-4 2,0 5,0 8,1 3,1 6,3 8,5l3 -5 7 0 0 67zm-13 -20l0 -33c-1,-2 -4,-3 -6,-4 -2,-1 -4,-1 -7,-1 -5,0 -10,2 -13,6 -3,4 -5,9 -5,15 0,7 2,12 5,16 3,5 7,7 13,7 3,0 5,-1 7,-2 3,-1 5,-2 6,-4z"/>
  <path id="20" class="fil0" d="M2726 973l4 5 -3 25c0,2 0,4 1,5 1,1 3,1 4,1 3,0 6,-2 8,-6 2,-3 3,-8 3,-14 0,-6 -1,-11 -4,-15 -2,-4 -6,-7 -10,-10 -4,-2 -10,-3 -15,-3 -7,0 -13,1 -19,4 -6,3 -10,8 -14,14 -3,6 -5,12 -5,20 0,6 1,11 4,16 3,4 7,8 11,10 5,3 10,4 16,4 3,0 7,0 11,-1 3,-1 7,-2 10,-3l3 9c-7,3 -15,5 -25,5 -7,0 -14,-2 -20,-5 -7,-3 -12,-8 -15,-14 -4,-6 -6,-13 -6,-21 0,-9 2,-17 6,-24 4,-7 10,-13 17,-18 7,-4 16,-6 26,-6 7,0 14,2 20,5 6,3 11,7 14,13 4,6 5,12 5,19 0,10 -2,17 -6,23 -4,5 -9,7 -16,7 -4,0 -8,-1 -10,-3 -4,2 -8,3 -12,3 -7,0 -12,-1 -15,-5 -4,-3 -6,-8 -6,-14 0,-5 1,-10 4,-13 3,-4 6,-7 11,-9 4,-3 9,-4 14,-4l9 0zm-27 26c0,3 1,5 3,7 1,2 4,3 7,3 2,0 4,-1 5,-2 2,-1 2,-2 3,-4l2 -21 -2 0c-5,0 -9,1 -13,4 -3,3 -5,8 -5,13z"/>
  <path id="21" class="fil0" d="M2781 1028c-3,0 -6,-1 -10,-2 -4,-1 -7,-2 -10,-4l4 -8c6,3 11,4 16,4 4,0 8,-1 10,-2 2,-1 4,-3 4,-6 0,-4 -5,-7 -14,-10 -13,-5 -20,-11 -20,-19 0,-5 2,-9 6,-13 4,-3 10,-4 17,-4 3,0 6,0 10,1 4,1 7,3 10,4l-4 9c-3,-2 -6,-3 -8,-3 -2,-1 -5,-2 -8,-2 -3,0 -6,1 -8,3 -2,1 -3,3 -3,5 0,2 1,3 3,5 2,1 6,3 10,4 13,5 20,11 20,20 0,5 -2,10 -6,13 -4,3 -11,5 -19,5z"/>
  <path id="22" class="fil0" d="M2844 1028c-6,0 -12,-1 -16,-4 -5,-3 -8,-7 -11,-11 -2,-5 -3,-11 -3,-17 0,-7 1,-12 4,-17 2,-5 6,-9 10,-11 5,-3 10,-4 16,-4 7,0 12,1 16,4 5,2 9,6 11,11 2,5 4,10 4,17 0,6 -2,12 -4,17 -3,4 -6,8 -11,11 -4,3 -10,4 -16,4zm18 -32c0,-7 -1,-12 -4,-16 -4,-4 -8,-6 -14,-6 -5,0 -10,2 -13,6 -3,4 -5,9 -5,16 0,6 2,11 5,15 3,5 7,7 13,7 6,0 10,-2 13,-7 4,-4 5,-9 5,-15z"/>
  <path id="23" class="fil0" d="M2977 986l0 40 -12 0 0 -39c0,-4 0,-8 -2,-10 -1,-2 -4,-3 -7,-3 -3,0 -5,0 -9,2 -3,2 -6,4 -9,7 0,0 0,1 0,3l0 40 -12 0 0 -39c0,-4 -1,-8 -2,-10 -2,-2 -4,-3 -7,-3 -3,0 -6,0 -9,2 -3,2 -7,4 -10,7l0 43 -12 0 0 -61 8 0 3 8c3,-3 6,-5 10,-7 5,-2 8,-3 12,-3 4,0 8,1 10,3 3,2 5,4 7,7 3,-3 7,-5 11,-7 4,-2 8,-3 11,-3 7,0 11,2 15,6 3,5 4,10 4,17z"/>
  <path id="24" class="fil0" d="M3015 974c-6,0 -11,2 -18,5l-3 -10c2,-1 5,-3 10,-4 4,-1 8,-1 11,-1 4,0 9,1 12,2 4,2 7,5 9,8 2,3 3,7 3,11l0 41 -8 0 -2 -6c-2,2 -5,4 -8,6 -3,1 -6,2 -9,2 -7,0 -13,-2 -16,-5 -4,-4 -6,-9 -6,-14 0,-6 2,-11 6,-14 4,-4 10,-5 17,-5l14 0c0,-5 -1,-9 -3,-12 -1,-2 -5,-4 -9,-4zm-3 24c-3,0 -6,1 -8,3 -2,2 -3,5 -3,8 0,2 1,5 3,6 2,2 4,3 7,3 3,0 6,-1 9,-2 3,-1 5,-3 7,-6l0 -12 -15 0z"/>
  <path id="25" class="fil0" d="M3068 947c0,2 -1,4 -3,5 -1,2 -3,2 -5,2 -2,0 -4,0 -5,-2 -2,-1 -3,-3 -3,-5 0,-2 1,-4 3,-6 1,-1 3,-2 5,-2 2,0 4,1 5,2 2,2 3,4 3,6zm-2 18l0 61 -12 0 0 -61 12 0z"/>
  <polygon id="26" class="fil0" points="3132,965 3109,1026 3109,1055 3097,1055 3097,1026 3075,967 3087,963 3103,1009 3119,965 "/>
  <path id="27" class="fil0" d="M3164 974c-6,0 -12,2 -18,5l-3 -10c2,-1 5,-3 10,-4 4,-1 8,-1 10,-1 5,0 9,1 13,2 4,2 7,5 9,8 2,3 3,7 3,11l0 41 -8 0 -2 -6c-2,2 -5,4 -8,6 -3,1 -7,2 -10,2 -7,0 -12,-2 -16,-5 -3,-4 -5,-9 -5,-14 0,-6 2,-11 6,-14 4,-4 10,-5 16,-5l15 0c0,-5 -1,-9 -3,-12 -2,-2 -5,-4 -9,-4zm-3 24c-3,0 -6,1 -8,3 -2,2 -3,5 -3,8 0,2 1,5 3,6 1,2 4,3 7,3 3,0 6,-1 9,-2 2,-1 5,-3 7,-6l0 -12 -15 0z"/>
  <path id="28" class="fil0" d="M3214 1019c0,2 -1,4 -2,5 -2,2 -3,2 -5,2 -3,0 -4,0 -6,-2 -1,-1 -2,-3 -2,-5 0,-2 1,-4 2,-6 2,-1 3,-2 6,-2 2,0 3,1 5,2 1,2 2,4 2,6z"/>
  <path id="29" class="fil0" d="M3251 964c9,0 15,3 20,9 4,5 6,13 6,22l0 3 -43 0c1,6 3,11 6,15 3,3 8,5 15,5 3,0 6,-1 8,-1 2,-1 6,-3 10,-5l4 9c-8,5 -15,7 -22,7 -11,0 -19,-3 -25,-9 -6,-6 -8,-13 -8,-23 0,-7 1,-12 3,-17 2,-5 6,-9 10,-11 5,-3 10,-4 16,-4zm-1 10c-4,0 -8,1 -11,4 -2,3 -4,7 -5,12l32 0c-2,-11 -7,-16 -16,-16z"/>
  <path id="30" class="fil0" d="M3341 1026l-7 0 -3 -4c-2,2 -5,3 -8,4 -3,1 -6,2 -8,2 -6,0 -11,-1 -16,-4 -4,-3 -8,-7 -10,-12 -3,-4 -4,-10 -4,-17 0,-6 1,-11 4,-16 2,-5 6,-9 10,-11 5,-3 10,-4 16,-4 2,0 4,0 7,1 2,0 4,1 7,3l0 -29 12 -1 0 88zm-26 -8c3,0 5,-1 8,-2 2,-1 4,-2 6,-4l0 -33c-2,-2 -4,-3 -7,-4 -2,-1 -4,-1 -7,-1 -5,0 -10,2 -13,6 -3,4 -5,9 -5,15 0,7 2,12 5,16 3,5 8,7 13,7z"/>
  <path id="31" class="fil0" d="M3379 1018c3,0 6,-1 9,-3 3,-2 7,-4 10,-7l0 -43 12 0 0 61 -8 0 -2 -8c-4,3 -7,6 -12,7 -4,2 -8,3 -12,3 -6,0 -11,-2 -15,-6 -3,-4 -4,-10 -4,-16l0 -41 12 0 0 39c0,5 0,8 2,11 1,2 4,3 8,3z"/>
  <path class="fil0" d="M1554 1198l0 32 -12 0 0 -86 24 0c10,0 18,2 24,7 5,4 8,11 8,20 0,6 -1,11 -4,15 -3,4 -7,7 -12,9 -5,2 -11,3 -17,3l-11 0zm32 -27c0,-6 -2,-10 -5,-13 -4,-3 -8,-4 -15,-4l-12 0 0 34 11 0c6,0 11,-1 15,-4 4,-3 6,-7 6,-13z"/>
  <path id="1" class="fil0" d="M1631 1221c3,0 6,-1 10,-2 3,-2 6,-5 10,-7l0 -43 12 0 0 61 -9 0 -2 -9c-3,3 -7,6 -11,8 -4,2 -8,3 -12,3 -7,0 -12,-3 -15,-7 -3,-4 -5,-9 -5,-16l0 -40 12 0 0 39c0,4 1,7 3,10 1,2 4,3 7,3z"/>
  <path id="2" class="fil0" d="M1734 1199c0,7 -1,12 -4,17 -2,5 -6,9 -10,11 -5,3 -10,4 -16,4 -3,0 -5,0 -8,-1 -3,-1 -5,-2 -8,-4l-2 4 -7 0 0 -88 12 -1 0 30c2,-1 5,-2 7,-3 2,-1 4,-1 6,-1 6,0 11,1 16,4 4,3 8,6 10,11 3,5 4,11 4,17zm-12 1c0,-7 -2,-13 -5,-17 -3,-4 -8,-6 -13,-6 -5,0 -9,2 -13,5l0 35c4,2 8,4 13,4 5,0 10,-2 13,-6 3,-4 5,-9 5,-15z"/>
  <polygon id="3" class="fil0" points="1759,1141 1759,1230 1747,1230 1747,1142 "/>
  <path id="4" class="fil0" d="M1789 1150c0,2 -1,4 -3,5 -1,2 -3,3 -5,3 -2,0 -4,-1 -5,-3 -2,-1 -2,-3 -2,-5 0,-2 0,-4 2,-5 1,-2 3,-2 5,-2 2,0 4,0 5,2 2,1 3,3 3,5zm-2 19l0 61 -12 0 0 -61 12 0z"/>
  <path id="5" class="fil0" d="M1829 1221c3,0 6,0 9,-1 2,-1 5,-2 8,-3l4 8c-3,2 -6,3 -11,5 -4,1 -7,1 -10,1 -6,0 -12,-1 -16,-4 -5,-3 -8,-6 -11,-11 -2,-5 -3,-11 -3,-17 0,-6 1,-12 3,-17 3,-5 6,-8 11,-11 5,-3 10,-4 16,-4 3,0 7,0 11,2 4,1 7,2 10,4l-4 8c-3,-1 -6,-2 -8,-3 -3,0 -6,-1 -9,-1 -5,0 -10,2 -13,6 -3,4 -5,10 -5,16 0,6 1,12 5,16 3,4 7,6 13,6z"/>
  <path id="6" class="fil0" d="M1893 1230l0 -86 25 0c10,0 17,2 23,6 6,5 9,11 9,19 0,6 -1,10 -4,14 -3,4 -6,7 -11,9l22 38 -13 0 -19 -35c-2,0 -5,0 -8,0l-12 0 0 35 -12 0zm45 -60c0,-6 -2,-10 -5,-12 -4,-3 -9,-4 -15,-4l-13 0 0 32 12 0c6,0 11,-2 15,-4 4,-3 6,-7 6,-12z"/>
  <path id="7" class="fil0" d="M1991 1167c9,0 15,3 20,9 4,6 7,13 7,22l0 4 -44 0c1,6 3,10 6,14 3,3 8,5 15,5 3,0 6,0 8,-1 3,-1 6,-2 10,-4l4 8c-7,5 -15,7 -22,7 -11,0 -19,-3 -25,-9 -5,-5 -8,-13 -8,-23 0,-6 1,-12 3,-17 3,-5 6,-8 10,-11 5,-3 10,-4 16,-4zm0 10c-5,0 -9,2 -11,5 -3,2 -5,6 -5,12l31 0c-2,-11 -7,-17 -15,-17z"/>
  <polygon id="8" class="fil0" points="2042,1141 2042,1230 2030,1230 2030,1142 "/>
  <path id="9" class="fil0" d="M2082 1178c-6,0 -12,1 -18,4l-3 -10c2,-1 5,-2 9,-4 5,-1 9,-1 11,-1 5,0 9,1 13,3 4,2 7,4 9,7 2,4 3,7 3,11l0 42 -8 0 -2 -6c-2,2 -5,3 -8,5 -3,1 -7,2 -10,2 -7,0 -12,-2 -16,-5 -3,-4 -5,-8 -5,-14 0,-6 2,-11 6,-14 4,-3 10,-5 16,-5l15 0c0,-5 -1,-9 -3,-11 -2,-3 -5,-4 -9,-4zm-3 23c-3,0 -6,1 -8,3 -2,2 -3,5 -3,8 0,3 1,5 2,7 2,2 5,2 8,2 3,0 6,0 9,-2 2,-1 5,-3 7,-6l0 -12 -15 0z"/>
  <path id="10" class="fil0" d="M2136 1169l11 0 4 9 -15 0 0 33c0,3 0,6 2,7 1,2 3,3 6,3 2,0 4,0 6,-1l3 9c-1,1 -2,1 -4,2 -2,0 -4,1 -6,1 -6,0 -11,-2 -14,-5 -4,-4 -5,-8 -5,-14l0 -35 -9 0 0 -9 9 0 0 -15 12 -3 0 18z"/>
  <path id="11" class="fil0" d="M2177 1150c0,2 -1,4 -2,5 -2,2 -4,3 -6,3 -2,0 -3,-1 -5,-3 -1,-1 -2,-3 -2,-5 0,-2 1,-4 2,-5 2,-2 3,-2 5,-2 2,0 4,0 6,2 1,1 2,3 2,5zm-1 19l0 61 -13 0 0 -61 13 0z"/>
  <path id="12" class="fil0" d="M2217 1231c-6,0 -11,-1 -16,-4 -4,-3 -8,-6 -10,-11 -3,-5 -4,-11 -4,-17 0,-6 1,-12 4,-17 2,-5 6,-8 10,-11 5,-3 10,-4 17,-4 6,0 11,1 16,4 4,3 8,6 10,11 3,5 4,11 4,17 0,6 -1,12 -4,17 -2,5 -6,8 -11,11 -4,3 -10,4 -16,4zm19 -32c0,-6 -2,-12 -5,-16 -3,-4 -8,-6 -13,-6 -6,0 -10,2 -14,6 -3,4 -5,10 -5,16 0,6 2,12 5,16 3,4 8,6 13,6 6,0 10,-2 14,-6 3,-4 5,-10 5,-16z"/>
  <path id="13" class="fil0" d="M2291 1177c-3,0 -6,1 -10,3 -3,1 -6,4 -10,7l0 43 -12 0 0 -61 9 0 2 8c3,-3 7,-6 11,-8 4,-2 8,-2 12,-2 7,0 12,2 15,6 3,4 5,9 5,16l0 41 -12 0 0 -40c0,-4 -1,-7 -3,-10 -1,-2 -4,-3 -7,-3z"/>
  <path id="14" class="fil0" d="M2344 1231c-3,0 -6,0 -10,-1 -4,-1 -8,-3 -10,-4l4 -9c6,3 11,4 16,4 4,0 7,0 10,-2 2,-1 3,-3 3,-5 0,-5 -4,-8 -13,-11 -14,-4 -20,-10 -20,-18 0,-6 2,-10 6,-13 4,-4 10,-5 17,-5 3,0 6,0 10,2 4,1 7,2 10,4l-4 8c-3,-1 -6,-2 -8,-3 -3,-1 -5,-1 -8,-1 -3,0 -6,0 -8,2 -2,1 -3,3 -3,5 0,2 1,4 3,5 2,1 5,3 9,4 14,5 21,12 21,20 0,6 -2,10 -6,13 -5,4 -11,5 -19,5z"/>
  <path id="15" class="fil0" d="M2407 1187c0,-8 1,-16 5,-23 3,-7 8,-12 15,-16 6,-4 13,-6 21,-6 7,0 14,2 21,6 6,4 11,9 14,16 4,6 5,14 5,22 0,9 -1,16 -5,23 -4,7 -8,12 -15,16 -6,4 -13,6 -21,6 -8,0 -14,-2 -21,-5 -6,-4 -11,-9 -14,-16 -4,-7 -5,-14 -5,-23zm41 -35c-6,0 -11,2 -15,5 -4,3 -8,7 -10,12 -3,5 -4,11 -4,18 0,6 1,12 4,18 2,5 6,9 10,12 4,3 9,4 14,4 6,0 10,-2 15,-4 4,-3 7,-8 10,-13 2,-5 3,-11 3,-18 0,-6 -1,-12 -3,-17 -2,-5 -6,-9 -10,-12 -4,-3 -9,-5 -14,-5z"/>
  <path id="16" class="fil0" d="M2505 1178l-10 0 0 -9 10 0 0 -8c0,-6 1,-11 5,-14 3,-4 8,-6 14,-6 2,0 4,1 5,1 2,1 4,1 5,2l-3 9c-2,-1 -4,-1 -6,-1 -3,0 -5,1 -6,3 -2,2 -2,4 -2,8l0 6 11 0 4 9 -15 0 0 80 -12 0 0 -80z"/>
  <path id="17" class="fil0" d="M2545 1178l-9 0 0 -9 9 0 0 -8c0,-6 2,-11 5,-14 4,-4 9,-6 15,-6 1,0 3,1 5,1 2,1 4,1 5,2l-3 9c-3,-1 -5,-1 -6,-1 -3,0 -5,1 -7,3 -1,2 -2,4 -2,8l0 6 12 0 4 9 -16 0 0 80 -12 0 0 -80zm51 -28c0,2 -1,4 -2,5 -2,2 -4,3 -6,3 -2,0 -4,-1 -5,-3 -1,-1 -2,-3 -2,-5 0,-2 1,-4 2,-5 1,-2 3,-2 5,-2 2,0 4,0 6,2 1,1 2,3 2,5zm-1 19l0 61 -13 0 0 -61 13 0z"/>
  <path id="18" class="fil0" d="M2636 1221c4,0 7,0 9,-1 3,-1 5,-2 8,-3l4 8c-3,2 -6,3 -10,5 -4,1 -8,1 -11,1 -6,0 -11,-1 -16,-4 -4,-3 -8,-6 -10,-11 -3,-5 -4,-11 -4,-17 0,-6 1,-12 4,-17 2,-5 6,-8 10,-11 5,-3 10,-4 17,-4 2,0 6,0 10,2 4,1 8,2 10,4l-3 8c-4,-1 -7,-2 -9,-3 -2,0 -5,-1 -8,-1 -6,0 -10,2 -14,6 -3,4 -5,10 -5,16 0,6 2,12 5,16 3,4 8,6 13,6z"/>
  <path id="19" class="fil0" d="M2693 1167c9,0 16,3 20,9 5,6 7,13 7,22l0 4 -43 0c0,6 2,10 6,14 3,3 8,5 14,5 3,0 6,0 9,-1 2,-1 5,-2 10,-4l3 8c-7,5 -14,7 -22,7 -10,0 -19,-3 -24,-9 -6,-5 -9,-13 -9,-23 0,-6 1,-12 4,-17 2,-5 5,-8 10,-11 4,-3 9,-4 15,-4zm0 10c-5,0 -8,2 -11,5 -3,2 -4,6 -5,12l31 0c-1,-11 -6,-17 -15,-17z"/>
  <path id="20" class="fil0" d="M2765 1178c-3,0 -7,1 -11,3 -4,3 -7,5 -11,8l0 41 -12 0 0 -61 7 0 4 9c3,-2 6,-4 10,-6 4,-2 8,-3 10,-3l3 9z"/>
  <path class="fil0" d="M1564 1404c-4,0 -8,-1 -14,-2 -5,-1 -8,-3 -10,-4l3 -10c2,2 6,3 10,4 3,1 7,2 11,2 6,0 10,-1 14,-4 3,-2 4,-5 4,-9 0,-2 0,-5 -2,-7 -2,-2 -4,-4 -7,-5 -3,-2 -7,-4 -13,-6 -5,-3 -9,-5 -12,-7 -3,-3 -6,-5 -7,-8 -2,-3 -3,-7 -3,-11 0,-4 1,-8 4,-11 2,-4 5,-6 9,-8 5,-2 10,-3 15,-3 4,0 8,1 12,2 4,1 8,2 11,4l-4 9c-3,-1 -6,-2 -8,-3 -3,-1 -6,-1 -10,-1 -5,0 -9,1 -12,3 -3,1 -5,4 -5,8 0,3 1,5 3,7 1,2 4,4 7,6 3,1 7,4 13,6 7,4 13,7 16,11 4,3 6,8 6,14 0,5 -2,9 -4,12 -2,4 -6,6 -11,8 -4,2 -10,3 -16,3z"/>
  <path id="1" class="fil0" d="M1640 1351c-4,0 -7,1 -11,3 -4,3 -8,5 -11,8l0 41 -12 0 0 -61 7 0 4 9c3,-2 6,-4 10,-6 4,-2 7,-3 10,-3l3 9z"/>
  <path id="2" class="fil0" d="M1662 1323c0,2 -1,4 -2,5 -2,2 -4,3 -6,3 -2,0 -3,-1 -5,-3 -1,-1 -2,-3 -2,-5 0,-2 1,-4 2,-5 2,-2 3,-3 5,-3 2,0 4,1 6,3 1,1 2,3 2,5zm-1 19l0 61 -13 0 0 -61 13 0z"/>
  <path id="3" class="fil0" d="M1676 1323c0,-2 1,-4 2,-5 2,-2 4,-3 6,-3 2,0 4,1 5,3 2,1 2,3 2,5 0,2 0,4 -2,5 -1,2 -3,3 -5,3 -2,0 -4,-1 -6,-3 -1,-1 -2,-3 -2,-5zm14 19l0 89 -12 0 0 -89 12 0z"/>
  <path id="4" class="fil0" d="M1720 1323c0,2 -1,4 -3,5 -1,2 -3,3 -5,3 -2,0 -4,-1 -5,-3 -2,-1 -3,-3 -3,-5 0,-2 1,-4 3,-5 1,-2 3,-3 5,-3 2,0 4,1 5,3 2,1 3,3 3,5zm-2 19l0 61 -12 0 0 -61 12 0z"/>
  <path id="5" class="fil0" d="M1748 1342l11 0 4 9 -15 0 0 33c0,3 1,5 2,7 2,2 4,3 7,3 2,0 3,0 6,-1l3 9c-1,1 -3,1 -5,2 -2,0 -4,1 -5,1 -6,0 -11,-2 -15,-5 -3,-4 -5,-8 -5,-14l0 -35 -8 0 0 -9 8 0 0 -15 12 -3 0 18z"/>
  <path id="6" class="fil0" d="M1799 1351c-5,0 -11,1 -17,4l-4 -10c2,-1 6,-3 10,-4 4,-1 8,-1 11,-1 4,0 9,1 12,3 4,2 7,4 9,7 2,4 4,7 4,11l0 42 -9 0 -1 -6c-3,2 -5,3 -9,5 -3,1 -6,2 -9,2 -7,0 -13,-2 -16,-5 -4,-4 -6,-8 -6,-14 0,-6 3,-11 7,-14 4,-3 9,-5 16,-5l14 0c0,-5 -1,-9 -2,-11 -2,-3 -5,-4 -10,-4zm-2 23c-4,0 -7,1 -9,3 -2,2 -3,5 -3,8 0,2 1,5 3,7 2,2 4,2 7,2 3,0 6,0 9,-2 3,-1 5,-3 7,-6l0 -12 -14 0z"/>
  <path id="7" class="fil0" d="M1883 1371l0 32 -12 0 0 -86 24 0c10,0 18,2 24,7 6,4 9,11 9,20 0,6 -2,11 -5,15 -3,4 -7,7 -12,9 -5,2 -11,3 -17,3l-11 0zm32 -27c0,-6 -2,-10 -5,-13 -3,-3 -8,-4 -15,-4l-12 0 0 34 12 0c6,0 11,-1 14,-4 4,-3 6,-7 6,-13z"/>
  <path id="8" class="fil0" d="M1962 1351c-6,0 -11,1 -18,4l-3 -10c2,-1 5,-3 10,-4 4,-1 8,-1 11,-1 4,0 9,1 12,3 4,2 7,4 9,7 2,4 3,7 3,11l0 42 -8 0 -2 -6c-2,2 -5,3 -8,5 -3,1 -6,2 -9,2 -7,0 -13,-2 -16,-5 -4,-4 -6,-8 -6,-14 0,-6 2,-11 6,-14 5,-3 10,-5 17,-5l14 0c0,-5 -1,-9 -3,-11 -1,-3 -4,-4 -9,-4zm-3 23c-3,0 -6,1 -8,3 -2,2 -3,5 -3,8 0,2 1,5 3,7 2,2 4,2 7,2 3,0 6,0 9,-2 3,-1 5,-3 7,-6l0 -12 -15 0z"/>
  <path id="9" class="fil0" d="M2023 1394c2,0 6,-1 9,-2 3,-2 7,-5 10,-7l0 -43 12 0 0 61 -9 0 -2 -9c-3,3 -7,6 -11,8 -4,2 -8,3 -12,3 -7,0 -11,-3 -15,-7 -3,-4 -5,-9 -5,-16l0 -40 13 0 0 39c0,4 0,7 2,10 1,2 4,3 8,3z"/>
  <polygon id="10" class="fil0" points="2082,1314 2082,1403 2070,1403 2070,1315 "/>
  <path id="11" class="fil0" d="M2110 1352c0,2 -1,4 -2,5 -2,2 -3,3 -6,3 -2,0 -3,-1 -5,-3 -1,-1 -2,-3 -2,-5 0,-2 1,-4 2,-5 2,-2 3,-3 5,-3 3,0 4,1 6,3 1,1 2,3 2,5zm0 41c0,2 -1,4 -2,5 -2,2 -3,2 -6,2 -2,0 -3,0 -5,-2 -1,-1 -2,-3 -2,-5 0,-2 1,-4 2,-6 2,-1 3,-2 5,-2 3,0 4,1 6,2 1,2 2,4 2,6z"/>
  <path id="12" class="fil0" d="M2150 1343c0,-4 1,-7 3,-11 2,-3 5,-6 9,-7 3,-2 8,-3 13,-3 5,0 10,1 14,3 3,1 6,4 8,7 2,4 3,7 3,11 0,4 -1,7 -3,10 -2,3 -5,5 -9,7 3,1 5,2 8,4 2,2 4,4 5,7 2,3 3,6 3,9 0,5 -1,9 -4,12 -2,4 -5,7 -10,9 -4,2 -9,3 -15,3 -6,0 -11,-1 -15,-3 -5,-2 -8,-5 -10,-9 -2,-3 -4,-7 -4,-12 0,-3 1,-5 3,-8 1,-3 3,-6 5,-8 3,-2 5,-3 8,-4 -4,-2 -6,-4 -9,-7 -2,-3 -3,-6 -3,-10zm39 0c0,-3 -1,-6 -4,-8 -2,-2 -6,-4 -10,-4 -4,0 -8,2 -10,4 -3,2 -4,5 -4,8 0,3 1,6 4,8 2,3 6,4 10,5 5,-1 8,-2 10,-5 3,-2 4,-5 4,-8zm3 37c0,-4 -1,-7 -4,-10 -3,-3 -7,-5 -13,-5 -5,0 -10,2 -13,5 -3,3 -4,6 -4,10 0,5 1,8 5,11 3,2 7,3 12,3 5,0 9,-1 12,-4 4,-2 5,-5 5,-10z"/>
  <path id="13" class="fil0" d="M2212 1336c4,-2 7,-3 10,-4 4,-2 8,-2 13,-2 8,0 15,1 19,5 5,3 8,8 8,15 0,5 -2,10 -4,14 -3,5 -8,10 -15,16l-16 13 36 0 2 10 -54 0 0 -8 26 -24c5,-4 8,-7 10,-10 2,-3 3,-6 3,-9 0,-5 -1,-8 -4,-10 -2,-2 -6,-2 -11,-2 -4,0 -8,0 -10,1 -3,1 -6,3 -10,5l-3 -10z"/>
  <path id="14" class="fil0" d="M2330 1363c0,9 -3,17 -8,24 -4,7 -11,13 -18,17 -7,4 -14,6 -22,7l-2 -10c8,-1 16,-4 23,-9 7,-4 11,-10 14,-18 -3,2 -6,3 -9,4 -2,1 -5,2 -9,2 -5,0 -10,-1 -14,-3 -4,-2 -8,-5 -10,-9 -2,-4 -3,-8 -3,-13 0,-5 1,-9 3,-13 2,-4 6,-7 10,-9 4,-2 9,-3 14,-3 6,0 11,1 16,4 4,2 8,6 11,11 2,5 4,11 4,18zm-30 7c6,0 12,-2 18,-8 0,-7 -2,-13 -6,-16 -3,-4 -7,-6 -13,-6 -4,0 -8,1 -11,4 -4,3 -5,6 -5,11 0,4 1,8 4,11 3,3 8,4 13,4z"/>
  <polygon id="15" class="fil0" points="2365,1331 2365,1403 2353,1403 2353,1345 2340,1352 2335,1342 2357,1331 "/>
  <path id="16" class="fil0" d="M2379 1336c3,-2 7,-3 10,-4 4,-2 8,-2 13,-2 8,0 14,1 19,5 5,3 7,8 7,15 0,5 -1,10 -4,14 -2,5 -7,10 -14,16l-16 13 36 0 2 10 -55 0 0 -8 27 -24c4,-4 8,-7 10,-10 2,-3 3,-6 3,-9 0,-5 -1,-8 -4,-10 -3,-2 -7,-2 -11,-2 -4,0 -8,0 -11,1 -2,1 -6,3 -9,5l-3 -10z"/>
  <path id="17" class="fil0" d="M2442 1343c0,-4 1,-7 3,-11 2,-3 5,-6 9,-7 3,-2 8,-3 13,-3 5,0 10,1 14,3 3,1 6,4 8,7 2,4 3,7 3,11 0,4 -1,7 -3,10 -2,3 -5,5 -9,7 3,1 5,2 8,4 2,2 4,4 5,7 2,3 3,6 3,9 0,5 -1,9 -4,12 -2,4 -5,7 -10,9 -4,2 -9,3 -15,3 -6,0 -11,-1 -15,-3 -5,-2 -8,-5 -10,-9 -2,-3 -4,-7 -4,-12 0,-3 1,-5 3,-8 1,-3 3,-6 5,-8 3,-2 5,-3 8,-4 -4,-2 -6,-4 -9,-7 -2,-3 -3,-6 -3,-10zm39 0c0,-3 -1,-6 -4,-8 -2,-2 -6,-4 -10,-4 -4,0 -8,2 -10,4 -3,2 -4,5 -4,8 0,3 1,6 4,8 2,3 6,4 10,5 5,-1 8,-2 10,-5 3,-2 4,-5 4,-8zm3 37c0,-4 -1,-7 -4,-10 -3,-3 -7,-5 -13,-5 -5,0 -10,2 -13,5 -3,3 -4,6 -4,10 0,5 1,8 5,11 3,2 7,3 12,3 5,0 9,-1 12,-4 4,-2 5,-5 5,-10z"/>
  <path id="18" class="fil0" d="M2561 1363c0,9 -2,17 -7,24 -5,7 -11,13 -18,17 -8,4 -15,6 -22,7l-2 -10c8,-1 15,-4 22,-9 7,-4 12,-10 14,-18 -3,2 -5,3 -8,4 -3,1 -6,2 -9,2 -6,0 -10,-1 -15,-3 -4,-2 -7,-5 -9,-9 -3,-4 -4,-8 -4,-13 0,-5 1,-9 4,-13 2,-4 5,-7 9,-9 5,-2 9,-3 14,-3 6,0 12,1 16,4 5,2 8,6 11,11 3,5 4,11 4,18zm-30 7c6,0 12,-2 19,-8 -1,-7 -3,-13 -6,-16 -4,-4 -8,-6 -13,-6 -5,0 -9,1 -12,4 -3,3 -5,6 -5,11 0,4 2,8 5,11 3,3 7,4 12,4z"/>
  <path id="19" class="fil0" d="M2602 1404c-6,0 -12,-1 -17,-5 -5,-3 -9,-7 -12,-13 -3,-6 -4,-12 -4,-19 0,-8 1,-14 4,-19 3,-6 7,-10 12,-14 5,-3 11,-4 17,-4 7,0 13,1 18,4 5,4 9,8 12,13 3,6 4,12 4,19 0,7 -1,14 -4,20 -3,6 -7,10 -12,13 -5,4 -11,5 -18,5zm0 -64c-4,0 -8,1 -11,3 -3,3 -6,6 -8,10 -2,4 -3,8 -3,13 0,5 1,10 3,14 2,5 5,8 8,10 3,3 7,4 11,4 5,0 9,-1 12,-4 3,-2 6,-5 8,-9 2,-4 3,-9 3,-14 0,-5 -1,-10 -3,-14 -2,-4 -5,-7 -8,-10 -3,-2 -7,-3 -12,-3z"/>
  <path id="20" class="fil0" d="M2647 1343c0,-4 1,-7 3,-11 2,-3 5,-6 9,-7 4,-2 8,-3 13,-3 6,0 10,1 14,3 4,1 7,4 9,7 2,4 3,7 3,11 0,4 -2,7 -4,10 -2,3 -5,5 -9,7 3,1 6,2 8,4 2,2 4,4 6,7 1,3 2,6 2,9 0,5 -1,9 -3,12 -3,4 -6,7 -10,9 -5,2 -10,3 -16,3 -6,0 -11,-1 -15,-3 -4,-2 -8,-5 -10,-9 -2,-3 -3,-7 -3,-12 0,-3 0,-5 2,-8 1,-3 3,-6 6,-8 2,-2 5,-3 7,-4 -3,-2 -6,-4 -9,-7 -2,-3 -3,-6 -3,-10zm39 0c0,-3 -1,-6 -4,-8 -2,-2 -6,-4 -10,-4 -4,0 -7,2 -10,4 -2,2 -4,5 -4,8 0,3 2,6 4,8 2,3 6,4 10,5 5,-1 8,-2 11,-5 2,-2 3,-5 3,-8zm4 37c0,-4 -2,-7 -5,-10 -3,-3 -7,-5 -13,-5 -5,0 -10,2 -13,5 -2,3 -4,6 -4,10 0,5 2,8 5,11 3,2 8,3 12,3 5,0 9,-1 13,-4 3,-2 5,-5 5,-10z"/>
  <path id="21" class="fil0" d="M2766 1363c0,9 -2,17 -7,24 -5,7 -11,13 -18,17 -7,4 -15,6 -22,7l-2 -10c8,-1 16,-4 23,-9 7,-4 11,-10 13,-18 -2,2 -5,3 -8,4 -3,1 -6,2 -9,2 -5,0 -10,-1 -14,-3 -5,-2 -8,-5 -10,-9 -2,-4 -4,-8 -4,-13 0,-5 2,-9 4,-13 2,-4 5,-7 10,-9 4,-2 8,-3 14,-3 6,0 11,1 15,4 5,2 9,6 11,11 3,5 4,11 4,18zm-30 7c6,0 12,-2 19,-8 -1,-7 -2,-13 -6,-16 -3,-4 -8,-6 -13,-6 -5,0 -9,1 -12,4 -3,3 -4,6 -4,11 0,4 1,8 4,11 3,3 7,4 12,4z"/>
  <polygon class="fil0" points="1603,1513 1582,1544 1577,1545 1554,1512 1554,1572 1542,1572 1542,1487 1549,1487 1579,1529 1608,1487 1615,1487 1615,1572 1603,1572 "/>
  <path id="1" class="fil0" d="M1657 1520c-5,0 -11,2 -18,4l-3 -9c2,-2 6,-3 10,-4 4,-1 8,-2 11,-2 4,0 9,1 12,3 4,2 7,5 9,8 2,3 3,7 3,11l0 41 -8 0 -1 -6c-3,2 -6,4 -9,5 -3,2 -6,3 -9,3 -7,0 -13,-2 -16,-6 -4,-3 -6,-8 -6,-14 0,-6 2,-10 7,-13 4,-4 9,-5 16,-5l14 0c0,-5 -1,-9 -2,-12 -2,-2 -5,-4 -10,-4zm-2 24c-4,0 -7,1 -9,3 -2,2 -3,4 -3,7 0,3 1,5 3,7 2,2 4,3 7,3 3,0 6,-1 9,-2 3,-2 5,-4 7,-6l0 -12 -14 0z"/>
  <path id="2" class="fil0" d="M1730 1521c-3,0 -7,1 -11,3 -4,2 -8,5 -11,8l0 40 -12 0 0 -61 7 0 4 10c3,-2 6,-5 10,-7 4,-2 7,-3 10,-3l3 10z"/>
  <polygon id="3" class="fil0" points="1752,1550 1752,1572 1740,1572 1740,1485 1752,1483 1752,1536 1779,1509 1786,1517 1768,1535 1792,1572 1778,1572 1760,1543 "/>
  <path id="4" class="fil0" d="M1825 1509c9,0 16,3 20,9 5,6 7,14 7,23l0 3 -43 0c0,6 2,11 5,14 4,4 9,5 15,5 3,0 6,0 8,-1 3,-1 6,-2 10,-4l4 9c-7,4 -15,7 -22,7 -11,0 -19,-3 -24,-9 -6,-6 -9,-14 -9,-24 0,-6 1,-11 4,-16 2,-5 5,-9 10,-12 4,-2 9,-4 15,-4zm0 11c-5,0 -8,1 -11,4 -3,3 -5,7 -5,12l31 0c-1,-11 -7,-16 -15,-16z"/>
  <path id="5" class="fil0" d="M1878 1512l11 0 4 9 -15 0 0 32c0,3 1,6 2,8 2,2 4,3 7,3 1,0 3,-1 6,-2l3 10c-1,0 -3,1 -5,1 -2,1 -4,1 -5,1 -6,0 -11,-1 -15,-5 -3,-3 -5,-8 -5,-14l0 -34 -8 0 0 -9 8 0 0 -15 12 -3 0 18z"/>
  <path id="6" class="fil0" d="M1920 1493c0,2 -1,3 -3,5 -1,1 -3,2 -5,2 -2,0 -4,-1 -5,-2 -2,-2 -2,-3 -2,-5 0,-3 0,-4 2,-6 1,-1 3,-2 5,-2 2,0 4,1 5,2 2,2 3,3 3,6zm-2 18l0 61 -12 0 0 -61 12 0z"/>
  <path id="7" class="fil0" d="M1965 1519c-3,0 -6,1 -10,3 -3,2 -6,4 -10,7l0 43 -12 0 0 -61 9 0 2 8c3,-3 7,-5 11,-7 4,-2 8,-3 12,-3 7,0 12,2 15,6 3,4 5,10 5,17l0 40 -12 0 0 -39c0,-5 -1,-8 -2,-10 -2,-3 -5,-4 -8,-4z"/>
  <path id="8" class="fil0" d="M2053 1577c0,5 -1,9 -3,13 -2,3 -6,6 -10,8 -4,2 -10,3 -16,3 -3,0 -6,-1 -11,-2 -4,-1 -8,-2 -10,-4l3 -9c4,2 8,3 10,4 2,1 5,1 8,1 5,0 9,-1 12,-3 4,-3 5,-6 5,-11l0 -8c-2,2 -4,3 -7,4 -2,0 -4,1 -6,1 -6,0 -12,-2 -16,-4 -5,-3 -8,-7 -11,-12 -2,-5 -3,-10 -3,-17 0,-6 1,-12 3,-16 3,-5 6,-9 11,-12 5,-2 10,-4 16,-4 2,0 5,1 8,2 3,1 6,2 8,4l3 -4 6 0 0 66zm-12 -19l0 -33c-2,-2 -4,-3 -6,-4 -2,-1 -4,-1 -7,-1 -6,0 -10,2 -13,6 -3,4 -5,9 -5,15 0,7 1,12 5,16 3,4 7,6 13,6 3,0 5,0 7,-1 2,-1 4,-2 6,-4z"/>
  <path id="9" class="fil0" d="M2121 1574c-3,0 -8,-1 -13,-2 -6,-2 -9,-3 -11,-5l3 -9c3,1 6,3 10,4 4,1 8,1 11,1 6,0 11,-1 14,-3 3,-2 5,-5 5,-9 0,-3 -1,-5 -3,-7 -1,-2 -4,-4 -7,-6 -3,-2 -7,-4 -12,-6 -5,-2 -10,-5 -13,-7 -3,-2 -5,-5 -7,-8 -2,-3 -2,-6 -2,-10 0,-5 1,-8 3,-12 2,-3 6,-6 10,-8 4,-2 9,-2 15,-2 4,0 8,0 12,1 4,1 7,3 10,4l-4 10c-3,-2 -5,-3 -8,-4 -3,0 -6,-1 -9,-1 -5,0 -9,1 -13,3 -3,2 -4,5 -4,8 0,3 1,6 2,8 2,2 4,4 7,5 3,2 7,4 13,7 8,3 13,7 17,10 3,4 5,9 5,15 0,4 -1,8 -4,12 -2,3 -6,6 -10,8 -5,2 -10,3 -17,3z"/>
  <path id="10" class="fil0" d="M2189 1509c9,0 15,3 20,9 4,6 6,14 6,23l0 3 -43 0c1,6 3,11 6,14 3,4 8,5 15,5 3,0 6,0 8,-1 2,-1 6,-2 10,-4l4 9c-8,4 -15,7 -22,7 -11,0 -19,-3 -25,-9 -6,-6 -8,-14 -8,-24 0,-6 1,-11 3,-16 2,-5 6,-9 10,-12 5,-2 10,-4 16,-4zm-1 11c-4,0 -8,1 -11,4 -2,3 -4,7 -5,12l32 0c-2,-11 -7,-16 -16,-16z"/>
  <path id="11" class="fil0" d="M2253 1563c4,0 7,0 9,-1 3,0 5,-1 8,-3l4 9c-2,2 -6,3 -10,4 -4,1 -8,2 -11,2 -6,0 -11,-2 -16,-4 -4,-3 -8,-7 -10,-12 -3,-5 -4,-10 -4,-17 0,-6 1,-11 4,-16 2,-5 6,-9 10,-12 5,-2 11,-4 17,-4 3,0 6,1 10,2 4,1 8,3 10,4l-3 9c-4,-2 -7,-3 -9,-3 -2,-1 -5,-1 -8,-1 -6,0 -10,2 -14,6 -3,4 -5,9 -5,15 0,7 2,12 5,16 3,4 8,6 13,6z"/>
  <path id="12" class="fil0" d="M2319 1521c-3,0 -7,1 -11,3 -4,2 -8,5 -11,8l0 40 -12 0 0 -61 7 0 4 10c3,-2 6,-5 10,-7 4,-2 7,-3 10,-3l3 10z"/>
  <path id="13" class="fil0" d="M2353 1509c9,0 15,3 20,9 4,6 7,14 7,23l0 3 -44 0c1,6 3,11 6,14 3,4 8,5 15,5 3,0 6,0 8,-1 3,-1 6,-2 10,-4l4 9c-7,4 -15,7 -22,7 -11,0 -19,-3 -25,-9 -5,-6 -8,-14 -8,-24 0,-6 1,-11 3,-16 3,-5 6,-9 10,-12 5,-2 10,-4 16,-4zm0 11c-5,0 -9,1 -11,4 -3,3 -5,7 -5,12l31 0c-2,-11 -7,-16 -15,-16z"/>
  <path id="14" class="fil0" d="M2406 1512l11 0 4 9 -15 0 0 32c0,3 1,6 2,8 2,2 4,3 7,3 1,0 3,-1 6,-2l3 10c-1,0 -3,1 -5,1 -2,1 -4,1 -6,1 -6,0 -10,-1 -14,-5 -3,-3 -5,-8 -5,-14l0 -34 -9 0 0 -9 9 0 0 -15 12 -3 0 18z"/>
  <path id="15" class="fil0" d="M2457 1520c-6,0 -12,2 -18,4l-3 -9c2,-2 5,-3 10,-4 4,-1 8,-2 11,-2 4,0 8,1 12,3 4,2 7,5 9,8 2,3 3,7 3,11l0 41 -8 0 -2 -6c-2,2 -5,4 -8,5 -3,2 -6,3 -10,3 -6,0 -12,-2 -15,-6 -4,-3 -6,-8 -6,-14 0,-6 2,-10 6,-13 4,-4 10,-5 17,-5l14 0c0,-5 -1,-9 -3,-12 -1,-2 -5,-4 -9,-4zm-3 24c-3,0 -6,1 -8,3 -2,2 -3,4 -3,7 0,3 1,5 3,7 1,2 4,3 7,3 3,0 6,-1 9,-2 3,-2 5,-4 7,-6l0 -12 -15 0z"/>
  <path id="16" class="fil0" d="M2530 1521c-4,0 -7,1 -11,3 -4,2 -8,5 -11,8l0 40 -12 0 0 -61 7 0 4 10c2,-2 6,-5 10,-7 4,-2 7,-3 10,-3l3 10z"/>
  <polygon id="17" class="fil0" points="2589,1511 2566,1571 2566,1601 2555,1601 2555,1572 2532,1513 2544,1509 2560,1555 2577,1511 "/>
  <polygon class="fil0" points="1554,1637 1554,1723 1542,1723 1542,1637 "/>
  <path id="1" class="fil0" d="M1589 1725c-3,0 -6,-1 -10,-2 -4,-1 -7,-2 -10,-4l4 -8c6,2 11,4 16,4 4,0 8,-1 10,-2 2,-2 4,-4 4,-6 0,-4 -5,-8 -14,-11 -13,-4 -20,-10 -20,-18 0,-5 2,-10 6,-13 4,-3 10,-5 17,-5 3,0 6,1 10,2 4,1 7,2 10,4l-4 8c-3,-1 -6,-2 -8,-3 -2,0 -5,-1 -8,-1 -3,0 -6,1 -8,2 -2,2 -3,4 -3,6 0,2 1,3 3,5 2,1 6,2 10,4 13,5 20,11 20,19 0,6 -2,11 -6,14 -5,3 -11,5 -19,5z"/>
  <path id="2" class="fil0" d="M1680 1683l0 40 -12 0 0 -39c0,-5 -1,-8 -2,-10 -2,-3 -4,-4 -8,-4 -3,0 -6,1 -9,3 -4,2 -7,4 -10,7l0 43 -12 0 0 -87 12 -2 0 35c3,-3 7,-5 10,-7 4,-1 8,-2 12,-2 6,0 11,2 14,6 4,4 5,10 5,17z"/>
  <path id="3" class="fil0" d="M1718 1671c-6,0 -12,2 -18,4l-3 -9c2,-2 5,-3 10,-4 4,-1 8,-2 11,-2 4,0 8,1 12,3 4,2 7,5 9,8 2,3 3,7 3,11l0 41 -8 0 -2 -6c-2,2 -5,4 -8,5 -3,2 -6,3 -10,3 -7,0 -12,-2 -15,-6 -4,-3 -6,-8 -6,-14 0,-6 2,-10 6,-13 4,-4 10,-5 17,-5l14 0c0,-5 -1,-9 -3,-12 -2,-2 -5,-4 -9,-4zm-3 24c-3,0 -6,1 -8,3 -2,2 -3,4 -3,7 0,3 1,5 3,7 1,2 4,3 7,3 3,0 6,-1 9,-2 2,-2 5,-4 7,-6l0 -12 -15 0z"/>
  <path id="4" class="fil0" d="M1850 1699c0,8 -3,14 -8,18 -6,4 -13,6 -23,6l-30 0 0 -86 27 0c20,0 30,8 30,24 0,6 -4,11 -11,16 5,2 8,5 11,8 3,4 4,8 4,14zm-17 -38c0,-5 -1,-9 -4,-10 -3,-2 -8,-3 -14,-3l-13 0 0 26 11 0c6,0 11,-1 15,-3 4,-2 5,-6 5,-10zm5 38c0,-5 -2,-9 -5,-11 -3,-3 -8,-4 -13,-4l-18 0 0 29 17 0c5,0 10,-1 14,-3 3,-3 5,-6 5,-11z"/>
  <path id="5" class="fil0" d="M1885 1671c-6,0 -12,2 -18,4l-3 -9c2,-2 5,-3 9,-4 5,-1 8,-2 11,-2 5,0 9,1 13,3 4,2 7,5 9,8 2,3 3,7 3,11l0 41 -8 0 -2 -6c-2,2 -5,4 -8,5 -4,2 -7,3 -10,3 -7,0 -12,-2 -16,-6 -3,-3 -5,-8 -5,-14 0,-6 2,-10 6,-13 4,-4 9,-5 16,-5l15 0c0,-5 -1,-9 -3,-12 -2,-2 -5,-4 -9,-4zm-3 24c-3,0 -6,1 -8,3 -2,2 -3,4 -3,7 0,3 1,5 2,7 2,2 5,3 8,3 3,0 6,-1 8,-2 3,-2 6,-4 8,-6l0 -12 -15 0z"/>
  <path id="6" class="fil0" d="M1955 1670c-3,0 -6,1 -9,3 -4,2 -7,4 -10,7l0 43 -12 0 0 -61 8 0 2 8c3,-3 7,-5 11,-7 4,-2 8,-3 12,-3 7,0 12,2 15,6 3,4 5,10 5,17l0 40 -12 0 0 -39c0,-5 -1,-8 -2,-10 -2,-3 -4,-4 -8,-4z"/>
  <path id="7" class="fil0" d="M2044 1723l-7 0 -3 -5c-2,2 -5,4 -8,5 -3,1 -6,2 -8,2 -6,0 -11,-2 -16,-4 -5,-3 -8,-7 -11,-12 -2,-5 -3,-10 -3,-17 0,-6 1,-12 4,-17 2,-4 6,-8 10,-11 5,-2 10,-4 16,-4 2,0 4,1 6,1 3,1 5,2 7,3l0 -28 13 -2 0 89zm-26 -9c3,0 5,0 7,-1 2,-1 5,-2 6,-4l0 -34c-1,-1 -4,-2 -6,-3 -2,-1 -4,-1 -7,-1 -6,0 -10,2 -13,6 -3,4 -5,9 -5,15 0,7 2,12 5,16 3,4 7,6 13,6z"/>
  <path id="8" class="fil0" d="M2074 1644c0,2 -1,3 -3,5 -1,1 -3,2 -5,2 -2,0 -4,-1 -5,-2 -2,-2 -3,-3 -3,-5 0,-3 1,-4 3,-6 1,-1 3,-2 5,-2 2,0 4,1 5,2 2,2 3,3 3,6zm-2 18l0 61 -12 0 0 -61 12 0z"/>
  <path id="9" class="fil0" d="M2099 1673c0,2 -1,3 -3,5 -1,1 -3,2 -5,2 -2,0 -4,-1 -5,-2 -2,-2 -3,-3 -3,-5 0,-3 1,-4 3,-6 1,-1 3,-2 5,-2 2,0 4,1 5,2 2,2 3,3 3,6zm0 40c0,2 -1,4 -3,6 -1,1 -3,2 -5,2 -2,0 -4,-1 -5,-2 -2,-2 -3,-4 -3,-6 0,-2 1,-4 3,-5 1,-2 3,-2 5,-2 2,0 4,0 5,2 2,1 3,3 3,5z"/>
  <path id="10" class="fil0" d="M2193 1684c0,9 -3,17 -7,24 -5,7 -11,12 -18,16 -8,4 -15,7 -22,8l-3 -10c9,-2 16,-5 23,-9 7,-4 12,-11 14,-18 -3,2 -5,3 -8,4 -3,1 -6,1 -9,1 -6,0 -11,-1 -15,-3 -4,-2 -7,-5 -9,-8 -3,-4 -4,-8 -4,-13 0,-5 1,-10 4,-13 2,-4 5,-7 9,-10 4,-2 9,-3 14,-3 6,0 11,1 16,4 5,3 8,6 11,11 3,5 4,11 4,19zm-30 7c6,0 12,-3 18,-8 0,-7 -2,-13 -5,-17 -4,-4 -8,-6 -13,-6 -5,0 -9,2 -12,4 -3,3 -5,7 -5,11 0,5 2,9 5,12 3,2 7,4 12,4z"/>
  <path id="11" class="fil0" d="M2258 1699c0,5 -1,9 -3,13 -2,4 -6,7 -10,9 -4,3 -9,4 -14,4 -6,0 -11,-2 -16,-4 -4,-3 -8,-7 -11,-12 -2,-4 -4,-11 -4,-18 0,-9 3,-17 8,-24 4,-7 11,-12 18,-16 7,-4 14,-7 22,-8l2 10c-8,1 -16,4 -23,9 -7,4 -11,10 -14,18 3,-2 6,-3 9,-4 2,-1 5,-2 9,-2 5,0 10,1 14,3 4,3 8,5 10,9 2,4 3,8 3,13zm-11 1c0,-5 -1,-9 -4,-12 -3,-3 -8,-4 -13,-4 -5,0 -12,3 -18,8 0,7 2,13 6,17 3,4 8,6 13,6 4,0 8,-2 11,-5 4,-2 5,-6 5,-10z"/>
  <polygon id="12" class="fil0" points="2294,1652 2294,1723 2282,1723 2282,1665 2269,1672 2263,1663 2286,1652 "/>
  <path id="13" class="fil0" d="M2365 1684c0,9 -3,17 -8,24 -4,7 -11,12 -18,16 -7,4 -14,7 -22,8l-2 -10c8,-2 16,-5 23,-9 7,-4 11,-11 14,-18 -3,2 -6,3 -9,4 -2,1 -5,1 -9,1 -5,0 -10,-1 -14,-3 -4,-2 -8,-5 -10,-8 -2,-4 -3,-8 -3,-13 0,-5 1,-10 3,-13 2,-4 6,-7 10,-10 4,-2 9,-3 14,-3 6,0 11,1 16,4 4,3 8,6 11,11 2,5 4,11 4,19zm-30 7c5,0 12,-3 18,-8 0,-7 -2,-13 -6,-17 -3,-4 -8,-6 -13,-6 -4,0 -8,2 -11,4 -4,3 -5,7 -5,11 0,5 1,9 4,12 3,2 8,4 13,4z"/>
  <path id="14" class="fil0" d="M2406 1725c-7,0 -12,-2 -17,-5 -6,-3 -10,-8 -13,-14 -2,-5 -4,-12 -4,-19 0,-7 2,-13 4,-19 3,-6 7,-10 13,-13 5,-3 10,-5 17,-5 6,0 12,2 17,5 5,3 9,7 12,13 3,6 5,12 5,19 0,7 -2,13 -5,19 -3,6 -7,11 -12,14 -5,3 -11,5 -17,5zm0 -64c-4,0 -8,1 -12,3 -3,2 -6,5 -7,9 -2,4 -3,9 -3,14 0,5 1,10 3,14 1,4 4,7 7,10 4,2 8,3 12,3 4,0 8,-1 11,-3 4,-2 6,-6 8,-10 2,-4 3,-9 3,-14 0,-5 -1,-9 -3,-13 -2,-5 -4,-8 -8,-10 -3,-2 -7,-3 -11,-3z"/>
  <path id="15" class="fil0" d="M2495 1705l13 0 -1 10 -12 0 0 17 -12 0 0 -17 -37 0 -1 -10 41 -54 9 0 0 54zm-12 0l0 -33 -25 33 25 0z"/>
  <polygon id="16" class="fil0" points="2565,1657 2538,1732 2527,1728 2551,1662 2514,1662 2512,1652 2561,1652 "/>
  <path id="17" class="fil0" d="M2629 1684c0,9 -2,17 -7,24 -5,7 -11,12 -18,16 -7,4 -15,7 -22,8l-2 -10c8,-2 16,-5 22,-9 7,-4 12,-11 14,-18 -2,2 -5,3 -8,4 -3,1 -6,1 -9,1 -6,0 -10,-1 -14,-3 -5,-2 -8,-5 -10,-8 -3,-4 -4,-8 -4,-13 0,-5 1,-10 4,-13 2,-4 5,-7 9,-10 5,-2 9,-3 14,-3 6,0 12,1 16,4 5,3 9,6 11,11 3,5 4,11 4,19zm-30 7c6,0 12,-3 19,-8 -1,-7 -3,-13 -6,-17 -4,-4 -8,-6 -13,-6 -5,0 -9,2 -12,4 -3,3 -5,7 -5,11 0,5 2,9 5,12 3,2 7,4 12,4z"/>
  <polygon id="18" class="fil0" points="2687,1657 2660,1732 2649,1728 2673,1662 2636,1662 2634,1652 2683,1652 "/>
  <path id="19" class="fil0" d="M2727 1725c-6,0 -12,-2 -17,-5 -5,-3 -9,-8 -12,-14 -3,-5 -5,-12 -5,-19 0,-7 2,-13 5,-19 3,-6 7,-10 12,-13 5,-3 11,-5 17,-5 7,0 12,2 18,5 5,3 9,7 12,13 2,6 4,12 4,19 0,7 -2,13 -4,19 -3,6 -7,11 -12,14 -6,3 -11,5 -18,5zm0 -64c-4,0 -8,1 -11,3 -4,2 -6,5 -8,9 -2,4 -3,9 -3,14 0,5 1,10 3,14 2,4 4,7 8,10 3,2 7,3 11,3 5,0 8,-1 12,-3 3,-2 6,-6 8,-10 2,-4 2,-9 2,-14 0,-5 0,-9 -2,-13 -2,-5 -5,-8 -8,-10 -4,-2 -7,-3 -12,-3z"/>
  <circle class="fil1" cx="648" cy="1076" r="648"/>
  <circle class="fil2" cx="648" cy="1076" r="648"/>
  <path class="fil0" d="M109 1269l18 -7c-2,4 -2,8 -2,13 0,4 1,8 2,11 1,3 2,5 3,6 1,1 2,3 3,3 2,1 3,2 4,2 1,0 2,0 3,-1 2,0 3,-1 4,-2 1,-2 1,-3 2,-5 0,-2 0,-4 1,-7 0,-2 0,-5 0,-8 0,-7 1,-13 4,-17 2,-4 6,-8 11,-10 4,-1 8,-2 11,-1 4,0 7,1 10,3 3,2 6,5 8,8 3,4 5,7 6,11 2,5 3,8 4,12 1,3 1,6 1,9l-16 7c0,-2 1,-4 1,-6 0,-1 0,-3 -1,-5 0,-2 0,-4 -1,-5 0,-2 0,-4 -1,-5 -1,-2 -2,-4 -3,-5 -1,-2 -2,-3 -3,-4 -1,-1 -2,-1 -4,-1 -1,-1 -2,0 -3,0 -1,1 -2,1 -3,3 -1,1 -2,2 -2,4 0,1 -1,3 -1,5 0,2 0,5 0,8 0,3 0,7 -1,10 0,3 -1,5 -2,8 -1,2 -3,5 -5,7 -2,1 -4,3 -8,4 -4,2 -8,3 -12,2 -3,0 -6,-2 -9,-4 -3,-2 -6,-4 -8,-8 -3,-3 -5,-7 -6,-11 -2,-4 -3,-9 -4,-13 -1,-4 -1,-8 -1,-11zm122 98l-12 -21 -59 34 -10 -17 60 -33 -12 -21 13 -8 33 58 -13 8 0 0 0 0zm29 84c-19,16 -36,16 -51,-2 -15,-17 -13,-34 5,-50l37 -32 12 15 -37 31c-10,9 -11,18 -5,26 7,8 16,7 26,-1l37 -32 12 14 -36 31zm-3 48l52 -65 24 18c23,19 26,39 9,60 -8,10 -18,16 -29,17 -11,1 -22,-3 -33,-11l-23 -19 0 0 0 0zm58 -41l-34 41 8 6c6,5 13,7 19,6 7,-1 13,-5 18,-11 5,-6 7,-13 7,-19 -1,-7 -5,-12 -11,-18l-7 -5 0 0 0 0zm69 129l-43 -25 41 -73 42 24 -8 14 -25 -15 -9 16 23 14 -7 13 -24 -13 -9 16 27 16 -8 13 0 0 0 0zm97 41l-18 -7 -13 -62c-1,-3 -1,-6 -1,-8l0 0c-1,3 -3,7 -5,13l-17 43 -16 -6 30 -78 19 7 13 59c0,3 1,6 1,8l0 0c1,-2 2,-5 4,-11l17 -43 16 7 -30 78zm104 -49l-23 -4 -12 67 -18 -3 11 -67 -23 -4 2 -15 66 11 -3 15 0 0zm12 68l1 -19c3,3 7,5 11,7 4,1 8,2 12,2 2,0 4,0 6,-1 2,0 3,-1 4,-1 2,-1 2,-2 3,-3 1,-1 1,-2 1,-3 0,-2 0,-3 -1,-5 -1,-1 -2,-2 -4,-3 -2,-1 -4,-3 -6,-4 -2,-1 -4,-2 -7,-3 -6,-3 -11,-6 -14,-10 -3,-4 -5,-9 -5,-14 0,-5 1,-9 3,-12 2,-3 4,-5 7,-7 3,-2 7,-4 11,-4 4,-1 8,-2 12,-2 5,0 9,1 12,1 3,1 6,2 9,3l0 17c-1,-1 -3,-1 -5,-2 -1,-1 -3,-2 -5,-2 -1,-1 -3,-1 -5,-1 -2,-1 -3,-1 -5,-1 -2,0 -4,0 -6,1 -1,0 -3,1 -4,1 -1,1 -2,2 -3,3 -1,1 -1,2 -1,3 0,2 0,3 1,4 1,1 2,2 3,3 1,1 3,2 5,3 2,1 4,2 7,3 3,2 6,3 9,5 2,2 4,4 6,6 2,2 4,4 5,6 0,3 1,6 1,9 0,5 -1,9 -3,12 -2,3 -4,6 -7,8 -3,2 -7,3 -11,4 -4,0 -8,1 -13,1 -4,0 -9,-1 -13,-2 -4,-1 -8,-2 -11,-3zm99 -84l-10 27 -11 0 5 -26 16 -1zm114 63c-6,4 -13,7 -23,10 -12,2 -23,1 -32,-5 -9,-5 -14,-14 -17,-27 -3,-13 -2,-24 4,-34 7,-10 16,-17 29,-20 8,-1 15,-2 21,-1l4 17c-6,-2 -13,-2 -20,0 -7,2 -13,5 -17,11 -3,6 -4,13 -2,22 2,7 5,13 11,17 5,4 12,5 19,3 7,-2 14,-5 19,-10l4 17 0 0 0 0zm62 -18c-11,4 -22,4 -32,0 -10,-5 -17,-13 -22,-24 -5,-13 -5,-24 -1,-34 4,-11 12,-18 24,-23 11,-5 21,-5 31,0 10,4 17,13 22,24 5,13 5,24 1,34 -4,11 -12,18 -23,23zm-26 -66c-6,3 -10,7 -12,13 -1,6 -1,13 2,20 3,8 8,13 13,16 6,3 11,4 17,1 6,-2 10,-6 12,-12 2,-6 1,-12 -2,-20 -3,-8 -8,-14 -13,-17 -5,-3 -11,-3 -17,-1zm128 -34c13,21 10,38 -10,50 -19,12 -35,8 -48,-13l-26 -40 16 -11 26 41c7,12 15,15 24,9 9,-5 10,-14 3,-25l-27 -41 16 -11 26 41zm101 -44l-14 13 -61 -14c-4,-1 -7,-2 -8,-2l0 0c2,2 5,5 9,9l32 34 -13 12 -58 -61 15 -14 59 14c3,1 6,2 8,2l0 0c-1,-1 -4,-4 -8,-8l-32 -33 13 -13 58 61zm55 -78c-1,7 -5,14 -10,22 -8,11 -17,17 -27,18 -10,2 -21,-1 -31,-8 -11,-8 -17,-18 -19,-29 -3,-12 0,-23 8,-34 5,-6 9,-11 14,-15l15 11c-6,2 -11,7 -15,13 -4,6 -6,13 -5,19 1,7 5,13 12,18 7,5 13,6 20,5 7,0 12,-4 17,-10 4,-6 6,-13 7,-20l14 10 0 0 0 0zm27 -41l-9 16 -73 -41 9 -16 73 41zm35 -78l-18 46 -79 -30 7 -18 64 25 11 -29 15 6 0 0z"/>
  <path class="fil3" d="M383 852c-47,2 -124,34 -149,57 -27,25 -15,45 -1,75 11,22 23,48 35,71 18,38 125,268 136,282l-33 -301 121 20 117 301c10,25 28,86 42,99l155 -401 120 -19 -32 290c2,7 1,4 3,9 6,-19 25,-56 34,-73 46,-92 93,-200 139,-290 18,-37 5,-54 -18,-72 -29,-20 -119,-53 -160,-54 21,-1 201,63 39,124 -174,65 -618,43 -631,-53 -5,-39 57,-50 83,-65l0 0 0 0 0 0z"/>
  <path class="fil3" d="M629 797c-103,24 -65,184 40,157 100,-25 68,-184 -40,-157z"/>
  <path class="fil3" d="M266 698c-82,25 -44,149 38,124 80,-25 46,-149 -38,-124z"/>
  <path class="fil3" d="M990 700c-84,33 -30,152 47,120 77,-33 32,-151 -47,-120z"/>
  <path class="fil0" d="M520 588l-26 8 -38 -31c-1,-1 -2,-2 -4,-5l0 1 13 44 -20 6 -28 -90 21 -7 13 43 0 0c0,-1 0,-3 1,-6l13 -45 25 -8 -19 53 49 37z"/>
  <path class="fil0" d="M579 538c2,13 1,23 -4,31 -5,7 -12,12 -23,13 -5,1 -10,1 -15,0l-3 -20c4,2 9,3 13,3 10,-2 13,-10 11,-24l-9 -56 21 -3 9 56z"/>
  <path class="fil0" d="M614 569l0 -22c3,4 8,6 12,7 5,2 9,3 14,3 2,0 5,-1 7,-1 2,-1 3,-1 5,-2 1,-1 2,-2 3,-3 0,-2 1,-3 1,-4 0,-2 -1,-4 -2,-5 -1,-2 -3,-3 -4,-4 -2,-1 -4,-2 -7,-4 -3,-1 -5,-2 -8,-3 -8,-3 -13,-7 -17,-11 -4,-4 -6,-10 -6,-16 0,-5 1,-9 3,-13 2,-3 5,-6 8,-9 3,-2 7,-4 12,-5 4,-1 9,-2 14,-2 5,0 9,0 13,1 4,0 8,1 11,2l0 20c-1,-1 -3,-2 -5,-3 -2,0 -4,-1 -6,-2 -2,0 -4,0 -6,-1 -2,0 -4,0 -5,0 -3,0 -5,0 -7,1 -2,0 -4,1 -5,2 -1,1 -2,2 -3,3 -1,1 -1,2 -1,4 0,1 0,3 1,4 1,1 2,3 4,4 1,1 3,2 5,3 3,1 5,2 8,3 4,2 7,3 10,5 3,2 6,4 8,6 2,2 4,5 5,7 1,3 2,7 2,11 0,5 -1,9 -3,13 -2,3 -4,6 -8,9 -3,2 -7,4 -12,5 -4,1 -9,1 -14,1 -5,1 -10,0 -15,-1 -5,0 -9,-2 -12,-3z"/>
  <path class="fil0" d="M776 582c-8,3 -17,3 -28,1 -14,-2 -25,-8 -32,-18 -7,-10 -9,-22 -7,-36 3,-15 9,-26 20,-34 11,-8 23,-10 38,-8 9,1 17,4 23,7l-3 20c-6,-4 -13,-7 -21,-9 -9,-1 -16,1 -23,5 -6,5 -10,12 -11,21 -2,9 0,17 4,23 4,6 11,10 19,12 9,1 16,0 24,-3l-3 19z"/>
  <polygon class="fil0" points="857,616 804,595 838,507 889,526 882,543 851,531 844,550 873,561 866,578 837,566 830,587 863,599 "/>
 </g>
</svg>
