<?xml version="1.0" encoding="UTF-8"?>
<!DOCTYPE svg PUBLIC "-//W3C//DTD SVG 1.1//EN" "http://www.w3.org/Graphics/SVG/1.1/DTD/svg11.dtd">
<!-- Creator: CorelDRAW X7 -->
<svg xmlns="http://www.w3.org/2000/svg" xml:space="preserve" width="2.767in" height="1.26in" version="1.1" style="shape-rendering:geometricPrecision; text-rendering:geometricPrecision; image-rendering:optimizeQuality; fill-rule:evenodd; clip-rule:evenodd"
viewBox="0 0 2767 1260"
 xmlns:xlink="http://www.w3.org/1999/xlink">
 <defs>
  <style type="text/css">
   <![CDATA[
    .fil0 {fill:#FCB72E;fill-rule:nonzero}
    .fil1 {fill:#52658C;fill-rule:nonzero}
   ]]>
  </style>
 </defs>
 <g id="Layer_x0020_1">
  <metadata id="CorelCorpID_0Corel-Layer"/>
  <g id="_2525478235344">
   <path class="fil0" d="M654 349c0,73 -14,136 -43,190 -28,54 -68,95 -119,124 -52,29 -110,44 -176,44l-316 0 0 -707 320 0c71,0 131,15 181,45 51,30 89,71 114,124 26,52 39,113 39,180zm-196 0c0,-59 -13,-107 -39,-145 -26,-37 -62,-55 -108,-55l-122 0 0 409 114 0c46,0 83,-18 112,-54 29,-36 43,-87 43,-155zm237 358l265 -707 190 0 264 699 -186 18 -51 -149 -245 0 -48 139 -189 0zm289 -288l139 0 -71 -192 -68 192zm523 288l0 -707 297 0c85,0 155,20 209,60 55,41 83,101 83,181 0,42 -9,78 -26,110 -17,32 -40,57 -70,77l156 279 -219 0 -115 -222 -126 0 0 222 -189 0zm393 -466c0,-30 -9,-53 -26,-69 -18,-15 -43,-23 -76,-23l-102 0 0 187 104 0c29,0 53,-9 72,-27 19,-17 28,-40 28,-68zm849 317l18 149 -518 0 0 -707 500 0 18 149 -328 0 0 129 217 0 18 148 -235 0 0 132 310 0z"/>
   <path class="fil0" d="M873 1019c0,47 -9,89 -28,124 -18,35 -44,62 -78,81 -33,20 -72,29 -115,29l-206 0 0 -462 209 0c46,0 86,10 119,29 32,20 57,47 74,81 17,35 25,74 25,118zm-128 0c0,-39 -8,-70 -25,-94 -17,-25 -41,-37 -71,-37l-80 0 0 268 75 0c30,0 54,-12 73,-35 19,-24 28,-58 28,-102zm203 234l0 -462 194 0c55,0 101,13 137,39 35,27 53,66 53,119 0,27 -5,51 -16,71 -11,21 -27,38 -46,51l102 182 -144 0 -74 -145 -83 0 0 145 -123 0zm257 -304c0,-20 -6,-35 -18,-46 -11,-10 -28,-15 -49,-15l-67 0 0 122 68 0c19,0 35,-5 47,-17 13,-11 19,-26 19,-44zm555 207l11 97 -338 0 0 -462 327 0 11 97 -214 0 0 84 142 0 11 98 -153 0 0 86 203 0zm32 97l173 -462 123 0 173 457 -122 12 -33 -98 -160 0 -31 91 -123 0zm188 -188l91 0 -46 -126 -45 126zm653 -35l-63 84 -49 7 -75 -91 0 223 -124 0 0 -462 85 0 139 176 128 -176 82 0 0 462 -123 0 0 -223z"/>
   <path class="fil1" d="M78 900l42 0 15 34 -57 0 0 122c0,13 3,22 9,29 5,8 13,11 24,11 6,0 13,-2 23,-5l11 35c-4,2 -10,4 -18,7 -7,2 -14,3 -21,3 -22,0 -40,-7 -54,-19 -13,-13 -19,-31 -19,-54l0 -129 -33 0 0 -34 33 0 0 -58 45 -10 0 68zm205 234c-23,0 -43,-5 -60,-16 -18,-10 -31,-24 -40,-42 -9,-19 -14,-40 -14,-64 0,-24 5,-45 15,-63 9,-19 23,-33 40,-43 17,-10 38,-15 61,-15 23,0 44,5 61,15 17,10 31,24 40,43 9,18 14,39 14,63 0,24 -5,45 -14,64 -10,18 -23,32 -41,42 -18,11 -38,16 -62,16zm70 -121c0,-25 -6,-45 -18,-60 -12,-16 -28,-23 -50,-23 -21,0 -37,7 -50,23 -12,16 -19,35 -19,58 0,25 6,45 18,61 12,15 29,23 50,23 21,0 38,-8 50,-24 13,-15 19,-35 19,-58z"/>
  </g>
 </g>
</svg>
