<?xml version="1.0" encoding="UTF-8"?>
<!DOCTYPE svg PUBLIC "-//W3C//DTD SVG 1.1//EN" "http://www.w3.org/Graphics/SVG/1.1/DTD/svg11.dtd">
<!-- Creator: CorelDRAW X7 -->
<svg xmlns="http://www.w3.org/2000/svg" xml:space="preserve" width="5.814in" height="2.499in" version="1.1" style="shape-rendering:geometricPrecision; text-rendering:geometricPrecision; image-rendering:optimizeQuality; fill-rule:evenodd; clip-rule:evenodd"
viewBox="0 0 5814 2499"
 xmlns:xlink="http://www.w3.org/1999/xlink">
 <defs>
  <style type="text/css">
   <![CDATA[
    .fil4 {fill:#FFCE2E}
    .fil2 {fill:#FAA631}
    .fil0 {fill:#E98536}
    .fil3 {fill:#DC6A34}
    .fil7 {fill:#ACC1E3}
    .fil6 {fill:#90A7D1}
    .fil1 {fill:#516BA5}
    .fil5 {fill:#3D5486}
    .fil8 {fill:#3C5486;fill-rule:nonzero}
   ]]>
  </style>
 </defs>
 <g id="Layer_x0020_1">
  <metadata id="CorelCorpID_0Corel-Layer"/>
  <g id="_2525478225392">
   <g>
    <path class="fil0" d="M1688 1098l-127 224c-46,-21 -265,-119 -323,-145 -38,-17 -71,-31 -104,-45l113 -283c18,-4 271,154 441,249z"/>
    <polygon class="fil1" points="1707,902 1731,1038 1713,1047 2067,1092 2125,1086 "/>
    <polygon class="fil0" points="999,2087 0,1612 1183,1827 "/>
    <path class="fil2" d="M1648 514c110,0 199,-89 199,-199 0,-110 -89,-200 -199,-200 -110,0 -200,90 -200,200 0,110 90,199 200,199z"/>
    <polygon class="fil3" points="1688,1098 953,723 1044,555 2025,619 1908,790 "/>
    <path class="fil2" d="M1821 1439c-14,23 -121,197 -139,207l-668 -127c2,-29 109,-367 124,-395 6,17 -9,5 19,18l81 35c195,87 389,173 583,262z"/>
    <polygon class="fil3" points="1358,1579 999,2087 796,1990 1014,1519 "/>
    <polygon class="fil0" points="2170,2499 1528,1617 1821,1439 "/>
    <polygon class="fil2" points="1783,965 2025,619 2564,779 "/>
    <polygon class="fil4" points="2564,779 2253,686 2207,0 "/>
    <polygon class="fil5" points="1731,1038 1139,1200 2125,1086 "/>
    <polygon class="fil1" points="953,1031 1139,1200 1731,1038 "/>
    <polygon class="fil6" points="953,1031 479,812 338,769 1139,1200 "/>
    <polygon class="fil7" points="338,769 308,611 479,812 "/>
    <polygon class="fil2" points="618,1413 746,530 1044,555 "/>
   </g>
   <g>
    <path class="fil8" d="M3357 1490c-24,0 -49,-3 -78,-10 -28,-7 -51,-15 -68,-25l39 -90c12,7 28,13 49,19 20,6 39,9 54,9 18,0 32,-3 42,-11 11,-7 16,-15 16,-23 0,-6 -4,-12 -12,-17 -7,-6 -20,-13 -37,-23l-20 -12c-29,-18 -53,-32 -69,-44 -17,-11 -31,-26 -44,-44 -14,-19 -20,-39 -20,-62 0,-25 7,-47 21,-66 13,-19 33,-34 57,-45 25,-11 54,-17 87,-17 23,0 46,4 70,10 23,7 44,16 61,27l-35 80c-24,-8 -41,-13 -54,-15 -12,-3 -26,-4 -41,-4 -13,0 -23,3 -31,9 -8,6 -12,13 -12,22 0,7 3,12 10,17 7,5 18,12 33,20l24 13c27,16 50,30 69,44 18,13 33,29 46,47 13,18 20,38 20,61 0,25 -8,47 -22,67 -14,20 -35,35 -62,46 -27,12 -58,17 -93,17zm361 -141l0 133 -119 0 0 -444 119 0 0 154 178 -164 92 67 -151 141 180 246 -151 0 -114 -166 -34 33zm358 133l0 -444 186 0c53,0 97,12 132,38 34,25 51,63 51,113 0,26 -5,49 -16,69 -10,20 -25,36 -44,49l98 175 -138 0 -72 -140 -79 0 0 140 -118 0zm246 -293c0,-19 -5,-33 -16,-43 -11,-10 -27,-15 -48,-15l-64 0 0 118 66 0c18,0 33,-6 45,-17 12,-11 17,-25 17,-43zm534 200l11 93 -325 0 0 -444 314 0 11 93 -206 0 0 81 136 0 11 94 -147 0 0 83 195 0zm31 93l166 -444 119 0 166 439 -117 11 -32 -94 -153 0 -31 88 -118 0zm181 -181l87 0 -44 -121 -43 121zm627 -34l-60 81 -48 7 -71 -88 0 215 -119 0 0 -444 81 0 134 169 123 -169 79 0 0 444 -119 0 0 -215z"/>
    <path class="fil8" d="M3217 795l0 83 -34 0 0 -239 34 0 0 110 109 -116 24 20 -85 90 102 135 -41 0 -84 -110 -25 27zm158 94c8,-3 14,-6 18,-8 4,-3 7,-6 8,-10 2,-5 2,-11 2,-19l0 -213 34 0 0 219c0,11 -1,19 -4,26 -3,7 -8,12 -15,17 -7,4 -17,9 -30,13l-13 -25zm176 -7c-11,0 -23,-2 -38,-5 -15,-4 -25,-8 -29,-12l7 -27c8,4 17,7 28,10 11,4 22,5 31,5 17,0 30,-3 39,-9 9,-6 14,-15 14,-25 0,-8 -3,-15 -7,-20 -5,-6 -11,-11 -20,-16 -8,-5 -20,-11 -35,-17 -15,-7 -26,-13 -35,-19 -9,-7 -16,-14 -20,-22 -4,-8 -7,-18 -7,-30 0,-12 3,-22 10,-32 6,-9 15,-17 27,-22 12,-5 26,-8 42,-8 11,0 22,1 33,4 11,4 21,7 30,12l-11 26c-8,-4 -16,-7 -24,-9 -7,-2 -16,-3 -26,-3 -14,0 -25,2 -34,8 -9,5 -13,13 -13,23 0,8 2,15 7,20 4,6 11,11 19,16 8,5 20,11 36,18 21,10 37,19 47,30 10,10 15,23 15,40 0,13 -4,24 -10,33 -7,10 -17,18 -30,23 -13,6 -28,8 -46,8zm224 -248c9,0 19,1 31,3 12,3 22,6 30,11l-11 24c-10,-3 -19,-6 -25,-7 -7,-2 -15,-3 -26,-3 -14,0 -27,4 -39,13 -12,8 -21,19 -28,34 -7,15 -10,31 -10,50 0,18 3,33 9,48 6,14 14,26 26,34 11,9 24,13 40,13 19,0 37,-4 52,-11l13 26c-8,4 -18,7 -30,10 -13,2 -24,4 -34,4 -24,0 -44,-6 -61,-17 -16,-11 -29,-25 -38,-44 -8,-19 -13,-40 -13,-62 0,-24 5,-46 14,-65 10,-19 23,-34 40,-45 17,-11 37,-16 60,-16zm248 217l5 27 -152 0 0 -239 147 0 5 26 -119 0 0 78 82 0 4 26 -86 0 0 82 114 0z"/>
    <path class="fil8" d="M3283 1748c-7,0 -14,1 -20,5 -5,3 -10,6 -13,10l-29 0 6 -112 112 0 -3 26 -82 0 -3 54c10,-5 20,-8 31,-8 22,0 40,6 51,19 12,12 18,28 18,47 0,13 -3,25 -9,35 -6,11 -15,19 -27,25 -11,6 -25,9 -41,9 -11,0 -22,-2 -33,-6 -12,-3 -22,-7 -32,-13l16 -21c8,5 16,8 24,11 7,2 16,3 27,3 13,0 24,-4 33,-12 8,-8 13,-18 13,-31 0,-13 -4,-23 -11,-30 -7,-8 -16,-11 -28,-11zm107 -153l14 0 5 12 -19 0 0 41c0,5 1,8 2,10 2,3 5,4 9,4 2,0 4,-1 7,-2l4 12c-1,1 -3,1 -6,2 -2,1 -5,1 -7,1 -8,0 -14,-2 -18,-6 -5,-4 -7,-10 -7,-18l0 -44 -11 0 0 -12 11 0 0 -19 16 -4 0 23zm105 26l0 52 -15 0 0 -51c0,-5 -1,-10 -3,-12 -2,-3 -5,-5 -10,-5 -4,0 -8,1 -12,4 -4,2 -9,5 -13,9l0 55 -15 0 0 -112 15 -2 0 44c4,-3 9,-6 14,-8 5,-2 9,-3 14,-3 9,0 15,3 19,8 4,5 6,12 6,21zm382 -26l14 0 5 12 -19 0 0 41c0,5 1,8 3,10 1,3 4,4 8,4 2,0 4,-1 8,-2l4 12c-2,1 -4,1 -7,2 -2,1 -4,1 -7,1 -7,0 -13,-2 -18,-6 -4,-4 -7,-10 -7,-18l0 -44 -10 0 -1 -12 11 0 0 -19 16 -4 0 23zm105 26l0 52 -15 0 0 -51c0,-5 -1,-10 -3,-12 -2,-3 -5,-5 -10,-5 -4,0 -8,1 -12,4 -4,2 -8,5 -13,9l0 55 -15 0 0 -112 15 -2 0 44c5,-3 9,-6 14,-8 5,-2 10,-3 14,-3 9,0 15,3 19,8 4,5 6,12 6,21zm-468 112l82 0 3 25 -82 0 -3 -25zm187 -52c0,-10 2,-19 7,-27 6,-9 13,-15 23,-20 10,-5 21,-7 34,-7 14,0 25,2 35,7 10,5 17,11 22,20 5,8 8,17 8,27 0,9 -3,18 -9,25 -6,8 -14,14 -23,18 7,2 14,6 20,11 6,5 11,11 15,19 3,7 5,14 5,22 0,12 -3,22 -8,31 -6,9 -15,17 -26,22 -11,6 -24,8 -39,8 -15,0 -28,-2 -39,-8 -11,-5 -20,-13 -25,-22 -6,-9 -9,-19 -9,-31 0,-7 2,-14 6,-22 3,-7 8,-13 14,-19 7,-5 13,-9 20,-11 -9,-4 -17,-10 -23,-17 -5,-8 -8,-16 -8,-26zm100 0c0,-8 -3,-15 -10,-21 -6,-6 -15,-8 -26,-8 -11,0 -20,2 -26,8 -6,6 -10,13 -10,21 0,8 3,15 10,21 6,6 15,10 26,12 12,-2 20,-6 27,-12 6,-6 9,-13 9,-21zm8 96c0,-10 -3,-19 -11,-27 -8,-7 -19,-12 -33,-14 -14,2 -25,7 -33,14 -7,8 -11,17 -11,27 0,11 4,19 13,26 8,6 19,9 31,9 12,0 23,-3 31,-9 9,-7 13,-15 13,-26zm260 67c7,-3 13,-5 16,-8 4,-2 6,-5 8,-9 1,-4 2,-10 2,-17l0 -195 31 0 0 201c0,9 -2,17 -4,23 -3,6 -7,11 -14,15 -6,5 -15,8 -27,12l-12 -22zm86 -11l82 -218 28 0 84 216 -30 5 -23 -61 -89 0 -22 58 -30 0zm61 -83l71 0 -36 -94 -35 94zm196 -80l0 163 -30 0 0 -218 27 0 113 161 0 -161 32 0 0 218 -28 0 -114 -163z"/>
   </g>
   <polygon class="fil1" points="2890,2454 2931,2454 2931,45 2890,45 "/>
  </g>
 </g>
</svg>
