<?xml version="1.0" encoding="UTF-8"?>
<!DOCTYPE svg PUBLIC "-//W3C//DTD SVG 1.1//EN" "http://www.w3.org/Graphics/SVG/1.1/DTD/svg11.dtd">
<!-- Creator: CorelDRAW X7 -->
<svg xmlns="http://www.w3.org/2000/svg" xml:space="preserve" width="5.30666in" height="3.77999in" version="1.1" style="shape-rendering:geometricPrecision; text-rendering:geometricPrecision; image-rendering:optimizeQuality; fill-rule:evenodd; clip-rule:evenodd"
viewBox="0 0 5307 3780"
 xmlns:xlink="http://www.w3.org/1999/xlink">
 <defs>
  <style type="text/css">
   <![CDATA[
    .fil5 {fill:none}
    .fil17 {fill:#FEFEFE}
    .fil16 {fill:#434242}
    .fil22 {fill:#2B2A29}
    .fil21 {fill:#FFED00}
    .fil27 {fill:#FECE0B}
    .fil25 {fill:#F6A508}
    .fil20 {fill:#F6A409}
    .fil3 {fill:#EF7F1A}
    .fil23 {fill:#E88021}
    .fil26 {fill:#DB6020}
    .fil6 {fill:#C8671E}
    .fil0 {fill:#72271D}
    .fil8 {fill:#6C2321}
    .fil1 {fill:#982724}
    .fil30 {fill:#B8C8E7}
    .fil29 {fill:#9BADD6}
    .fil24 {fill:#4F65A2}
    .fil28 {fill:#394D83}
    .fil18 {fill:#2FB6A7}
    .fil2 {fill:#FFA800}
    .fil19 {fill:white}
    .fil7 {fill:#EF7F1A;fill-rule:nonzero}
    .fil31 {fill:#394C82;fill-rule:nonzero}
    .fil15 {fill:#FEFEFE;fill-opacity:0.200000}
    .fil14 {fill:#2B2A29;fill-opacity:0.200000}
    .fil11 {fill:#FEFEFE;fill-opacity:0.250980}
    .fil10 {fill:#2B2A29;fill-opacity:0.250980}
    .fil13 {fill:#FEFEFE;fill-opacity:0.349020}
    .fil12 {fill:#2B2A29;fill-opacity:0.349020}
    .fil4 {fill:#2B2A29;fill-opacity:0.501961}
    .fil9 {fill:#982724;fill-opacity:0.501961}
   ]]>
  </style>
    <clipPath id="id0">
     <path d="M902 3269c-92,136 -290,160 -474,86 139,-84 305,-58 464,-213 126,-122 215,-293 337,-430 207,-231 572,-408 890,-336 68,220 1,644 -161,873l-69 -116c21,182 22,291 -173,443 -113,89 -45,57 -162,71 21,-133 -3,-248 31,-431 -166,330 -150,572 -555,494 158,-220 205,-338 328,-590 -159,127 -296,645 -724,392 77,-53 207,-128 268,-243z"/>
    </clipPath>
    <clipPath id="id1">
     <path d="M4380 3269c92,136 289,160 474,86 -139,-84 -305,-58 -464,-213 -126,-122 -215,-293 -337,-430 -207,-231 -573,-408 -891,-336 -67,220 0,644 161,873l69 -116c-21,182 -21,291 173,443 114,89 46,57 162,71 -20,-133 3,-248 -31,-431 166,330 150,572 556,494 -158,-220 -205,-338 -328,-590 159,127 295,645 724,392 -77,-53 -208,-128 -268,-243z"/>
    </clipPath>
     <clipPath id="id2">
      <path d="M0 163l5307 0 0 3617 -5307 0 0 -3617z"/>
     </clipPath>
    <clipPath id="id3">
     <path d="M581 2843c-5,5 -143,50 -165,59 -27,12 -53,22 -81,35 -28,12 -54,27 -81,41 -21,11 -17,24 -2,39 33,37 83,32 126,8 39,-21 118,-68 165,-61 -29,26 -73,50 -106,76 -22,17 -91,74 -101,100 14,30 57,27 74,24 61,-13 68,-68 140,-119 15,-10 52,-33 72,-34 -18,19 -84,83 -127,135 -24,30 -41,56 -39,68 7,18 79,44 125,-30 14,-23 23,-46 39,-70 20,-29 31,-39 57,-59 -4,20 -63,88 -83,166 14,16 37,11 51,5 50,-23 34,-91 84,-149 31,-35 61,-47 79,-98 3,-7 5,-14 5,-21 272,-118 433,-200 625,-422 158,-35 287,-103 338,-140 51,-37 94,-49 144,-56 28,339 197,428 191,1050l531 110 0 1 2 -1 1 1 0 -1 551 -110c-9,-659 144,-715 169,-1051 54,8 116,18 169,57 54,39 180,105 338,140 191,221 355,290 626,406 -2,13 -1,26 4,39 18,51 49,63 79,98 51,58 35,127 86,150 13,6 36,11 51,-5 -20,-78 -80,-147 -83,-167 25,20 37,30 56,59 17,24 26,47 40,70 46,75 119,49 125,31 6,-35 -138,-174 -167,-204 20,1 58,24 73,34 72,51 80,107 141,119 16,4 59,7 74,-23 -10,-26 -79,-84 -102,-101 -33,-26 -77,-50 -106,-76 47,-8 127,39 165,61 44,24 94,29 128,-8 14,-16 19,-28 -2,-39 -27,-15 -54,-29 -82,-42 -28,-13 -54,-23 -82,-35 -21,-9 -160,-54 -166,-59 16,-5 40,-3 58,-6 20,-3 42,-10 60,-25 44,-36 49,-117 26,-107 -2,1 -5,3 -8,4 -28,19 -57,28 -90,36 -38,9 -89,15 -126,16 -11,0 -25,0 -38,3 -72,-83 -155,-199 -235,-264 -58,-48 -193,-115 -243,-169 -94,-139 -276,-230 -393,-273 -187,-250 -390,-363 -670,-422 -49,-29 -82,-51 -122,-157 0,0 -27,-90 86,-227 0,-4 27,-139 23,-246l48 -62 -13 -44c0,0 -18,-205 -92,-269 1,19 -35,162 -66,-31 0,0 -1,-67 -51,-97 0,0 -10,97 -29,95 -35,-4 -46,-197 -100,-229 0,0 -2,163 -45,155 -27,-32 -22,-120 -45,-170 0,0 -50,161 -103,40 -50,83 -148,364 -140,128 -114,67 -131,517 -148,192 0,0 -82,153 -62,228l-28 45c0,0 63,84 78,96 -36,219 130,236 85,450 -42,73 -146,112 -186,135 -259,55 -420,162 -592,390 -117,43 -298,134 -392,273 -50,54 -185,121 -244,169 -86,70 -162,262 -272,260 -36,0 -87,-6 -125,-15 -33,-8 -62,-17 -90,-36 -2,-1 -5,-3 -7,-4 -23,-10 -19,71 25,106 18,15 40,22 60,26 18,3 42,0 57,5z"/>
    </clipPath>
    <clipPath id="id4">
     <path d="M581 2843c-5,5 -143,50 -165,59 -27,12 -53,22 -81,35 -28,12 -54,27 -81,41 -21,11 -17,24 -2,39 33,37 83,32 126,8 39,-21 118,-68 165,-61 -29,26 -73,50 -106,76 -22,17 -91,74 -101,100 14,30 57,27 74,24 61,-13 68,-68 140,-119 15,-10 52,-33 72,-34 -18,19 -84,83 -127,135 -24,30 -41,56 -39,68 7,18 79,44 125,-30 14,-23 23,-46 39,-70 20,-29 31,-39 57,-59 -4,20 -63,88 -83,166 14,16 37,11 51,5 50,-23 34,-91 84,-149 31,-35 61,-47 79,-98 3,-7 5,-14 5,-21 272,-118 433,-200 625,-422 158,-35 287,-103 338,-140 51,-37 94,-49 144,-56 28,339 197,428 191,1050l531 110 0 1 2 -1 1 1 0 -1 551 -110c-9,-659 144,-715 169,-1051 54,8 116,18 169,57 54,39 180,105 338,140 191,221 355,290 626,406 -2,13 -1,26 4,39 18,51 49,63 79,98 51,58 35,127 86,150 13,6 36,11 51,-5 -20,-78 -80,-147 -83,-167 25,20 37,30 56,59 17,24 26,47 40,70 46,75 119,49 125,31 6,-35 -138,-174 -167,-204 20,1 58,24 73,34 72,51 80,107 141,119 16,4 59,7 74,-23 -10,-26 -79,-84 -102,-101 -33,-26 -77,-50 -106,-76 47,-8 127,39 165,61 44,24 94,29 128,-8 14,-16 19,-28 -2,-39 -27,-15 -54,-29 -82,-42 -28,-13 -54,-23 -82,-35 -21,-9 -160,-54 -166,-59 16,-5 40,-3 58,-6 20,-3 42,-10 60,-25 44,-36 49,-117 26,-107 -2,1 -5,3 -8,4 -28,19 -57,28 -90,36 -38,9 -89,15 -126,16 -11,0 -25,0 -38,3 -72,-83 -155,-199 -235,-264 -58,-48 -193,-115 -243,-169 -94,-139 -276,-230 -393,-273 -187,-250 -390,-363 -670,-422 -49,-29 -82,-51 -122,-157 0,0 -27,-90 86,-227 0,-4 27,-139 23,-246l48 -62 -13 -44c0,0 -18,-205 -92,-269 1,19 -35,162 -66,-31 0,0 -1,-67 -51,-97 0,0 -10,97 -29,95 -35,-4 -46,-197 -100,-229 0,0 -2,163 -45,155 -27,-32 -22,-120 -45,-170 0,0 -50,161 -103,40 -50,83 -148,364 -140,128 -114,67 -131,517 -148,192 0,0 -82,153 -62,228l-28 45c0,0 63,84 78,96 -36,219 130,236 85,450 -42,73 -146,112 -186,135 -259,55 -420,162 -592,390 -117,43 -298,134 -392,273 -50,54 -185,121 -244,169 -86,70 -162,262 -272,260 -36,0 -87,-6 -125,-15 -33,-8 -62,-17 -90,-36 -2,-1 -5,-3 -7,-4 -23,-10 -19,71 25,106 18,15 40,22 60,26 18,3 42,0 57,5z"/>
    </clipPath>
    <clipPath id="id5">
     <path d="M1907 2359c23,148 34,179 34,179 48,165 97,497 85,787 0,58 14,241 12,287 111,81 431,63 601,63 177,0 487,19 609,-63 -2,-38 -12,-226 -12,-281 0,-59 56,-593 120,-790 35,-109 44,-181 60,-179 -259,-90 -237,-474 -150,-686 -84,-51 -119,6 -217,-68 -7,108 -35,527 -412,496 -236,-20 -312,-72 -444,-472 -56,25 -134,45 -205,74 165,613 -81,653 -81,653z"/>
    </clipPath>
     <clipPath id="id6">
     </clipPath>
     <clipPath id="id7">
      <path d="M1907 2359c23,148 34,179 34,179 48,165 97,497 85,787 0,58 14,241 12,287 111,81 431,63 601,63 177,0 487,19 609,-63 -2,-38 -12,-226 -12,-281 0,-59 56,-593 120,-790 35,-109 44,-181 60,-179 -259,-90 -237,-474 -150,-686 -84,-51 -119,6 -217,-68 -7,108 -35,527 -412,496 -236,-20 -312,-72 -444,-472 -56,25 -134,45 -205,74 165,613 -81,653 -81,653z"/>
     </clipPath>
 </defs>
 <g id="Layer_x0020_1">
  <metadata id="CorelCorpID_0Corel-Layer"/>
  <g id="_2400298387744">
   <g>
    <path class="fil0" d="M773 3390c-37,14 -78,22 -118,24 -80,4 -160,-12 -234,-41l-34 -14 31 -19c27,-17 55,-29 84,-40 62,-22 126,-35 189,-56 72,-26 132,-61 188,-115 87,-84 155,-191 225,-289 35,-48 71,-96 111,-140 100,-112 230,-204 365,-267 168,-77 361,-116 543,-76l11 3 3 10c23,74 28,159 27,236 -2,93 -15,188 -36,278 -29,128 -78,268 -154,375l-17 24 -41 -70c2,45 2,89 -8,132 -23,105 -98,181 -180,245 -20,16 -39,32 -58,48 -9,8 -18,16 -29,20 -9,3 -20,3 -29,3 -19,1 -37,2 -55,5l-25 3 4 -25c4,-28 7,-56 8,-84 2,-52 2,-104 3,-156 1,-23 2,-46 4,-69 -5,11 -9,21 -14,32 -17,43 -34,85 -53,127 -29,68 -65,141 -124,189 -93,76 -223,67 -334,46l-28 -6 16 -23c63,-88 120,-177 171,-272 32,-59 62,-120 91,-182 -35,52 -69,105 -106,155 -51,66 -111,130 -186,167 -123,60 -247,26 -359,-40l-25 -15 23 -16c52,-36 103,-68 150,-107z"/>
   </g>
   <path class="fil1" d="M902 3269c-92,136 -290,160 -474,86 139,-84 305,-58 464,-213 126,-122 215,-293 337,-430 207,-231 572,-408 890,-336 68,220 1,644 -161,873l-69 -116c21,182 22,291 -173,443 -113,89 -45,57 -162,71 21,-133 -3,-248 31,-431 -166,330 -150,572 -555,494 158,-220 205,-338 328,-590 -159,127 -296,645 -724,392 77,-53 207,-128 268,-243z"/>
   <g style="clip-path:url(#id0)">
    <g>
     <ellipse class="fil2" cx="1632" cy="2683" rx="677" ry="638"/>
     <ellipse class="fil3" cx="1739" cy="2623" rx="685" ry="651"/>
     <path class="fil4" d="M401 3346c255,152 678,-263 678,-263 0,0 -90,133 -203,225 -125,103 -323,233 -475,38z"/>
     <path class="fil4" d="M1550 3657c370,-136 294,-940 294,-940 0,0 62,209 63,408 1,221 -29,542 -357,532z"/>
     <path class="fil4" d="M1030 3710c430,-26 599,-869 599,-869 0,0 0,233 -60,436 -67,225 -198,544 -539,433z"/>
     <path class="fil4" d="M641 3518c421,91 789,-650 800,-640 10,11 -37,205 -164,368 -155,198 -329,497 -636,272z"/>
    </g>
   </g>
   <path class="fil5" d="M902 3269c-92,136 -290,160 -474,86 139,-84 305,-58 464,-213 126,-122 215,-293 337,-430 207,-231 572,-408 890,-336 68,220 1,644 -161,873l-69 -116c21,182 22,291 -173,443 -113,89 -45,57 -162,71 21,-133 -3,-248 31,-431 -166,330 -150,572 -555,494 158,-220 205,-338 328,-590 -159,127 -296,645 -724,392 77,-53 207,-128 268,-243z"/>
   <g>
    <path class="fil0" d="M4508 3390c47,39 99,71 150,107l24 16 -25 15c-112,66 -237,100 -359,40 -76,-37 -136,-101 -186,-167 -38,-50 -71,-103 -107,-155 30,62 60,123 92,182 50,95 107,184 170,272l17 23 -28 6c-111,21 -241,30 -334,-46 -59,-48 -95,-121 -125,-189 -18,-42 -35,-84 -53,-127 -4,-11 -9,-21 -13,-32 1,23 3,46 3,69 2,52 1,104 4,156 1,28 3,56 8,84l3 25 -24 -3c-19,-3 -37,-4 -55,-5 -10,0 -20,0 -29,-3 -11,-4 -21,-12 -29,-20 -20,-16 -39,-32 -58,-48 -83,-64 -157,-140 -181,-245 -9,-43 -10,-87 -7,-132l-42 70 -16 -24c-76,-107 -126,-247 -155,-375 -20,-90 -33,-185 -35,-278 -2,-77 4,-162 26,-236l4 -10 10 -3c183,-40 376,-1 543,76 136,63 265,155 365,267 40,44 76,92 111,140 71,98 139,205 226,289 55,54 115,89 188,115 62,21 127,34 189,56 29,11 57,23 83,40l32 19 -35 14c-73,29 -154,45 -233,41 -41,-2 -81,-10 -119,-24z"/>
   </g>
   <path class="fil1" d="M4380 3269c92,136 289,160 474,86 -139,-84 -305,-58 -464,-213 -126,-122 -215,-293 -337,-430 -207,-231 -573,-408 -891,-336 -67,220 0,644 161,873l69 -116c-21,182 -21,291 173,443 114,89 46,57 162,71 -20,-133 3,-248 -31,-431 166,330 150,572 556,494 -158,-220 -205,-338 -328,-590 159,127 295,645 724,392 -77,-53 -208,-128 -268,-243z"/>
   <g style="clip-path:url(#id1)">
    <g>
     <ellipse class="fil2" cx="3649" cy="2683" rx="677" ry="638"/>
     <ellipse class="fil3" cx="3543" cy="2623" rx="685" ry="651"/>
     <path class="fil4" d="M4880 3346c-255,152 -678,-263 -678,-263 0,0 90,133 203,225 126,103 324,233 475,38z"/>
     <path class="fil4" d="M3732 3657c-370,-136 -294,-940 -294,-940 0,0 -62,209 -63,408 -2,221 29,542 357,532z"/>
     <path class="fil4" d="M4252 3710c-430,-26 -599,-869 -599,-869 0,0 0,233 60,436 67,225 198,544 539,433z"/>
     <path class="fil4" d="M4641 3518c-421,91 -790,-650 -800,-640 -10,11 37,205 164,368 154,198 329,497 636,272z"/>
    </g>
   </g>
   <path class="fil5" d="M4380 3269c92,136 289,160 474,86 -139,-84 -305,-58 -464,-213 -126,-122 -215,-293 -337,-430 -207,-231 -573,-408 -891,-336 -67,220 0,644 161,873l69 -116c-21,182 -21,291 173,443 114,89 46,57 162,71 -20,-133 3,-248 -31,-431 166,330 150,572 556,494 -158,-220 -205,-338 -328,-590 159,127 295,645 724,392 -77,-53 -208,-128 -268,-243z"/>
   <g>
    <path class="fil6" d="M2472 386c10,-6 31,-28 38,-36 23,-26 45,-55 61,-86 41,-78 50,-161 -3,-236l-20 -28 34 6c16,2 30,3 46,8 25,8 45,24 64,42 32,32 60,74 84,113 38,62 71,129 102,195 10,-18 24,-34 42,-40l14 -5 4 15c13,48 66,219 111,257 13,-20 27,-76 31,-90l13 -53 15 53c72,264 100,499 -52,742l-5 7 -8 0c-103,-8 -67,-154 -42,-219 -6,-10 -10,-21 -12,-33 -3,-19 2,-40 9,-58 7,-17 17,-33 27,-48 2,-3 3,-5 5,-7 -32,-1 -65,7 -84,36 -8,12 -15,32 -14,48l0 26 -22 -14c-40,-24 -51,-63 -40,-107 2,-11 7,-23 12,-35 -27,6 -53,18 -70,40 -8,10 -16,26 -17,38l-1 13 -26 1 -1 -13c-5,-40 -22,-76 -60,-94 -12,-5 -26,-8 -39,-9 -2,-1 -5,-1 -8,-1 7,28 1,56 -9,82 -7,16 -16,34 -27,48l-23 31 -2 -39c-2,-37 -19,-65 -53,-80 -11,-4 -24,-8 -37,-10 2,28 0,57 -10,83 -4,11 -11,26 -18,35l-7 7 -9 -3c-42,-15 -70,-47 -85,-89 -3,-9 -6,-20 -8,-31 -16,32 -4,94 3,123 11,45 29,95 48,138l16 36 -35 -17c0,0 0,0 -1,0 -5,0 -17,14 -19,18 -12,16 -23,35 -32,53 -10,19 -20,39 -32,58 -7,12 -20,32 -36,34l-8 0 -5 -6c-78,-104 -111,-250 -120,-378 -12,-158 10,-324 61,-473l27 -82 1 86c0,24 6,55 17,76 8,16 19,29 35,34 19,-106 77,-199 139,-285l43 -59 -17 71c-5,19 -8,41 -8,61 0,16 0,50 23,50z"/>
   </g>
   <path class="fil7" d="M2283 1276c-135,-178 -161,-529 -57,-838 0,0 0,121 78,127 16,-117 84,-219 139,-294 0,0 -33,135 32,129 21,-8 230,-203 105,-380 53,9 118,-13 300,380 0,0 12,-52 44,-63 0,0 66,244 128,273 0,0 17,-7 42,-106 76,278 95,500 -50,731 -108,-8 -26,-207 -26,-207 -51,-58 40,-151 38,-155 -142,-19 -139,96 -139,96 -78,-48 -8,-148 -8,-148 -121,9 -128,95 -128,95 -16,-129 -133,-119 -140,-113 27,59 -28,132 -28,132 -5,-107 -120,-104 -120,-104 11,84 -23,123 -23,123 -87,-31 -87,-137 -87,-137 -88,43 27,298 27,298 -42,-19 -98,159 -127,161z"/>
   <g>
    <g style="clip-path:url(#id2)">
     <image x="0" y="163" width="5307" height="3617" xlink:href="ray_Images\ray_ImgID1.png"/>
    </g>
   </g>
   <g>
    <path class="fil8" d="M457 3164c-13,9 -27,15 -43,19 -35,7 -79,1 -96,-34l-3 -8 3 -8c12,-31 80,-87 107,-109 4,-3 9,-6 13,-9 -20,10 -38,20 -50,27 -49,28 -110,34 -151,-12 -22,-24 -26,-52 7,-69 28,-15 55,-29 83,-42 27,-12 54,-23 82,-35 10,-4 21,-8 32,-11 16,-6 33,-12 50,-18 3,-1 6,-2 9,-3 -18,-5 -34,-13 -48,-24 -23,-19 -37,-47 -44,-75 -4,-20 -7,-57 18,-66 7,-2 14,-2 20,1 4,2 7,4 10,6 27,17 54,25 84,33 37,9 83,15 121,15 5,0 9,0 14,-1 56,-10 109,-85 140,-128 30,-42 65,-95 105,-127 18,-15 37,-27 57,-40 22,-14 45,-28 67,-42 23,-14 47,-29 69,-45 16,-11 35,-25 48,-40 88,-128 253,-223 396,-276 165,-219 327,-334 597,-392 18,-10 38,-19 56,-29 24,-13 48,-27 70,-44 19,-14 36,-31 49,-52 7,-37 9,-75 1,-112 -7,-30 -20,-57 -34,-84 -18,-34 -36,-65 -47,-102 -13,-46 -15,-91 -8,-137 -4,-4 -7,-8 -10,-12 -8,-10 -16,-19 -24,-29 -13,-17 -26,-34 -38,-51l-8 -10 30 -50c-11,-67 36,-177 65,-233l33 -63 4 71c1,12 1,24 2,37 8,-32 17,-64 27,-95 16,-48 44,-123 90,-150l31 -18 -1 35c-1,10 -2,42 1,62 17,-25 44,-83 51,-98 16,-33 32,-71 52,-102l19 -32 15 34c2,5 17,34 24,33 8,0 19,-19 23,-25 7,-14 15,-31 19,-46l15 -48 22 46c11,23 15,52 19,77 3,17 7,51 15,73 6,-15 11,-42 12,-50 4,-25 6,-52 6,-78l1 -34 29 18c34,21 52,84 62,121 3,13 16,66 26,93 6,-21 10,-54 11,-64l3 -31 26 16c27,15 45,41 54,70 4,12 7,28 8,41 2,13 9,52 16,73 6,-13 10,-32 10,-39l-4 -48 36 32c63,54 92,199 99,280l16 52 -50 64c0,18 0,36 -1,54 -2,42 -6,84 -12,125 -2,14 -5,29 -7,43 -1,7 -3,13 -3,19l0 6 -5 6c-36,44 -71,98 -81,155 -3,14 -6,39 -2,53 19,48 40,96 83,127 9,6 19,12 28,17 293,63 493,184 676,425 143,53 308,148 395,276 14,15 32,29 48,40 23,16 46,31 69,45 23,14 45,28 68,42 19,13 38,25 56,40 50,41 96,95 137,146 31,37 61,75 92,112 11,-1 21,-2 31,-2 38,0 84,-6 122,-15 30,-7 58,-16 84,-33 3,-2 7,-4 10,-6 7,-3 14,-3 21,-1 24,9 22,46 17,67 -6,28 -21,56 -44,74 -14,12 -31,20 -48,25 3,1 6,2 9,3 17,6 34,12 51,18 10,3 22,7 32,11 28,12 55,23 82,35 29,13 56,28 83,42 34,18 30,45 7,70 -41,46 -102,40 -151,12 -13,-7 -32,-18 -52,-28 5,3 10,7 14,10 28,22 96,79 108,109l3 8 -3 8c-17,36 -62,41 -96,34 -17,-3 -31,-9 -44,-19 10,15 23,37 21,54l-1 2 0 2c-9,24 -44,33 -67,32 -27,-1 -51,-12 -69,-29l0 3 -7 8c-20,20 -49,20 -74,9 -10,-5 -20,-12 -27,-22 -16,-18 -23,-44 -30,-67 -8,-24 -17,-46 -34,-66 -13,-15 -28,-26 -41,-40 -20,-19 -33,-38 -42,-65 -4,-10 -6,-21 -7,-33 -118,-50 -239,-101 -348,-168 -103,-64 -188,-141 -267,-232 -71,-16 -140,-39 -206,-69 -45,-20 -93,-44 -133,-73 -42,-31 -90,-42 -140,-51 -8,83 -25,158 -50,237 -13,45 -28,89 -41,133 -16,52 -29,104 -40,157 -32,164 -39,335 -37,502l1 16 -551 110 0 9 -21 -5 -22 5 0 -9 -531 -110 0 -16c2,-163 -7,-327 -43,-486 -12,-54 -28,-107 -45,-160 -15,-46 -31,-92 -47,-139 -26,-81 -45,-158 -54,-242 -42,7 -77,21 -115,49 -39,28 -88,53 -132,72 -66,30 -136,54 -206,70 -81,92 -167,172 -269,240 -109,71 -230,125 -349,177 -1,5 -3,10 -4,15 -9,26 -22,45 -42,65 -14,13 -28,24 -41,39 -17,20 -26,41 -34,66 -7,23 -14,48 -29,67 -8,9 -17,16 -28,21 -24,11 -54,11 -73,-9l-8 -8 1 -3c-19,17 -42,28 -69,29 -22,1 -58,-8 -66,-32l-1 -2 0 -2c-3,-15 8,-35 20,-53z"/>
   </g>
   <g style="clip-path:url(#id3)">
    <polygon class="fil9" points="239,355 5074,355 5074,3501 239,3501 "/>
   </g>
   <g style="clip-path:url(#id4)">
    <g>
     <g>
      <path id="1" class="fil10" d="M2045 1701c0,0 -151,115 -245,178 -94,64 -151,207 -151,207 0,0 -141,80 -233,117 -91,37 -90,114 -169,180 -79,67 -200,119 -282,189 -82,69 -101,185 -243,229 -142,43 -278,-40 -278,-40l-182 -553 1573 -789 210 282z"/>
      <path class="fil10" d="M6 2816c36,95 207,174 304,174 79,-1 222,-60 274,-151 -200,77 -365,71 -578,-23z"/>
      <path class="fil10" d="M-22 3041c52,86 232,134 326,117 78,-14 206,-96 242,-194 -183,109 -344,131 -568,77z"/>
      <path class="fil10" d="M107 3258c77,64 263,52 347,5 69,-38 164,-158 165,-262 -137,163 -282,236 -512,257z"/>
      <path class="fil10" d="M379 3298c61,32 183,-6 231,-50 40,-36 85,-130 70,-200 -66,130 -152,201 -301,250z"/>
      <path class="fil11" d="M806 2950c146,14 425,-102 532,-191 46,-127 119,-289 135,-326 -136,222 -326,369 -667,517z"/>
      <path class="fil11" d="M1453 2524c94,16 282,-46 356,-99 36,-81 91,-183 104,-206 -100,138 -230,225 -460,305z"/>
     </g>
     <path class="fil10" d="M3257 1707c0,0 151,115 245,179 94,64 152,207 152,207 0,0 141,79 232,116 92,37 91,114 170,181 79,66 200,119 282,188 82,70 101,186 243,229 141,44 277,-39 277,-39l183 -553 -1573 -790 -211 282z"/>
     <path class="fil12" d="M5303 2819c-36,95 -207,175 -304,174 -79,0 -222,-60 -274,-151 200,77 365,71 578,-23z"/>
     <path class="fil12" d="M5341 3047c-52,86 -232,135 -326,118 -78,-14 -206,-96 -242,-195 183,110 344,132 568,77z"/>
     <path class="fil12" d="M5199 3264c-77,65 -263,52 -347,5 -69,-38 -164,-157 -166,-262 138,163 283,237 513,257z"/>
     <path class="fil12" d="M4934 3305c-61,31 -183,-6 -232,-50 -40,-36 -84,-131 -69,-200 66,129 151,201 301,250z"/>
     <path class="fil13" d="M4497 2956c-146,15 -425,-102 -533,-191 -45,-126 -118,-288 -134,-325 136,221 325,369 667,516z"/>
     <path class="fil13" d="M3850 2531c-95,16 -283,-47 -357,-100 -35,-80 -91,-182 -103,-206 99,138 230,225 460,306z"/>
     <path class="fil12" d="M2810 1655c-25,51 -124,86 -178,81 -44,-4 -121,-44 -146,-97 109,52 201,57 324,16z"/>
     <path class="fil14" d="M2665 355c0,0 -25,207 13,224 38,16 64,-96 64,-96l-77 -128z"/>
     <path class="fil15" d="M2422 523c0,0 -22,91 -9,112 13,21 51,-9 60,-29 8,-19 40,-112 40,-112l-91 29z"/>
     <path class="fil15" d="M2553 410c9,17 35,31 49,30 13,-2 29,-16 29,-16l-72 -35 -6 21z"/>
     <path class="fil14" d="M2804 465c0,0 4,190 31,191 27,0 54,-125 49,-152 -6,-26 -80,-39 -80,-39z"/>
     <polygon class="fil14" points="2944,1133 3106,945 3111,1081 "/>
     <path class="fil14" d="M2971 701c0,0 29,7 39,-9 10,-15 -9,-60 -9,-60l-30 -5 0 74z"/>
     <polygon class="fil15" points="2246,773 2286,830 2307,660 2227,702 "/>
     <path class="fil15" d="M2184 988c0,0 86,20 103,43 16,23 37,94 37,94l-62 -41 -124 -15 46 -81z"/>
     <path class="fil4" d="M2381 1367c-4,2 -8,4 -12,5 -32,8 -84,-6 -106,-25 -21,-18 -45,-64 -39,-100 36,64 80,99 157,120z"/>
     <path class="fil10" d="M2951 1364l1 0c-2,2 -42,51 -43,101 -2,51 30,121 52,134 23,14 94,52 126,61 32,9 120,-238 120,-238l-73 -150 -142 72c15,-14 28,-31 32,-45 7,-21 4,-65 -15,-87 2,60 -14,104 -58,152z"/>
     <path class="fil5" d="M2381 1367c103,58 36,167 59,206 23,38 -42,-37 -35,-56 7,-19 9,-72 -1,-84 -9,-13 -40,-54 -69,-59 -28,-6 -68,-24 -68,-24l114 17z"/>
     <path class="fil11" d="M2329 1364l-1 0c2,2 42,51 44,101 1,51 -31,121 -53,134 -22,14 -93,52 -125,61 -33,9 -121,-238 -121,-238l74 -150 142 72c-16,-14 -28,-31 -33,-45 -7,-21 -4,-65 16,-87 -3,60 13,104 57,152z"/>
    </g>
   </g>
   <path class="fil5" d="M581 2843c-5,5 -143,50 -165,59 -27,12 -53,22 -81,35 -28,12 -54,27 -81,41 -21,11 -17,24 -2,39 33,37 83,32 126,8 39,-21 118,-68 165,-61 -29,26 -73,50 -106,76 -22,17 -91,74 -101,100 14,30 57,27 74,24 61,-13 68,-68 140,-119 15,-10 52,-33 72,-34 -18,19 -84,83 -127,135 -24,30 -41,56 -39,68 7,18 79,44 125,-30 14,-23 23,-46 39,-70 20,-29 31,-39 57,-59 -4,20 -63,88 -83,166 14,16 37,11 51,5 50,-23 34,-91 84,-149 31,-35 61,-47 79,-98 3,-7 5,-14 5,-21 272,-118 433,-200 625,-422 158,-35 287,-103 338,-140 51,-37 94,-49 144,-56 28,339 197,428 191,1050l531 110 0 1 2 -1 1 1 0 -1 551 -110c-9,-659 144,-715 169,-1051 54,8 116,18 169,57 54,39 180,105 338,140 191,221 355,290 626,406 -2,13 -1,26 4,39 18,51 49,63 79,98 51,58 35,127 86,150 13,6 36,11 51,-5 -20,-78 -80,-147 -83,-167 25,20 37,30 56,59 17,24 26,47 40,70 46,75 119,49 125,31 6,-35 -138,-174 -167,-204 20,1 58,24 73,34 72,51 80,107 141,119 16,4 59,7 74,-23 -10,-26 -79,-84 -102,-101 -33,-26 -77,-50 -106,-76 47,-8 127,39 165,61 44,24 94,29 128,-8 14,-16 19,-28 -2,-39 -27,-15 -54,-29 -82,-42 -28,-13 -54,-23 -82,-35 -21,-9 -160,-54 -166,-59 16,-5 40,-3 58,-6 20,-3 42,-10 60,-25 44,-36 49,-117 26,-107 -2,1 -5,3 -8,4 -28,19 -57,28 -90,36 -38,9 -89,15 -126,16 -11,0 -25,0 -38,3 -72,-83 -155,-199 -235,-264 -58,-48 -193,-115 -243,-169 -94,-139 -276,-230 -393,-273 -187,-250 -390,-363 -670,-422 -49,-29 -82,-51 -122,-157 0,0 -27,-90 86,-227 0,-4 27,-139 23,-246l48 -62 -13 -44c0,0 -18,-205 -92,-269 1,19 -35,162 -66,-31 0,0 -1,-67 -51,-97 0,0 -10,97 -29,95 -35,-4 -46,-197 -100,-229 0,0 -2,163 -45,155 -27,-32 -22,-120 -45,-170 0,0 -50,161 -103,40 -50,83 -148,364 -140,128 -114,67 -131,517 -148,192 0,0 -82,153 -62,228l-28 45c0,0 63,84 78,96 -36,219 130,236 85,450 -42,73 -146,112 -186,135 -259,55 -420,162 -592,390 -117,43 -298,134 -392,273 -50,54 -185,121 -244,169 -86,70 -162,262 -272,260 -36,0 -87,-6 -125,-15 -33,-8 -62,-17 -90,-36 -2,-1 -5,-3 -7,-4 -23,-10 -19,71 25,106 18,15 40,22 60,26 18,3 42,0 57,5z"/>
   <path class="fil16" d="M1925 2543c-4,-9 -8,-30 -9,-37 -10,-48 -18,-96 -25,-145l-3 -16 16 -3c10,-1 23,-8 31,-13 27,-18 47,-45 60,-74 69,-147 17,-397 -23,-545l-4 -14 14 -6c11,-4 21,-8 32,-12 31,-12 62,-22 93,-32 26,-9 53,-18 79,-29l17 -8 6 18c18,56 38,111 59,165 17,41 35,81 56,119 29,52 65,100 118,130 58,32 131,41 196,46 152,12 262,-50 328,-186 44,-92 59,-194 66,-294l3 -31 24 19c79,59 140,21 228,74 -82,199 -126,587 135,677l14 5c-8,34 -19,34 -30,77 -11,40 -22,79 -34,118 -16,50 -28,104 -37,155 -13,66 -24,133 -34,199 -13,92 -25,185 -34,277 -4,34 -7,67 -10,101 -2,17 -4,36 -4,53 0,45 3,91 5,136 2,48 5,96 6,144l1 10 -8 5c-85,57 -250,65 -351,67 -89,2 -178,-1 -267,-1 -89,0 -178,3 -267,0 -95,-2 -265,-9 -344,-67l-7 -5 0 -9c1,-19 0,-39 -1,-58 -1,-29 -3,-58 -5,-87 -2,-47 -6,-95 -6,-141l0 0 0 -1c3,-60 2,-122 0,-183 -4,-113 -15,-227 -31,-339 -13,-86 -29,-175 -53,-259z"/>
   <path class="fil17" d="M1907 2359c23,148 34,179 34,179 48,165 97,497 85,787 0,58 14,241 12,287 111,81 431,63 601,63 177,0 487,19 609,-63 -2,-38 -12,-226 -12,-281 0,-59 56,-593 120,-790 35,-109 44,-181 60,-179 -259,-90 -237,-474 -150,-686 -84,-51 -119,6 -217,-68 -7,108 -35,527 -412,496 -236,-20 -312,-72 -444,-472 -56,25 -134,45 -205,74 165,613 -81,653 -81,653z"/>
   <g style="clip-path:url(#id5)">
    <g>
     <rect class="fil18" transform="matrix(0.557279 0.335729 -0.335729 0.557279 1314.26 2469.55)" width="813" height="129"/>
     <rect class="fil18" transform="matrix(-0.557279 0.335729 0.335729 0.557279 3954.66 2457.88)" width="813" height="129"/>
    </g>
    <g style="clip-path:url(#id6)">
     <image x="-5769" y="875" width="5060" height="3913" xlink:href="ray_Images\ray_ImgID2.png"/>
    </g>
    <g style="clip-path:url(#id7)">
    </g>
   </g>
   <path class="fil5" d="M1907 2359c23,148 34,179 34,179 48,165 97,497 85,787 0,58 14,241 12,287 111,81 431,63 601,63 177,0 487,19 609,-63 -2,-38 -12,-226 -12,-281 0,-59 56,-593 120,-790 35,-109 44,-181 60,-179 -259,-90 -237,-474 -150,-686 -84,-51 -119,6 -217,-68 -7,108 -35,527 -412,496 -236,-20 -312,-72 -444,-472 -56,25 -134,45 -205,74 165,613 -81,653 -81,653z"/>
   <path class="fil8" d="M2303 1173c14,-6 29,-10 42,-10 35,2 77,6 112,6 -5,8 -21,15 -33,18 -13,4 -28,6 -39,10 26,7 67,-1 88,-13 14,-8 20,-13 30,-23 16,-16 11,-11 24,-27 32,-39 61,-99 111,-99 69,0 99,117 165,150 25,12 58,18 88,13 -15,-7 -56,-9 -72,-29 34,0 74,-4 109,-6 7,-5 16,-7 25,-4l1 1 7 -1 9 -5c3,-1 5,-2 8,-3l8 -4c-20,-6 -45,-11 -65,-11 3,-5 12,-10 17,-16 37,-46 23,-134 12,-186 10,3 13,7 20,12 23,18 30,42 39,57 2,-51 -38,-113 -82,-117 -6,9 -14,15 -20,23 -3,4 -2,3 -5,6l-122 144c-15,14 -8,20 -41,4 -25,-12 -42,-28 -58,-49 -25,-33 -35,-105 -43,-148 -4,10 -11,55 -14,70 -6,26 -12,58 -29,78 -3,3 -3,3 -5,6 -21,26 -45,47 -83,52l-119 -140c-3,-4 -6,-8 -10,-12 -7,-9 -23,-24 -29,-34 -29,4 -48,24 -59,42 -12,19 -25,48 -24,76 10,-19 11,-27 24,-41 11,-12 19,-24 36,-29 -10,52 -22,115 0,167 9,20 15,22 28,35 -28,1 -62,14 -86,25l-5 3c1,1 5,-4 7,-4 2,1 3,-1 5,0 1,1 3,1 4,2 1,1 2,1 3,2 2,0 4,1 5,2 1,0 2,1 3,1 4,1 7,2 11,5 1,0 1,1 2,1zm66 -219l21 25c28,35 19,18 15,42 -3,19 -1,37 9,53 23,37 50,4 54,2 3,6 9,12 13,17 -13,37 -58,37 -84,11 -24,-25 -29,-70 -30,-110l2 -40zm501 65c-2,-11 -7,-12 0,-20l33 -42c2,-3 1,-2 3,-3l2 29c4,156 -82,155 -107,122 -13,-17 0,-15 7,-29 5,2 25,29 48,5 13,-14 16,-32 15,-56 0,0 -1,-6 -1,-6z"/>
   <path class="fil19" d="M2870 1019c0,0 1,6 1,6 1,24 -2,42 -15,56 -23,24 -43,-3 -48,-5 -7,14 -20,12 -7,29 25,33 111,34 107,-122l-2 -29c-2,1 -1,1 -3,3l-33 42c-7,8 -2,9 0,20z"/>
   <path class="fil19" d="M2367 994c1,40 6,85 30,110 26,26 71,26 84,-11 -4,-5 -10,-11 -13,-17 -4,2 -31,35 -54,-2 -10,-16 -12,-34 -9,-53 4,-24 13,-7 -15,-42l-21 -25 -2 40z"/>
   <path class="fil8" d="M2808 1400l-6 12c-5,10 -10,20 -14,30 -10,21 -19,42 -30,62 -9,16 -18,31 -27,46 -10,15 -20,30 -29,44 -14,20 -28,37 -42,56l-19 24 -22 -22c-19,-18 -37,-45 -52,-67 -15,-23 -31,-47 -44,-71 -17,-32 -32,-65 -48,-98l-8 -16c0,0 -1,-1 -1,-1 -5,-9 -10,-19 -16,-29l-47 -12c-16,-4 -42,-24 -55,-35l-55 -50c-4,-4 -7,-7 -10,-11 -3,-2 -6,-4 -9,-7l0 0 -18 -18c-5,-4 -10,-10 -16,-13 0,0 -23,-24 23,-60 26,-14 53,-29 83,-28 37,2 74,6 110,6l28 -1c4,-3 8,-7 11,-11 4,-4 8,-9 11,-14 36,-43 67,-108 133,-108 9,0 17,1 26,4 42,14 70,57 94,91 9,12 20,26 32,38l28 1c37,0 74,-4 110,-6 20,-1 39,4 57,11 10,4 19,12 27,17l14 7 16 9c8,5 16,11 24,16 1,9 -3,11 -26,20 0,1 -1,1 -1,2l-7 8c-6,5 -11,10 -18,16 -1,0 -1,1 -2,2 -4,4 -7,8 -12,12 -6,5 -11,10 -17,16l0 0 -29 25c-21,20 -55,54 -83,61l-47 12c-2,2 -3,4 -4,6 -5,8 -9,16 -13,24z"/>
   <path class="fil20" d="M2689 1095c10,-2 15,5 23,15 6,8 11,13 16,22 62,91 -15,39 -23,24 -10,-19 0,-60 -20,-50 1,-6 3,-8 4,-11zm-108 11c-3,6 -6,34 -9,45 -3,13 -50,48 -48,25 1,-11 20,-40 25,-47 10,-14 24,-36 37,-34 3,3 3,5 4,11 -3,-2 -6,-2 -9,0zm-321 90c4,3 7,2 11,3 21,1 46,6 65,12 51,17 72,41 108,71 16,14 28,29 44,45 4,-11 9,-30 13,-42 9,-25 23,-52 38,-72 7,-8 19,-24 28,-28 16,-17 45,-44 71,-43 20,0 45,17 58,29l13 14c5,3 11,8 15,13 33,37 51,79 64,129l21 -23c36,-37 81,-77 131,-93 42,-14 58,-10 71,-13 6,-1 1,1 4,-2 -12,-6 -22,-14 -37,-20 -13,-5 -33,-13 -47,-13 -36,2 -77,6 -112,6 16,20 57,22 72,29 -30,5 -63,-1 -88,-13 -66,-33 -96,-150 -165,-150 -50,0 -79,60 -111,99 -13,16 -8,11 -24,27 -10,10 -16,15 -30,23 -21,12 -62,20 -88,13 11,-4 26,-6 39,-10 12,-3 28,-10 33,-18 -35,0 -77,-4 -112,-6 -28,-1 -62,21 -85,33z"/>
   <path class="fil3" d="M2260 1196l-5 5c6,4 13,11 19,16l19 18c3,3 6,5 9,8 4,4 5,6 9,10l56 50c8,8 33,26 43,29 -6,-14 -51,-69 -67,-82l-49 -40c36,7 94,45 123,71 56,50 97,159 130,220 16,30 66,107 91,132 16,-20 26,-31 41,-54 26,-38 32,-47 55,-88 20,-35 36,-82 64,-129 14,-24 31,-49 49,-70 30,-32 96,-74 135,-82 -24,19 -43,33 -64,55 -12,11 -46,54 -52,67 20,-5 54,-39 71,-55l29 -25c7,-7 6,-8 18,-17 5,-4 4,-5 9,-9 7,-9 16,-13 27,-27l-5 -3c-3,3 2,1 -4,2 -13,3 -29,-1 -71,13 -50,16 -95,56 -131,93l-21 23c-13,-50 -31,-92 -64,-129 -4,-5 -10,-10 -15,-13 1,5 4,7 7,11l18 33c7,13 15,36 19,50 -10,-15 -40,-69 -53,-77 7,11 14,27 20,39 7,14 13,30 17,45 14,62 -11,141 -41,194 -15,27 -22,32 -40,51 -2,2 -13,11 -18,13 -16,-6 -37,-33 -47,-46 -25,-35 -46,-91 -53,-135 -7,-42 1,-97 23,-134 3,-4 13,-22 12,-24l-27 36c-8,12 -16,26 -23,39 4,-17 12,-37 18,-51 11,-22 22,-36 26,-44 -9,4 -21,20 -28,28 -15,20 -29,47 -38,72 -4,12 -9,31 -13,42 -16,-16 -28,-31 -44,-45 -36,-30 -57,-54 -108,-71 -19,-6 -44,-11 -65,-12 -4,-1 -7,0 -11,-3z"/>
   <path class="fil20" d="M2639 1413c-27,-9 -87,-144 -25,-208 3,-2 19,-16 24,-15 13,0 33,25 41,41 25,52 -1,149 -40,182zm-66 -208c1,2 -9,20 -12,24 -22,37 -30,92 -23,134 7,44 28,100 53,135 10,13 31,40 47,46 5,-2 16,-11 18,-13 18,-19 25,-24 40,-51 30,-53 55,-132 41,-194 -4,-15 -10,-31 -17,-45 -6,-12 -13,-28 -20,-39 -4,-12 -40,-35 -64,-33 -14,1 -28,6 -38,12 -11,7 -17,14 -25,24z"/>
   <path class="fil21" d="M2639 1413c39,-33 65,-130 40,-182 -8,-16 -28,-41 -41,-41 -5,-1 -21,13 -24,15 -62,64 -2,199 25,208z"/>
   <path class="fil22" d="M2567 1185c-4,8 -15,22 -26,44 -6,14 -14,34 -18,51 7,-13 15,-27 23,-39l27 -36c8,-10 14,-17 25,-24 10,-6 24,-11 38,-12 24,-2 60,21 64,33 13,8 43,62 53,77 -4,-14 -12,-37 -19,-50l-18 -33c-3,-4 -6,-6 -7,-11l-13 -14c-13,-12 -38,-29 -58,-29 -26,-1 -55,26 -71,43z"/>
   <path class="fil22" d="M2685 1106c20,-10 10,31 20,50 8,15 85,67 23,-24 -5,-9 -10,-14 -16,-22 -8,-10 -13,-17 -23,-15 -1,3 -3,5 -4,11z"/>
   <path class="fil22" d="M2581 1106c3,-2 6,-2 9,0 -1,-6 -1,-8 -4,-11 -13,-2 -27,20 -37,34 -5,7 -24,36 -25,47 -2,23 45,-12 48,-25 3,-11 6,-39 9,-45z"/>
   <g>
    <g>
     <path class="fil23" d="M2753 2630l-36 64c-13,-6 -76,-34 -93,-41 -11,-5 -20,-9 -29,-13l32 -81c5,-1 78,44 126,71z"/>
     <polygon class="fil24" points="2759,2574 2766,2613 2760,2616 2862,2629 2878,2627 "/>
     <polygon class="fil23" points="2556,2913 2270,2777 2609,2839 "/>
     <path class="fil25" d="M2742 2463c31,0 57,-26 57,-57 0,-31 -26,-57 -57,-57 -32,0 -57,26 -57,57 0,31 25,57 57,57z"/>
     <polygon class="fil26" points="2753,2630 2543,2523 2569,2475 2850,2493 2816,2542 "/>
     <path class="fil25" d="M2791 2728c-4,6 -34,56 -39,59l-192 -36c1,-9 31,-105 36,-113 2,5 -3,1 5,5l23 10c56,25 112,49 167,75z"/>
     <polygon class="fil26" points="2659,2768 2556,2913 2498,2886 2560,2751 "/>
     <polygon class="fil23" points="2891,3031 2707,2779 2791,2728 "/>
     <polygon class="fil25" points="2781,2592 2850,2493 3004,2539 "/>
     <polygon class="fil27" points="3004,2539 2915,2512 2902,2316 "/>
     <polygon class="fil28" points="2766,2613 2596,2659 2878,2627 "/>
     <polygon class="fil24" points="2543,2611 2596,2659 2766,2613 "/>
     <polygon class="fil29" points="2543,2611 2407,2548 2367,2536 2596,2659 "/>
     <polygon class="fil30" points="2367,2536 2358,2491 2407,2548 "/>
     <polygon class="fil25" points="2447,2720 2484,2468 2569,2475 "/>
    </g>
    <g>
     <path class="fil31" d="M2402 3015c-5,0 -10,-1 -16,-2 -6,-1 -10,-3 -14,-5l8 -18c2,1 6,2 10,4 4,1 8,1 11,1 3,0 6,0 8,-2 2,-1 3,-3 3,-5 0,-1 0,-2 -2,-3 -1,-1 -4,-3 -7,-5l-4 -2c-6,-3 -11,-6 -14,-9 -4,-2 -7,-5 -9,-9 -3,-3 -4,-8 -4,-12 0,-5 1,-10 4,-14 3,-3 7,-7 12,-9 5,-2 10,-3 17,-3 5,0 9,1 14,2 5,1 9,3 12,5l-7 17c-4,-2 -8,-3 -10,-4 -3,0 -6,0 -9,0 -2,0 -4,0 -6,1 -2,2 -3,3 -3,5 0,1 1,2 3,3 1,1 3,3 6,4l5 3c6,3 10,6 14,9 4,3 7,6 9,9 3,4 4,8 4,13 0,5 -1,9 -4,13 -3,4 -7,7 -13,10 -5,2 -11,3 -18,3z"/>
     <polygon id="1" class="fil31" points="2474,2986 2474,3013 2450,3013 2450,2924 2474,2924 2474,2955 2510,2922 2529,2935 2499,2964 2535,3013 2504,3013 2481,2980 "/>
     <path id="2" class="fil31" d="M2547 3013l0 -89 37 0c11,0 20,2 27,7 7,5 10,13 10,23 0,6 -1,10 -3,14 -2,4 -5,7 -9,10l20 35 -28 0 -14 -28 -16 0 0 28 -24 0zm50 -59c0,-4 -2,-7 -4,-8 -2,-2 -5,-3 -9,-3l-13 0 0 23 13 0c4,0 7,-1 9,-3 2,-2 4,-5 4,-9z"/>
     <polygon id="3" class="fil31" points="2704,2995 2707,3013 2641,3013 2641,2924 2704,2924 2707,2943 2665,2943 2665,2959 2692,2959 2695,2978 2665,2978 2665,2995 "/>
     <path id="4" class="fil31" d="M2711 3013l33 -89 24 0 34 88 -24 3 -6 -19 -31 0 -7 17 -23 0zm36 -36l18 0 -9 -25 -9 25z"/>
     <polygon id="5" class="fil31" points="2874,2970 2862,2986 2852,2988 2838,2970 2838,3013 2814,3013 2814,2924 2830,2924 2857,2958 2882,2924 2898,2924 2898,3013 2874,3013 "/>
     <polygon class="fil31" points="2391,2889 2391,2901 2384,2901 2384,2861 2391,2861 2391,2878 2409,2860 2415,2864 2401,2879 2417,2901 2408,2901 2395,2884 "/>
     <path id="1" class="fil31" d="M2418 2902c2,-1 3,-1 4,-2 0,0 1,-1 1,-1 0,-1 0,-2 0,-3l0 -35 8 0 0 36c0,2 0,4 -1,5 0,1 -1,2 -3,3 -1,1 -3,2 -5,2l-4 -5z"/>
     <path id="2" class="fil31" d="M2450 2902c-1,0 -3,0 -6,-1 -2,-1 -4,-2 -6,-2l2 -7c1,1 3,2 5,2 2,1 4,1 5,1 3,0 4,0 6,-1 1,-1 1,-2 1,-3 0,-1 0,-2 -1,-3 -1,-1 -3,-2 -5,-3l-1 -1c-3,-1 -5,-3 -7,-4 -1,-1 -3,-3 -4,-4 -1,-2 -1,-3 -1,-5 0,-2 0,-4 1,-6 1,-2 3,-3 5,-4 2,-1 5,-1 8,-1 3,0 7,1 11,3l-3 6c-1,-1 -3,-1 -4,-2 -1,0 -3,-1 -4,-1 -2,0 -4,1 -5,2 -1,0 -1,1 -1,3 0,1 0,2 1,3 1,0 2,1 4,2l2 2 2 1c2,1 4,2 6,3 1,1 2,2 3,4 1,1 1,3 1,5 0,2 0,4 -1,6 -2,1 -3,3 -6,4 -2,1 -5,1 -8,1z"/>
     <path id="3" class="fil31" d="M2489 2860c1,0 3,0 5,1 2,0 4,1 5,1l-2 6 -2 0c-1,-1 -2,-1 -3,-1 -1,-1 -2,-1 -4,-1 -2,0 -4,1 -5,2 -2,1 -4,3 -4,5 -1,3 -2,5 -2,8 0,3 0,5 1,7 1,3 2,4 4,6 2,1 4,2 6,2 3,0 6,-1 9,-2l3 6c-2,0 -4,1 -6,1 -2,1 -4,1 -6,1 -4,0 -7,-1 -10,-3 -3,-1 -5,-4 -7,-7 -1,-3 -2,-7 -2,-11 0,-4 1,-8 2,-11 2,-3 4,-6 7,-7 3,-2 7,-3 11,-3z"/>
     <polygon id="4" class="fil31" points="2533,2895 2534,2901 2506,2901 2506,2861 2533,2861 2534,2867 2513,2867 2513,2878 2527,2878 2528,2884 2513,2884 2513,2895 "/>
     <path class="fil31" d="M2636 3055c-1,0 -3,0 -4,1 -1,1 -1,1 -2,2l-7 0 1 -23 24 0 -1 7 -16 0 0 7c1,0 3,-1 5,-1 3,0 5,1 7,2 3,1 4,3 5,5 1,2 2,4 2,7 0,3 -1,5 -2,7 -1,3 -3,4 -5,6 -3,1 -6,1 -9,1 -2,0 -5,0 -7,-1 -3,0 -5,-1 -7,-3l4 -5c2,1 4,1 5,2 2,0 3,0 5,0 3,0 5,0 6,-2 2,-1 2,-3 2,-5 0,-2 0,-4 -1,-5 -2,-1 -3,-2 -5,-2z"/>
     <path id="1" class="fil31" d="M2658 3023l3 0 1 4 -4 0 0 6c0,1 1,2 1,2 0,1 1,1 2,1 0,0 1,0 1,0l2 3c-1,0 -1,0 -2,0 -1,1 -1,1 -2,1 -2,0 -3,-1 -4,-2 -1,-1 -2,-2 -2,-4l0 -7 -2 0 0 -4 2 0 0 -3 4 -1 0 4z"/>
     <path id="2" class="fil31" d="M2681 3029l0 10 -4 0 0 -10c0,-1 0,-1 -1,-2 0,0 -1,-1 -1,-1 -1,0 -2,0 -3,1 0,0 -1,1 -2,1l0 11 -4 0 0 -23 4 0 0 8c1,0 2,0 3,-1 1,0 2,0 3,0 2,0 3,0 4,1 1,2 1,3 1,5z"/>
     <path id="3" class="fil31" d="M2759 3023l3 0 1 4 -4 0 0 6c0,1 0,2 1,2 0,1 0,1 1,1 1,0 1,0 2,0l1 3c0,0 -1,0 -1,0 -1,1 -1,1 -2,1 -2,0 -4,-1 -5,-2 -1,-1 -1,-2 -1,-4l0 -7 -2 0 0 -4 2 0 0 -3 4 -1 0 4z"/>
     <path id="4" class="fil31" d="M2782 3029l0 10 -5 0 0 -10c0,-1 0,-1 0,-2 -1,0 -1,-1 -2,-1 -1,0 -1,0 -2,1 -1,0 -1,1 -2,1l0 11 -4 0 0 -23 4 0 0 8c1,0 2,0 3,-1 1,0 2,0 2,0 2,0 4,0 4,1 1,2 2,3 2,5z"/>
     <polygon id="5" class="fil31" points="2685,3050 2702,3050 2702,3057 2685,3057 "/>
     <path id="6" class="fil31" d="M2722 3041c0,-2 1,-4 2,-6 1,-1 3,-3 5,-4 2,-1 4,-1 7,-1 2,0 5,0 7,1 2,1 3,3 4,4 1,2 2,4 2,6 0,2 0,4 -2,5 -1,2 -2,3 -4,3 2,1 4,2 5,4 2,2 3,4 3,6 0,3 -1,5 -2,7 -1,2 -3,3 -5,5 -3,1 -5,1 -8,1 -3,0 -6,0 -8,-1 -3,-2 -4,-3 -6,-5 -1,-2 -1,-4 -1,-7 0,-2 0,-4 2,-6 1,-2 3,-3 5,-4 -2,0 -3,-1 -4,-3 -1,-1 -2,-3 -2,-5zm19 0c0,-1 0,-2 -1,-3 -1,-1 -3,-1 -4,-1 -2,0 -3,0 -5,1 -1,1 -1,2 -1,3 0,2 0,3 1,4 1,1 3,1 5,2 2,-1 3,-1 4,-2 1,-1 1,-2 1,-4zm2 19c0,-2 -1,-3 -2,-5 -1,-1 -3,-2 -5,-2 -3,0 -5,1 -6,2 -1,2 -2,3 -2,5 0,1 1,3 2,4 2,1 4,2 6,2 2,0 3,-1 5,-2 1,-1 2,-3 2,-4z"/>
     <path id="7" class="fil31" d="M2799 3072c1,-1 2,-1 3,-2 1,0 1,-1 1,-1 1,-1 1,-2 1,-3l0 -39 8 0 0 40c0,2 0,4 -1,5 0,1 -1,3 -3,3 -1,1 -3,2 -6,3l-3 -6z"/>
     <path id="8" class="fil31" d="M2818 3072l17 -45 7 0 17 44 -8 1 -4 -11 -17 0 -4 11 -8 0zm15 -18l11 0 -6 -15 -5 15z"/>
     <polygon id="9" class="fil31" points="2874,3042 2874,3072 2865,3072 2865,3027 2874,3027 2894,3057 2894,3027 2903,3027 2903,3072 2894,3072 "/>
    </g>
   </g>
  </g>
 </g>
</svg>
