<?xml version="1.0" encoding="UTF-8"?>
<!DOCTYPE svg PUBLIC "-//W3C//DTD SVG 1.1//EN" "http://www.w3.org/Graphics/SVG/1.1/DTD/svg11.dtd">
<!-- Creator: CorelDRAW X7 -->
<svg xmlns="http://www.w3.org/2000/svg" xml:space="preserve" width="2.729in" height="1.491in" version="1.1" style="shape-rendering:geometricPrecision; text-rendering:geometricPrecision; image-rendering:optimizeQuality; fill-rule:evenodd; clip-rule:evenodd"
viewBox="0 0 2729 1491"
 xmlns:xlink="http://www.w3.org/1999/xlink">
 <defs>
  <style type="text/css">
   <![CDATA[
    .fil1 {fill:#FEFEFE;fill-rule:nonzero}
    .fil0 {fill:#E88021;fill-rule:nonzero}
   ]]>
  </style>
 </defs>
 <g id="Layer_x0020_1">
  <metadata id="CorelCorpID_0Corel-Layer"/>
  <g id="_2525484444128">
   <path class="fil0" d="M0 950l0 -931 391 0c112,0 203,27 275,80 73,52 109,132 109,238 0,54 -12,102 -34,144 -22,41 -53,75 -92,102l205 367 -289 0 -150 -293 -166 0 0 293 -249 0zm517 -613c0,-41 -11,-71 -35,-91 -23,-21 -56,-31 -99,-31l-134 0 0 246 137 0c38,0 70,-12 94,-35 25,-23 37,-53 37,-89zm364 613l349 -931 249 0 348 920 -245 24 -67 -197 -322 0 -64 184 -248 0zm381 -379l182 0 -93 -254 -89 254zm1137 15l0 364 -249 0 0 -367 -296 -517 238 -66 181 354 193 -335 256 0 -323 567z"/>
   <path class="fil1" d="M277 1310l0 172 -40 0 0 -442 115 0c49,0 87,10 116,32 29,21 43,55 43,101 0,45 -16,80 -47,103 -31,23 -71,34 -120,34l-67 0zm193 -136c0,-36 -10,-62 -30,-77 -20,-15 -49,-23 -87,-23l-76 0 0 202 69 0c37,0 67,-9 90,-25 22,-16 34,-42 34,-77zm425 -134l0 442 -40 0 0 -208 -219 0 0 208 -40 0 0 -442 40 -4 0 206 219 0 0 -202 40 0zm91 223c0,-44 9,-84 27,-119 18,-35 42,-63 74,-83 31,-20 67,-31 106,-32 39,0 74,10 105,29 31,20 55,47 73,82 17,34 26,74 26,118 0,43 -9,83 -27,118 -18,36 -42,63 -74,84 -32,20 -67,31 -107,31 -38,0 -73,-10 -104,-29 -31,-20 -55,-47 -73,-82 -17,-34 -26,-73 -26,-117zm208 -197c-32,0 -60,8 -85,25 -25,17 -44,40 -59,70 -14,30 -21,64 -21,101 0,37 7,70 21,99 13,30 32,52 56,69 24,17 52,25 82,25 32,0 60,-8 85,-25 25,-17 44,-40 58,-70 15,-30 22,-64 22,-102 0,-37 -7,-70 -21,-99 -14,-29 -32,-52 -56,-69 -25,-16 -52,-24 -82,-24zm542 383l4 33 -252 0 0 -442 249 0 3 29 -212 0 0 172 156 0 4 29 -160 0 0 179 208 0zm119 -331l0 364 -40 0 0 -442 27 0 232 320 22 38 0 -358 41 0 0 442 -27 0 -246 -345 -9 -19zm446 -78l0 442 -40 0 0 -442 40 0zm250 249l-137 193 -45 0 159 -224 -144 -211 35 -16 140 206 126 -197 44 0 -148 227 139 215 -45 0 -124 -193z"/>
   <path class="fil1" d="M3 1482l0 -135 11 -1 0 61 169 0 0 13 -169 0 0 62 -11 0zm0 -286l180 0 0 13 -86 0 0 95 86 0 0 13 -180 0 -1 -13 85 0 0 -95 -84 0 0 -13zm170 -151l10 -2 0 100 -180 0 0 -99 11 -1 0 87 72 0 0 -63 10 -2 0 65 77 0 0 -85z"/>
  </g>
 </g>
</svg>
