<?xml version="1.0" encoding="UTF-8"?>
<!DOCTYPE svg PUBLIC "-//W3C//DTD SVG 1.1//EN" "http://www.w3.org/Graphics/SVG/1.1/DTD/svg11.dtd">
<!-- Creator: CorelDRAW X7 -->
<svg xmlns="http://www.w3.org/2000/svg" xml:space="preserve" width="2.72999in" height="1.48999in" version="1.1" style="shape-rendering:geometricPrecision; text-rendering:geometricPrecision; image-rendering:optimizeQuality; fill-rule:evenodd; clip-rule:evenodd"
viewBox="0 0 2730 1490"
 xmlns:xlink="http://www.w3.org/1999/xlink">
 <defs>
  <style type="text/css">
   <![CDATA[
    .fil1 {fill:#FEFEFE;fill-rule:nonzero}
    .fil0 {fill:#E88021;fill-rule:nonzero}
   ]]>
  </style>
 </defs>
 <g id="Layer_x0020_1">
  <metadata id="CorelCorpID_0Corel-Layer"/>
  <g id="_2400269323040">
   <path class="fil0" d="M1 949l0 -930 391 0c111,0 203,26 275,79 72,53 108,132 108,238 0,55 -11,103 -33,144 -23,42 -54,76 -93,102l205 367 -288 0 -151 -293 -165 0 0 293 -249 0zm517 -613c0,-40 -12,-70 -35,-91 -23,-20 -56,-31 -99,-31l-134 0 0 247 137 0c38,0 69,-12 94,-35 25,-24 37,-53 37,-90z"/>
   <path id="1" class="fil0" d="M882 949l349 -930 249 0 347 919 -245 25 -67 -197 -321 0 -65 183 -247 0zm380 -379l182 0 -93 -253 -89 253z"/>
   <polygon id="2" class="fil0" points="2399,585 2399,949 2150,949 2150,582 1855,65 2093,-1 2273,354 2466,19 2722,19 "/>
   <path class="fil1" d="M278 1310l0 171 -40 0 0 -442 114 0c49,0 88,11 117,32 28,22 42,55 42,101 0,46 -16,80 -46,103 -31,23 -71,35 -120,35l-67 0zm192 -137c0,-36 -9,-61 -29,-77 -20,-15 -49,-22 -88,-22l-75 0 0 201 68 0c38,0 67,-8 90,-24 23,-17 34,-43 34,-78z"/>
   <polygon id="1" class="fil1" points="896,1039 896,1481 856,1481 856,1274 636,1274 636,1481 596,1481 596,1039 636,1036 636,1241 856,1241 856,1039 "/>
   <path id="2" class="fil1" d="M987 1262c0,-44 9,-83 27,-118 17,-35 42,-63 73,-83 32,-21 67,-31 107,-32 39,0 74,9 105,29 31,19 55,47 72,81 18,35 26,74 26,118 0,44 -9,83 -26,119 -18,35 -43,63 -75,83 -31,21 -67,31 -106,31 -39,0 -74,-9 -105,-29 -31,-19 -55,-46 -72,-81 -17,-35 -26,-74 -26,-118zm207 -197c-31,0 -60,9 -85,26 -24,16 -44,40 -58,70 -14,30 -21,63 -21,101 0,36 7,69 20,99 14,29 33,52 57,69 24,16 51,25 82,25 31,0 59,-9 84,-26 25,-17 45,-40 59,-70 14,-30 21,-64 21,-101 0,-37 -7,-70 -20,-100 -14,-29 -33,-52 -57,-68 -24,-17 -51,-25 -82,-25z"/>
   <polygon id="3" class="fil1" points="1737,1449 1741,1481 1488,1481 1488,1039 1737,1039 1741,1068 1529,1068 1529,1240 1685,1240 1688,1269 1529,1269 1529,1449 "/>
   <polygon id="4" class="fil1" points="1856,1117 1856,1481 1816,1481 1816,1039 1842,1039 2074,1359 2096,1397 2096,1039 2137,1039 2137,1481 2111,1481 1865,1136 "/>
   <polygon id="5" class="fil1" points="2301,1039 2301,1481 2261,1481 2261,1039 "/>
   <polygon id="6" class="fil1" points="2551,1288 2415,1481 2370,1481 2529,1258 2385,1047 2420,1030 2560,1236 2685,1039 2729,1039 2581,1266 2720,1481 2675,1481 "/>
   <polygon class="fil1" points="4,1481 4,1347 14,1345 14,1407 184,1407 184,1420 14,1420 14,1481 "/>
   <polygon id="1" class="fil1" points="4,1196 184,1196 184,1209 98,1209 98,1303 184,1303 184,1316 4,1316 2,1303 87,1303 87,1209 4,1209 "/>
   <polygon id="2" class="fil1" points="174,1044 184,1043 184,1143 4,1143 4,1044 14,1043 14,1130 86,1130 86,1066 97,1065 97,1130 174,1130 "/>
  </g>
 </g>
</svg>
